<?xml version="1.0" encoding="UTF-8" standalone="no"?>
<!-- Created with Inkscape (http://www.inkscape.org/) -->

<svg
   width="142.7775mm"
   height="34.431587mm"
   viewBox="0 0 142.7775 34.431587"
   version="1.1"
   id="svg1"
   xml:space="preserve"
   inkscape:version="1.3 (0e150ed6c4, 2023-07-21)"
   sodipodi:docname="moon_logo_512x512_fixed.svg"
   inkscape:export-filename="moon_logo_512x512_fixed.svg"
   inkscape:export-xdpi="96"
   inkscape:export-ydpi="96"
   xmlns:inkscape="http://www.inkscape.org/namespaces/inkscape"
   xmlns:sodipodi="http://sodipodi.sourceforge.net/DTD/sodipodi-0.dtd"
   xmlns:xlink="http://www.w3.org/1999/xlink"
   xmlns="http://www.w3.org/2000/svg"
   xmlns:svg="http://www.w3.org/2000/svg"><sodipodi:namedview
     id="namedview1"
     pagecolor="#ffffff"
     bordercolor="#000000"
     borderopacity="0.25"
     inkscape:showpageshadow="2"
     inkscape:pageopacity="0.0"
     inkscape:pagecheckerboard="0"
     inkscape:deskcolor="#d1d1d1"
     inkscape:document-units="mm"
     inkscape:zoom="1.2825992"
     inkscape:cx="195.69636"
     inkscape:cy="92.780348"
     inkscape:window-width="1920"
     inkscape:window-height="991"
     inkscape:window-x="-9"
     inkscape:window-y="-9"
     inkscape:window-maximized="1"
     inkscape:current-layer="g6" /><defs
     id="defs1"><linearGradient
       id="linearGradient16"
       inkscape:collect="always"><stop
         style="stop-color:#e1f9f2;stop-opacity:1;"
         offset="1"
         id="stop17" /><stop
         style="stop-color:#0706fe;stop-opacity:0;"
         offset="1"
         id="stop18" /></linearGradient><linearGradient
       id="swatch5"
       inkscape:swatch="solid"><stop
         style="stop-color:#ffffff;stop-opacity:1;"
         offset="0"
         id="stop6" /></linearGradient><linearGradient
       inkscape:collect="always"
       xlink:href="#linearGradient16"
       id="linearGradient18"
       x1="38.202953"
       y1="127.12866"
       x2="183.65533"
       y2="127.12866"
       gradientUnits="userSpaceOnUse"
       gradientTransform="matrix(2.3931725,0,0,2.3931725,130.33336,-224.76691)" /></defs><g
     inkscape:label="Capa 1"
     inkscape:groupmode="layer"
     id="layer1"
     transform="translate(-41.332372,-221.28179)"><g
       id="g3"><g
         id="LOGO_MOON"
         inkscape:export-filename="LOGO_MOON.png"
         inkscape:export-xdpi="160.10927"
         inkscape:export-ydpi="160.10927"
         transform="matrix(0.43078595,0,0,0.43078595,64.784336,136.27105)"><g
           id="g6"
           transform="matrix(1.7396327,0.00390207,-0.00390207,1.7396327,-83.886338,-177.99972)"><g
             id="text1-5"
             inkscape:transform-center-x="1.4458688"
             inkscape:transform-center-y="-32.597482"
             transform="scale(1.0590356,0.94425531)"><path
               style="color:#000000;-inkscape-font-specification:'Roboto, Medium';fill:#00becf;stroke-linecap:round;stroke-linejoin:round;stroke-miterlimit:8;-inkscape-stroke:none;paint-order:stroke fill markers"
               d="m 93.796875,234.36523 c -4.170411,0 -7.608401,1.4164 -10.232422,4.23243 a 0.33094908,0.33094908 0 0 0 -0.002,0 c -2.604943,2.81269 -3.910156,6.36534 -3.910156,10.59179 v 6.14453 c 0,4.24225 1.314545,7.80245 3.935547,10.61524 2.623997,2.79999 6.054346,4.20898 10.208984,4.20898 4.262152,0 7.769362,-1.40698 10.441402,-4.20703 2.68435,-2.81218 4.03125,-6.37329 4.03125,-10.61719 v -6.14453 c 0,-4.22852 -1.34711,-7.7818 -4.03125,-10.59375 -2.6871,-2.81506 -6.194207,-4.23047 -10.441402,-4.23047 z m 32.880855,0 c -4.17041,0 -7.61035,1.4164 -10.23437,4.23243 -2.60494,2.81269 -3.91016,6.36534 -3.91016,10.59179 v 6.14453 c 0,4.24225 1.3126,7.80245 3.9336,10.61524 a 0.33094908,0.33094908 0 0 0 0.002,0 c 2.624,2.79999 6.05435,4.20898 10.20898,4.20898 4.26215,0 7.76741,-1.40698 10.43946,-4.20703 2.68434,-2.81218 4.03125,-6.37329 4.03125,-10.61719 v -6.14453 c 0,-4.22852 -1.34712,-7.7818 -4.03125,-10.59375 -2.6871,-2.81506 -6.19226,-4.23047 -10.43946,-4.23047 z m -87.337886,0.49219 a 0.33094908,0.33094908 0 0 0 -0.330078,0.33008 v 34.14648 a 0.33094908,0.33094908 0 0 0 0.330078,0.33204 h 5.699218 a 0.33094908,0.33094908 0 0 0 0.332032,-0.33204 v -23.59765 l 9.068359,23.71679 a 0.33094908,0.33094908 0 0 0 0.308594,0.2129 h 3.917969 a 0.33094908,0.33094908 0 0 0 0.308593,-0.2129 l 8.904297,-23.25195 v 23.13281 a 0.33094908,0.33094908 0 0 0 0.332031,0.33204 h 5.699219 a 0.33094908,0.33094908 0 0 0 0.330078,-0.33204 V 235.1875 a 0.33094908,0.33094908 0 0 0 -0.330078,-0.33008 h -7.271484 a 0.33094908,0.33094908 0 0 0 -0.308594,0.21485 l -9.632812,25.62695 -9.564454,-25.62695 a 0.33094908,0.33094908 0 0 0 -0.310546,-0.21485 z m 107.529296,0 a 0.33094908,0.33094908 0 0 0 -0.33008,0.33008 v 34.14648 a 0.33094908,0.33094908 0 0 0 0.33008,0.33204 h 5.69922 a 0.33094908,0.33094908 0 0 0 0.33008,-0.33204 v -23.66015 l 14.65429,23.83398 a 0.33094908,0.33094908 0 0 0 0.28321,0.15821 h 5.69922 a 0.33094908,0.33094908 0 0 0 0.33007,-0.33204 V 235.1875 a 0.33094908,0.33094908 0 0 0 -0.33007,-0.33008 h -5.69922 a 0.33094908,0.33094908 0 0 0 -0.33203,0.33008 v 23.6582 l -14.6543,-23.83008 a 0.33094908,0.33094908 0 0 0 -0.28125,-0.1582 z m -53.072265,0.16992 c 4.101774,0 7.396705,1.33701 9.962895,4.02539 2.56915,2.69149 3.84765,6.04753 3.84765,10.13672 v 6.14453 c 0,4.10509 -1.27872,7.46889 -3.84765,10.16016 -2.54997,2.67212 -5.844798,4.00195 -9.962895,4.00195 -4.006719,0 -7.222352,-1.32782 -9.726563,-4 -2.505936,-2.69032 -3.755859,-6.05641 -3.755859,-10.16211 v -6.14453 c 0,-4.09126 1.242378,-7.44988 3.734375,-10.14062 2.504187,-2.68742 5.725832,-4.02149 9.748047,-4.02149 z m 32.880855,0 c 4.10178,0 7.39475,1.33701 9.96094,4.02539 2.56915,2.69149 3.84961,6.04753 3.84961,10.13672 v 6.14453 c 0,4.10509 -1.28068,7.46889 -3.84961,10.16016 -2.54997,2.67212 -5.84284,4.00195 -9.96094,4.00195 -4.00671,0 -7.22234,-1.32782 -9.72656,-4 -2.50649,-2.69047 -3.75586,-6.05596 -3.75586,-10.16211 v -6.14453 c 0,-4.09126 1.24238,-7.44988 3.73438,-10.14062 2.50404,-2.68668 5.72638,-4.02149 9.74804,-4.02149 z m -87.005855,0.49219 h 6.919922 l 9.722656,26.05078 a 0.33094908,0.33094908 0 0 0 0.310547,0.21485 h 0.140625 a 0.33094908,0.33094908 0 0 0 0.310547,-0.21485 l 9.792969,-26.05078 h 6.708984 v 33.48438 h -5.037109 v -24.20118 a 0.33094908,0.33094908 0 0 0 -0.275391,-0.32617 L 68.125,244.45312 a 0.33094908,0.33094908 0 0 0 -0.365234,0.20899 l -9.322266,24.3418 h -3.460938 l -9.486328,-24.81055 a 0.33094908,0.33094908 0 0 0 -0.414062,-0.19531 l -0.140625,0.0469 a 0.33094908,0.33094908 0 0 0 -0.226563,0.3125 v 24.64649 h -5.037109 z m 107.527345,0 h 5.18359 l 15.0293,24.44336 a 0.33094908,0.33094908 0 0 0 0.38672,0.14063 l 0.14062,-0.0469 a 0.33094908,0.33094908 0 0 0 0.22657,-0.31445 v -24.22266 h 5.0371 v 33.48438 h -5.18359 l -15.0293,-24.44336 a 0.33094908,0.33094908 0 0 0 -0.38671,-0.14063 l -0.14063,0.0469 a 0.33094908,0.33094908 0 0 0 -0.22656,0.3125 v 24.22461 h -5.03711 z m -53.402345,3.53516 c -2.59736,0 -4.704883,0.96705 -6.216797,2.86914 a 0.33094908,0.33094908 0 0 0 0,0.002 c -1.489934,1.8948 -2.228516,4.31551 -2.228516,7.2168 v 6.1914 c 0,2.93256 0.746159,5.37653 2.251954,7.28711 a 0.33094908,0.33094908 0 0 0 0,0.002 c 1.511554,1.90163 3.611133,2.86718 6.193359,2.86718 2.687697,0 4.861323,-0.9621 6.421875,-2.86328 1.57127,-1.89524 2.35156,-4.34269 2.35156,-7.29297 v -6.1914 c 0,-2.90432 -0.78118,-5.33044 -2.35156,-7.22461 -1.575771,-1.90068 -3.748756,-2.86328 -6.421875,-2.86328 z m 32.880855,0 c -2.59735,0 -4.70487,0.96705 -6.21679,2.86914 a 0.33094908,0.33094908 0 0 0 -0.002,0.002 c -1.48993,1.8948 -2.22851,4.31551 -2.22851,7.2168 v 6.1914 c 0,2.93256 0.74811,5.37653 2.25391,7.28711 a 0.33094908,0.33094908 0 0 0 0,0.002 c 1.51155,1.90163 3.61113,2.86718 6.19335,2.86718 2.68829,0 4.86125,-0.96127 6.42188,-2.86328 1.57127,-1.89524 2.35156,-4.34269 2.35156,-7.29297 v -6.1914 c 0,-2.90432 -0.78118,-5.33044 -2.35156,-7.22461 -1.57578,-1.90068 -3.74876,-2.86328 -6.42188,-2.86328 z m -32.880855,0.66211 c 2.517629,0 4.456686,0.86713 5.914062,2.625 1.462763,1.76436 2.197263,4.01404 2.197263,6.80078 v 6.1914 c 0,2.83461 -0.73538,5.1078 -2.197263,6.8711 a 0.33094908,0.33094908 0 0 0 -0.002,0.002 c -1.441252,1.75652 -3.37838,2.62305 -5.912109,2.62305 -2.420905,0 -4.277314,-0.86224 -5.673828,-2.61914 -1.402274,-1.77923 -2.109375,-4.0559 -2.109375,-6.87696 v -6.1914 c 0,-2.78906 0.699776,-5.04312 2.085937,-6.80664 1.396156,-1.75646 3.260226,-2.61914 5.697266,-2.61914 z m 32.880855,0 c 2.51763,0 4.45473,0.86713 5.91211,2.625 1.46277,1.76436 2.19922,4.01404 2.19922,6.80078 v 6.1914 c 0,2.83461 -0.73734,5.1078 -2.19922,6.8711 a 0.33094908,0.33094908 0 0 0 0,0.002 c -1.44125,1.75652 -3.37837,2.62305 -5.91211,2.62305 -2.42031,0 -4.27742,-0.8631 -5.67382,-2.61914 -1.40228,-1.77923 -2.11133,-4.0559 -2.11133,-6.87696 v -6.1914 c 0,-2.78869 0.70014,-5.04322 2.08594,-6.80664 l 0.002,-0.002 c 1.39596,-1.75491 3.26129,-2.61718 5.69726,-2.61718 z"
               id="path4" /><g
               id="g5"><path
                 style="color:#000000;-inkscape-font-specification:'Roboto, Medium';fill:#00becf;stroke-linecap:round;stroke-linejoin:round;stroke-miterlimit:8;-inkscape-stroke:none;paint-order:stroke fill markers"
                 d="m 56.625054,261.45472 h 0.140713 l 9.873376,-26.26646 h 7.270181 v 34.1464 H 68.21044 v -24.531 l -0.140713,-0.0235 -9.404332,24.55446 h -3.916517 l -9.568497,-25.0235 -0.140713,0.0469 v 24.9766 h -5.698884 v -34.1464 h 7.481251 z m 51.313406,-6.12103 q 0,6.26174 -3.93997,10.38933 -3.91651,4.10413 -10.201703,4.10413 -6.121024,0 -9.967184,-4.10413 -3.846161,-4.12759 -3.846161,-10.38933 v -6.14447 q 0,-6.23829 3.822709,-10.36587 3.84616,-4.12759 9.990636,-4.12759 6.261733,0 10.201703,4.12759 3.93997,4.12758 3.93997,10.36587 z m -5.69888,-6.19138 q 0,-4.2683 -2.274865,-7.0122 -2.274863,-2.74391 -6.167928,-2.74391 -3.775804,0 -5.956858,2.74391 -2.157602,2.7439 -2.157602,7.0122 v 6.19138 q 0,4.31521 2.181054,7.08257 2.181054,2.7439 5.933406,2.7439 3.916517,0 6.167928,-2.7439 2.274865,-2.74391 2.274865,-7.08257 z m 38.57886,6.19138 q 0,6.26174 -3.93996,10.38933 -3.91652,4.10413 -10.20171,4.10413 -6.12102,0 -9.96719,-4.10413 -3.84616,-4.12759 -3.84616,-10.38933 v -6.14447 q 0,-6.23829 3.82271,-10.36587 3.84616,-4.12759 9.99064,-4.12759 6.26174,0 10.20171,4.12759 3.93996,4.12758 3.93996,10.36587 z m -5.69888,-6.19138 q 0,-4.2683 -2.27486,-7.0122 -2.27487,-2.74391 -6.16793,-2.74391 -3.7758,0 -5.95686,2.74391 -2.1576,2.7439 -2.1576,7.0122 v 6.19138 q 0,4.31521 2.18105,7.08257 2.18106,2.7439 5.93341,2.7439 3.91652,0 6.16793,-2.7439 2.27486,-2.74391 2.27486,-7.08257 z m 38.4147,20.19235 h -5.69888 l -15.12667,-24.60136 -0.14071,0.0469 v 24.55446 h -5.69889 v -34.1464 h 5.69889 l 15.12666,24.60135 0.14072,-0.0469 v -24.55445 h 5.69888 z"
                 id="path5" /></g></g><g
             id="g1"
             transform="matrix(0.2051885,0,0,0.22433648,79.059344,213.23836)"><g
               id="g21"
               transform="matrix(0.41785538,0,0,0.41785538,-10.335339,60.316215)"><g
                 id="LOGO_1"><g
                   id="g24"
                   transform="translate(-98.319133,-115.13688)"
                   inkscape:export-filename="g24.png"
                   inkscape:export-xdpi="96"
                   inkscape:export-ydpi="96"><g
                     id="g23"
                     transform="translate(-26.734363,193.61161)"
                     inkscape:label="g23"><path
                       style="fill:#00becf;stroke-width:2.14076"
                       d="m 366.96698,183.33479 c -1.54827,-1.54828 -2.16883,-12.95857 -2.16883,-39.8785 0,-37.70971 0,-37.70971 -5.42205,-42.27206 -8.57279,-7.213532 -7.23983,-8.926537 30.72503,-39.484504 26.99653,-21.729532 35.95439,-29.928524 36.03708,-32.984248 0.089,-3.289025 1.14674,-4.06655 5.53211,-4.06655 4.38888,0 5.4408,0.774913 5.5203,4.06655 0.0734,3.034766 9.24492,11.623997 36.14714,33.852027 38.79626,32.055484 38.73164,31.970958 30.6268,40.075785 -5.42207,5.42207 -5.42207,5.42207 -5.42207,41.97237 0,26.0182 -0.62496,37.17526 -2.16881,38.71913 -3.10786,3.10786 -126.29884,3.10786 -129.4067,0 z m 53.85922,-29.54965 c 0,-18.37305 0.68587,-25.81541 2.74633,-29.7999 2.25647,-4.36355 2.65945,-12.25073 2.2592,-44.218142 -0.48716,-38.90731 -0.48716,-38.90731 -32.6916,-12.435369 -31.00049,25.482312 -33.57063,28.481692 -25.63093,29.911545 3.46929,0.624781 3.63426,2.267738 4.10112,40.840956 0.48642,40.18995 0.48642,40.18995 24.85114,40.18995 24.36474,0 24.36474,0 24.36474,-24.48904 z m -37.95449,-0.81393 c 0,-9.03679 0,-9.03679 12.6515,-9.03679 12.65147,0 12.65147,0 12.65147,9.03679 0,9.03678 0,9.03678 -12.65147,9.03678 -12.6515,0 -12.6515,0 -12.6515,-9.03678 z m 0,-42.47286 c 0,-8.1331 0,-8.1331 12.6515,-8.1331 12.65147,0 12.65147,0 12.65147,8.1331 0,8.13309 0,8.13309 -12.65147,8.13309 -12.6515,0 -12.6515,0 -12.6515,-8.13309 z m 108.44136,28.13407 c 0,-39.64179 0,-39.64179 4.83083,-40.213667 8.62435,-1.020982 6.25843,-3.806027 -26.17323,-30.809988 -31.9746,-26.623357 -31.9746,-26.623357 -32.46175,12.221143 -0.40019,31.911342 0.003,39.792392 2.25921,44.155332 2.06044,3.98449 2.74634,11.42685 2.74634,29.7999 0,24.48904 0,24.48904 24.3993,24.48904 24.3993,0 24.3993,0 24.3993,-39.64176 z m -36.14712,14.33879 c 0,-9.03679 0,-9.03679 12.6515,-9.03679 12.65147,0 12.65147,0 12.65147,9.03679 0,9.03678 0,9.03678 -12.65147,9.03678 -12.6515,0 -12.6515,0 -12.6515,-9.03678 z m 0,-42.47286 c 0,-8.1331 0,-8.1331 12.6515,-8.1331 12.65147,0 12.65147,0 12.65147,8.1331 0,8.13309 0,8.13309 -12.65147,8.13309 -12.6515,0 -12.6515,0 -12.6515,-8.13309 z"
                       id="path22" /><path
                       style="fill:#00becf;stroke-width:70.2695;stroke-linecap:round;stroke-linejoin:round;stroke-miterlimit:8;paint-order:stroke fill markers"
                       d="m 1171.2187,701.32256 c -3.6335,-7.02638 -13.1347,-10.96981 -23.5117,-9.75845 -3.3711,0.39352 -6.7594,0.75112 -7.5296,0.79467 -0.7701,0.0435 -2.8263,1.38165 -4.5692,2.97357 -1.7429,1.5919 -3.4226,2.89438 -3.7326,2.89438 -0.3101,0 -1.4235,-3.92147 -2.4743,-8.71438 -1.8242,-8.31988 -3.6576,-12.17495 -3.6576,-7.69065 0,1.15686 -0.5108,2.10338 -1.1352,2.10338 -0.731,0 -0.9101,-1.20011 -0.503,-3.37008 0.491,-2.61744 -0.4671,-6.09658 -4.2903,-15.57858 -5.3619,-13.29791 -7.6506,-20.87844 -9.3918,-31.1071 -0.6217,-3.65202 -1.4044,-7.55944 -1.7393,-8.68314 l -0.6089,-2.04309 -0.7986,2.04309 c -0.6847,1.75169 -0.8089,1.78578 -0.8704,0.23903 -0.039,-0.99223 -2.5609,-7.88767 -5.6032,-15.32319 -6.1554,-15.04443 -7.7951,-20.83628 -10.3341,-36.50391 -1.9232,-11.86792 -2.5069,-13.57315 -3.6483,-10.65843 -0.6745,1.72237 -0.7827,1.74639 -0.8453,0.18758 -0.04,-0.98324 -0.4823,-1.78771 -0.9839,-1.78771 -1.3015,0 -9.8992,-20.02515 -11.8804,-27.67098 -0.9166,-3.53714 -2.507,-11.97443 -3.5343,-18.74954 -1.0273,-6.77511 -3.5761,-18.75411 -5.664,-26.62002 -3.6358,-13.69742 -3.8164,-15.16482 -4.2739,-34.73256 -0.2627,-11.23701 -0.8963,-20.86764 -1.4081,-21.40139 -0.5118,-0.53376 -0.9305,-2.25742 -0.9305,-3.83035 0,-1.57293 -0.7431,-7.11226 -1.6513,-12.30963 -2.1155,-12.10691 -2.255,-25.47978 -0.4377,-41.97694 1.2101,-10.98495 1.2233,-13.64249 0.081,-16.34474 -0.7503,-1.7748 -1.5684,-5.3991 -1.818,-8.05397 -0.4202,-4.46765 1.0508,-21.09452 2.4423,-27.60704 1.1077,-5.18395 -2.1922,-3.11785 -12.8512,8.04621 -5.7004,5.9705 -10.4968,10.68238 -10.6587,10.47085 -0.1619,-0.21154 -2.0217,-3.60249 -4.1328,-7.53544 -2.1112,-3.93295 -4.4886,-7.82395 -5.2831,-8.64666 -1.2563,-1.30076 -1.4446,-1.08619 -1.4446,1.64547 0,1.72772 0.9517,7.80807 2.1151,13.5119 l 2.1151,10.37061 -4.863,6.62299 -4.8629,6.62299 -2.1704,-2.03894 c -1.1937,-1.12141 -2.5321,-2.03893 -2.9743,-2.03893 -0.4422,0 -0.4753,3.27359 -0.074,7.27465 1.0318,10.27349 -0.7444,9.08177 -7.805,-5.23671 -5.13628,-10.41603 -8.04135,-14.50853 -8.04135,-11.32819 0,0.60251 1.60015,8.74577 3.55589,18.09614 l 3.55586,17.00066 -4.69059,8.60507 c -4.34717,7.97499 -4.81914,8.4888 -6.44559,7.01688 -0.96522,-0.87351 -2.00307,-1.58821 -2.30632,-1.58821 -0.30327,0 -0.78588,3.3328 -1.07248,7.40621 -0.28661,4.07342 -1.05274,8.74272 -1.7025,10.37623 l -1.18141,2.97002 -5.32281,-7.82236 c -8.11836,-11.93071 -8.75081,-10.47854 -3.38223,7.76606 l 3.48184,11.83267 -5.04027,15.6589 c -6.40064,19.88523 -6.10057,19.12719 -6.80501,17.19122 -0.30666,-0.84278 -1.14582,-1.99201 -1.86479,-2.55387 -2.09599,-1.63794 -7.31849,-15.94126 -11.12892,-30.47975 -4.62778,-17.65701 -5.33436,-23.87335 -3.18583,-28.02813 2.16716,-4.19084 2.08978,-5.69157 -0.26177,-5.07662 -1.65215,0.43204 -1.99234,-0.26309 -2.49041,-5.08898 -0.68441,-6.63123 0.20055,-9.30696 5.32977,-16.11484 4.69448,-6.23085 6.59147,-9.67874 5.77459,-10.49562 -0.33878,-0.33877 -2.68859,0.39101 -5.22182,1.62175 -3.8375,1.8644 -4.70049,1.99109 -5.17312,0.75944 -0.65803,-1.71481 3.32681,-29.09334 4.79738,-32.96125 0.54512,-1.43378 1.89907,-3.88196 3.00878,-5.4404 2.1634,-3.03822 2.66286,-6.09354 0.99611,-6.09354 -0.56185,0 -1.02155,-0.89706 -1.02155,-1.99346 0,-4.41918 8.84239,-28.6408 14.70219,-40.27315 5.49195,-10.90212 6.71171,-12.61669 10.18078,-14.31073 3.17863,-1.55219 4.10251,-1.66374 4.77448,-0.57645 0.68675,1.11116 1.11628,1.11324 2.44339,0.0118 2.51897,-2.09056 1.8986,-4.14419 -1.45446,-4.81481 -3.10465,-0.62092 -3.90463,-1.76091 -2.04309,-2.9114 2.09385,-1.29408 -0.11542,-14.81536 -2.41975,-14.80947 -0.63561,0.002 -2.3049,2.18519 -3.70953,4.85235 -2.08693,3.96275 -3.12072,4.90492 -5.65422,5.15311 -5.90635,0.57862 -7.95994,-0.99076 -9.12253,-6.9716 -1.11681,-5.74528 -2.99029,-7.62359 -4.104,-4.11459 -0.36647,1.15463 -1.52341,2.09933 -2.57099,2.09933 -1.04758,0 -2.90263,1.40146 -4.12233,3.11438 -2.04191,2.86761 -2.63022,3.0902 -7.42447,2.80925 l -5.20682,-0.30513 -1.89512,-6.4511 c -2.31531,-7.88144 -4.10016,-7.8138 -4.97215,0.18843 -0.76011,6.9755 -1.43424,7.93239 -3.06576,4.35159 -1.66092,-3.64532 -3.76091,-3.38623 -4.15112,0.51215 -0.29575,2.95467 -0.83278,3.37019 -7.05708,5.46028 -3.70533,1.24423 -7.28642,2.60183 -7.95798,3.01688 -0.72835,0.45013 -2.05878,-0.3104 -3.29726,-1.88487 -2.95769,-3.7601 -3.81642,-3.30446 -4.17044,2.21285 l -0.31136,4.85234 -2.55387,-4.56082 c -1.40462,-2.50846 -3.01356,-4.46996 -3.57541,-4.35889 -0.56185,0.11107 -1.25139,2.93666 -1.53232,6.27908 l -0.51077,6.07712 -8.42776,7.81957 -8.42775,7.81956 v -5.23931 c 0,-7.14221 2.64926,-19.46442 6.1013,-28.37825 10.97581,-28.3417 39.34005,-52.37651 71.44753,-60.54203 23.78955,-6.05012 45.31022,-4.86044 68.53222,3.78852 12.246,4.56097 19.1837,7.99974 22.602,11.20305 1.475,1.38221 4.0634,2.73086 5.7521,2.99699 2.9908,0.47136 3.1957,0.22498 7.9165,-9.51833 2.7532,-5.68221 6.2252,-11.19761 8.0388,-12.76995 1.7559,-1.52225 2.5908,-2.78642 1.8553,-2.80925 -0.7355,-0.0228 -1.0485,-0.50871 -0.6956,-1.07973 0.3529,-0.57101 1.1477,-0.72545 1.7662,-0.34319 0.7193,0.4445 0.894,0.0941 0.4848,-0.97217 -0.7193,-1.87454 0.8201,-3.3585 1.8146,-1.74927 0.3529,0.57101 1.0781,1.03821 1.6116,1.03821 0.5334,0 0.4338,-0.8585 -0.2215,-1.90778 -0.6553,-1.04927 -0.8844,-2.70801 -0.509,-3.68608 0.6329,-1.64941 0.8641,-1.65921 3.1899,-0.13532 3.6392,2.3845 4.0204,2.03665 1.5578,-1.42165 -2.4453,-3.43416 -1.3262,-4.18022 1.5323,-1.02154 1.017,1.1237 2.3176,2.04309 2.8903,2.04309 0.5727,0 0.042,-1.06394 -1.1799,-2.36432 -2.707,-2.8815 -2.7699,-3.97324 -0.3547,-6.15897 1.7492,-1.58296 2.0172,-1.5287 4.2643,0.86322 3.4565,3.67935 4.7674,3.1478 1.5797,-0.64057 -3.174,-3.77212 -2.6068,-5.27757 0.7872,-2.08911 3.4969,3.2852 4.5964,2.69047 1.3297,-0.71925 l -2.8135,-2.93662 2.8778,-2.20197 c 1.5827,-1.21108 4.1418,-3.22239 5.6868,-4.46958 9.9946,-8.06817 24.6026,-14.02164 39.3297,-16.02881 17.7104,-2.41378 37.3662,3.18694 46.7357,13.31688 2.3777,2.57067 2.6067,3.13411 1.0215,2.51363 -1.1237,-0.43985 -3.1486,-1.03766 -4.4997,-1.32847 -2.1119,-0.45453 -2.3757,-0.21916 -1.8799,1.67706 0.7725,2.95379 -2.4166,4.61994 -7.1449,3.7329 -2.9491,-0.55325 -3.498,-0.39803 -3.0178,0.85335 1.0699,2.78817 -1.7263,3.87973 -5.3315,2.08123 -1.8048,-0.90033 -3.4394,-1.47407 -3.6325,-1.27499 -0.1931,0.19909 -0.6004,1.9597 -0.9051,3.91249 -0.3046,1.95278 -1.3448,4.12883 -2.3115,4.83568 -1.5189,1.11065 -2.086,0.80191 -4.1758,-2.27358 -1.33,-1.95732 -2.8614,-3.55875 -3.403,-3.55875 -0.5416,0 -0.9847,2.8383 -0.9847,6.30734 v 6.30735 l -2.5498,-2.39545 c -3.4252,-3.21778 -4.2177,-2.00858 -2.662,4.06158 0.712,2.77779 0.9577,5.59532 0.5462,6.26119 -0.9438,1.52714 4.4743,0.87013 17.9457,-2.17614 12.2019,-2.7592 39.3244,-3.84694 52.4312,-2.10275 49.2268,6.55085 92.3594,35.66263 119.5986,80.72142 2.7504,4.54969 4.7795,8.49342 4.5091,8.76384 -0.2705,0.27043 -4.8595,-2.42862 -10.1978,-5.99788 -5.3383,-3.56928 -12.5404,-8.00027 -16.0046,-9.84667 -3.4642,-1.84639 -6.2985,-3.66486 -6.2985,-4.04105 0,-0.37618 -0.6084,-1.51596 -1.3519,-2.53284 -1.1677,-1.59694 -1.6463,-1.66503 -3.5124,-0.49966 -1.797,1.12224 -2.6007,1.11361 -4.7773,-0.0513 -1.4393,-0.7703 -2.6169,-2.24224 -2.6169,-3.271 0,-2.17559 -2.8728,-2.53763 -3.6691,-0.46241 -0.4275,1.11391 -1.3811,1.19465 -4.5649,0.38651 -2.2135,-0.56185 -4.0246,-1.44522 -4.0246,-1.96305 0,-0.51782 -1.7239,-0.80668 -3.8308,-0.6419 -3.4416,0.26916 -3.9865,-0.0354 -5.3631,-2.99831 -1.9206,-4.13364 -3.578,-4.22647 -4.9547,-0.2775 -1.0119,2.90279 -1.3642,3.06464 -6.6711,3.06464 -4.7056,0 -5.7067,-0.32716 -6.2513,-2.04309 -0.8614,-2.71402 -6.6155,-2.93371 -6.6892,-0.25539 -0.027,0.98324 -1.4134,-0.85554 -3.081,-4.08618 -1.6675,-3.23064 -3.4267,-5.87389 -3.9093,-5.87389 -1.0096,0 -2.1544,4.98921 -2.1544,9.38876 0,3.94028 -1.681,6.95897 -3.8668,6.94389 -0.9634,-0.007 -4.2254,-2.99466 -7.2488,-6.64005 -3.0234,-3.64538 -5.8965,-6.62796 -6.3847,-6.62796 -1.3629,0 -1.0562,4.37282 0.6448,9.19391 2.1642,6.1341 1.9597,8.02618 -0.9464,8.75555 -1.3633,0.34217 -3.3109,1.54169 -4.328,2.6656 -2.0922,2.31179 -2.3589,1.99505 5.8661,6.96668 3.8657,2.33658 14.4721,14.00845 18.7132,20.59279 l 1.7492,2.71574 -3.3763,0.68056 c -1.8569,0.37429 -4.2049,0.91473 -5.2177,1.20096 -3.116,0.8806 -0.2403,2.99117 6.7113,4.92567 7.5716,2.10705 8.2519,2.60047 11.7017,8.48703 2.4089,4.1105 2.5007,4.63458 0.9627,5.49532 -2.3917,1.33842 -2.1148,2.74795 0.8006,4.07628 5.0457,2.29899 14.7306,26.08522 13.1634,32.32947 -0.4006,1.59636 -0.2543,2.30838 0.3923,1.90877 1.0138,-0.62659 2.3073,6.68056 2.3192,13.10197 0,2.68724 -0.3543,2.30986 -2.9183,-3.06464 -1.8226,-3.82038 -2.5829,-6.56329 -2.0184,-7.28144 0.5868,-0.74653 0.2687,-1.31976 -0.9036,-1.6282 -0.995,-0.26183 -4.2333,-4.57016 -7.196,-9.57407 -15.9169,-26.88262 -40.2801,-53.64579 -64.7736,-71.15428 -16.5773,-11.84982 -40.8085,-23.913 -46.1394,-22.96989 -2.5096,0.44397 -3.2089,0.0659 7.5051,4.05713 3.0902,1.15116 7.917,3.58167 10.7263,5.40113 2.8092,1.81946 9.1935,5.92167 14.1873,9.11602 13.4093,8.57752 22.1232,15.76816 36.4815,30.10444 14.4882,14.46587 25.0061,27.33932 37.6257,46.0521 4.7364,7.02313 8.9287,12.99917 9.3163,13.2801 0.3877,0.28093 2.2025,3.4988 4.033,7.15082 1.8305,3.65203 3.7846,6.93166 4.3425,7.28807 0.5578,0.35641 0.8324,1.19374 0.61,1.86074 -0.2307,0.69224 -3.9013,-1.70741 -8.5522,-5.59106 -4.4815,-3.74209 -9.8414,-8.02714 -11.911,-9.52234 -3.3658,-2.43164 -3.9888,-3.63495 -5.9037,-11.40169 -4.3688,-17.72019 -7.139,-19.15113 -7.1749,-3.7062 -0.014,5.98484 -0.019,5.99507 -2.3125,4.49229 -1.2641,-0.82841 -3.3482,-3.06804 -4.6313,-4.97694 -3.7387,-5.56219 -5.3161,-7.17452 -6.3775,-6.51856 -0.5469,0.33799 -0.9943,1.50302 -0.9943,2.58897 0,1.79564 -0.6725,1.64168 -7.4262,-1.70014 l -7.4262,-3.67457 -5.0878,-14.88448 c -5.2919,-15.48182 -8.5081,-20.25143 -7.3024,-10.82947 0.351,2.74302 0.9522,8.89472 1.336,13.67045 0.656,8.16331 0.5917,8.5955 -1.0741,7.21916 -0.9746,-0.80519 -2.6671,-3.21859 -3.7611,-5.36311 -1.0941,-2.14454 -2.2336,-3.89914 -2.5324,-3.89914 -0.2987,0 -1.0063,1.32855 -1.5723,2.95234 l -1.0292,2.95234 -6.563,-2.13378 -6.5629,-2.13378 -2.7097,-8.22477 c -5.469,-16.60057 -7.78,-17.57899 -7.3625,-3.11704 0.2757,9.54754 1.9453,8.93227 -15.905,5.86084 l -11.1321,-1.91546 -2.9747,-8.10197 c -4.4224,-12.04518 -5.7217,-12.58045 -7.0356,-2.89835 -0.8718,6.42392 -1.4468,7.4532 -3.1901,5.7099 -2.0116,-2.01162 -3.8649,-1.36667 -3.8649,1.34504 0,2.47802 -0.2099,2.55386 -7.0672,2.55386 -8.129,0 -10.2991,0.59802 -10.2991,2.83811 0,0.87889 -0.7861,2.4667 -1.747,3.52849 -1.1522,1.27316 -1.3768,2.17015 -0.6596,2.6343 1.1724,0.75875 2.6608,49.50246 1.6694,54.67415 -0.4229,2.20664 -1.0072,2.77469 -2.4625,2.39412 -1.5803,-0.41325 -1.908,0.0841 -1.908,2.8957 0,1.86705 -0.5746,3.61005 -1.2769,3.87332 -0.9484,0.35553 -0.86,0.83736 0.3438,1.87284 1.6782,1.44355 12.2571,43.03904 12.2005,47.97156 -0.017,1.45801 -0.9498,3.48296 -2.0735,4.4999 -1.1237,1.01694 -2.0431,2.66998 -2.0431,3.67345 0,1.00346 -0.4597,2.10858 -1.0215,2.45582 -1.6478,1.01837 -1.2218,3.87084 0.4805,3.21761 1.1328,-0.43469 2.0407,1.23368 3.693,6.78614 1.2051,4.0494 4.9238,14.94752 8.264,24.21805 3.3401,9.27053 6.0795,17.54505 6.0875,18.38783 0.037,3.90043 -1.8977,11.72651 -2.8537,11.54287 -0.5867,-0.11269 -2.6042,1.38132 -4.4832,3.32003 -4.1769,4.30948 -2.3685,4.58346 3.5185,0.53307 l 4.3485,-2.99186 2.8222,5.80111 c 1.5522,3.19061 5.5296,10.7391 8.8387,16.77441 6.6186,12.07144 7.6162,14.84582 6.548,18.21135 -0.6052,1.90693 -1.3188,0.98207 -4.5556,-5.90397 -3.1441,-6.6889 -11.5127,-22.0219 -12.9387,-23.70633 -0.1982,-0.2341 -0.646,-0.13993 -0.9952,0.20926 -0.3492,0.3492 1.4616,4.2183 4.0239,8.59801 2.5624,4.37971 6.3488,11.52978 8.4142,15.88903 3.0598,6.45802 3.522,8.20697 2.4959,9.44344 -0.6927,0.83463 -1.014,2.78431 -0.714,4.33262 0.3516,1.81481 -0.059,3.50735 -1.1568,4.76321 -1.6159,1.84946 -1.5873,1.91934 0.5665,1.38038 2.0629,-0.51623 3.2901,1.40777 13.5355,21.22169 10.2517,19.82621 12.4609,25.50333 10.635,27.32931 -0.3476,0.34755 -2.4456,-3.13847 -4.6622,-7.74672 -5.8563,-12.17464 -16.4924,-31.36342 -17.3844,-31.36342 -1.2703,0 0.8687,4.59631 7.4246,15.95401 11.6087,20.1115 14.9098,29.50962 11.6358,33.12732 -2.256,2.49288 -1.1433,3.94524 1.3168,1.71883 1.6891,-1.5286 2.4058,-0.4281 11.885,18.25023 9.1899,18.10806 10.0368,20.25553 9.5169,24.13145 -0.4378,3.26422 -0.1711,4.5514 1.146,5.52989 1.4314,1.06343 1.5059,1.62048 0.4487,3.35237 -0.9731,1.59408 -0.9944,2.67741 -0.091,4.65918 1.5468,3.3949 3.1162,3.32194 2.2561,-0.1049 -1.0987,-4.3777 0.8123,-2.65145 10.8908,9.83787 5.2141,6.46128 11.4881,13.99522 13.9424,16.74208 2.4542,2.74688 36.9599,5.18612 36.7255,5.42054 -0.2344,0.23442 -39.7172,1.08097 -47.7856,1.8812 -8.0684,0.80024 -16.6168,1.68407 -18.9964,1.96407 -3.9752,0.46776 -4.4521,0.26628 -5.8728,-2.48113 z m -1.7527,-24.62735 c 0.3124,-3.72414 -2.9027,-9.40441 -4.4504,-7.86262 -0.4093,0.40781 -0.223,1.3695 0.414,2.13708 1.2682,1.52809 0.5835,2.73995 -1.5481,2.73995 -0.7492,0 -1.3621,-0.68954 -1.3621,-1.53232 0,-0.84277 -0.4597,-1.53232 -1.0215,-1.53232 -1.8039,0 -1.0907,4.7443 1.1394,7.57943 3.1396,3.99137 6.4274,3.25511 6.8287,-1.5292 z m -77.6376,-229.97312 c 2.8911,-2.89109 0.7244,-14.09734 -2.7257,-14.09734 -3.4318,0 -4.2625,5.69319 -1.7191,11.78059 1.5823,3.78675 2.4977,4.2639 4.4448,2.31675 z m -124.40864,-43.2114 c 1.86252,-23.21247 9.43574,-63.67119 11.34113,-60.5882 0.43487,0.70365 0.95445,1.06282 1.15463,0.79817 0.20016,-0.26465 2.75962,-7.71345 5.68769,-16.55287 2.92807,-8.83944 8.4791,-23.54971 12.33561,-32.68948 3.85648,-9.13978 7.36438,-17.76342 7.79528,-19.16364 0.7171,-2.33003 0.6331,-2.42107 -0.9901,-1.07395 -5.68374,4.71711 -18.27216,32.1516 -25.52368,55.62492 -9.4067,30.44972 -13.75985,56.80337 -14.35847,86.92515 -0.42949,21.61155 -0.10765,19.94067 2.55791,-13.2801 z m 117.86364,-21.53602 c 1.1246,-2.93074 0.6457,-10.21716 -0.8017,-12.19657 -1.208,-1.65204 -1.6688,-1.73939 -3.0647,-0.58095 -1.8905,1.56903 -2.2549,9.29791 -0.5853,12.41746 1.2788,2.38961 3.6008,2.57742 4.4517,0.36006 z m 3.71,-65.3619 c 1.5892,-4.18004 1.2453,-10.62827 -0.6048,-11.33821 -2.597,-0.99658 -3.8565,1.27662 -4.3293,7.81409 -0.4152,5.74 -0.3003,6.14449 1.7467,6.14449 1.4121,0 2.5453,-0.93165 3.1874,-2.62037 z m -29.8173,-6.31816 c 0.5609,-2.50642 0.5856,-4.34157 0.059,-4.34157 -0.5022,0 -0.913,-1.05168 -0.913,-2.33706 0,-2.7387 -5.5452,-9.78873 -6.7603,-8.59488 -0.4567,0.44871 -0.01,4.80901 0.9962,9.68956 2.6102,12.68086 4.646,14.39843 6.6185,5.58395 z m 18.6429,-8.93852 c 3.8247,-3.09018 7.4821,-5.61851 8.1276,-5.61851 0.6456,0 2.5156,0.95546 4.1556,2.12325 1.64,1.16781 3.532,1.9399 4.2043,1.71578 1.6263,-0.54208 -6.3036,-5.88212 -8.7349,-5.88212 -1.0453,0 -5.1316,2.51046 -9.0805,5.57881 l -7.18,5.5788 -1.8853,-2.25878 c -2.0591,-2.46698 -2.6517,-0.87567 -0.8958,2.40533 1.6559,3.09412 3.8123,2.39835 11.289,-3.64256 z m -60.7109,-38.36006 c 6.3419,-5.54968 15.5079,-10.42063 22.8542,-12.14502 2.5127,-0.58982 9.6252,-1.39004 15.8055,-1.77826 9.8314,-0.61758 10.7259,-0.8186 7.1509,-1.60704 -8.9083,-1.96461 -30.4352,2.56693 -39.4915,8.31318 -7.6331,4.84317 -15.3433,12.37695 -12.6668,12.37695 0.2482,0 3.1047,-2.32191 6.3477,-5.15981 z"
                       id="path19"
                       transform="scale(0.26458333)"
                       sodipodi:nodetypes="sssssssssssscscssscsssssssssssssssssscccsscssscssssscsscssssssssssssssssssssscssssssscsssssssscssscccsssssssssssssssssssscssssscsssssssssssssssscsssssssssssssssssssssssssscssssssscsssssssscssscsssssssssssssssssssscssssssscccssscssssssssssssscsssssssssscsssssssssscsssssssssssscsssssssssssssssssssssssssssssssssssssssscssscccsssssscssssssssss" /><path
                       style="fill:#00becf;stroke-width:35.1347;stroke-linecap:round;stroke-linejoin:round;stroke-miterlimit:8;paint-order:stroke fill markers"
                       d="m 1176.3103,747.48285 c -15.4843,-0.87292 -37.0088,-5.32665 -49.4339,-10.22855 -5.7387,-2.26403 -12.2438,-5.59166 -16.5018,-8.4414 -4.2582,-2.84993 -12.1414,-10.121 -11.5871,-10.68744 0.4453,-0.45517 27.5558,-5.29061 29.8307,-5.32062 0.8786,-0.0116 1.8764,0.31501 2.2173,0.72579 1.4189,1.70976 9.977,3.85008 15.3944,3.85008 3.2978,0 2.0573,-0.5348 -3.5958,-1.55016 -5.9807,-1.0742 -10.2975,-2.88593 -11.5951,-4.86642 -0.5304,-0.80942 -1.0715,-2.94082 -1.2767,-5.02811 -0.1958,-1.99271 -1.2746,-6.5007 -2.3974,-10.01776 -2.4608,-7.70807 -2.99,-10.20547 -2.1627,-10.20547 0.8285,0 1.8125,2.56349 3.3703,8.78033 1.3895,5.54518 2.1441,7.32223 2.6158,6.15978 0.1425,-0.35116 0.5055,-0.63847 0.8068,-0.63847 0.3012,0 1.3176,-0.5873 2.2587,-1.30511 5.1676,-3.9415 13.4273,-5.99475 20.014,-4.97522 6.7407,1.04337 12.6008,4.65621 15.4432,9.52103 3.6345,6.22041 -6e-4,10.29241 -11.0238,12.34872 -5.2243,0.97457 -7.1474,1.74711 -4.3402,1.74351 3.2785,-0.004 9.5677,-1.3802 12.6683,-2.77166 3.6343,-1.63097 5.7025,-3.6279 6.1776,-5.96461 0.3264,-1.6054 0.5174,-1.73498 3.3916,-2.30052 1.6752,-0.32961 10.8606,-1.42148 20.4121,-2.42638 9.5514,-1.0049 18.4006,-2.07476 19.6647,-2.37747 2.5449,-0.60937 21.9317,-0.78321 24.4975,-0.21967 1.248,0.2741 1.5442,0.55245 1.2794,1.20205 -1.8829,4.61879 -1.1074,8.41885 2.5005,12.25364 1.8911,2.00997 3.9055,3.15234 5.536,3.13949 0.88,-0.007 0.4861,-0.38879 -1.5702,-1.5223 -3.7237,-2.0526 -4.1667,-2.4718 -5.2902,-5.006 -2.3071,-5.20368 2.4786,-12.12613 11.0463,-15.97829 3.875,-1.74227 5.1393,-2.91362 2.4795,-2.29729 -1.2849,0.29775 -4.7048,1.93841 -10.929,5.24311 -1.3054,0.69312 -2.96,1.1852 -3.6769,1.09351 -1.1532,-0.14748 -0.6734,-0.66943 4.1612,-4.52716 4.9679,-3.96405 5.8693,-4.9624 9.9159,-10.98162 3.1413,-4.67266 4.4221,-7.02004 4.3522,-7.9766 -0.1706,-2.3349 5.7713,-10.71215 14.4358,-20.35241 5.9074,-6.57273 7.3794,-9.47365 5.1087,-10.06747 -1.2513,-0.3272 -1.2558,-0.17788 0.084,-2.74835 0.8911,-1.70958 0.9901,-2.30581 0.5108,-3.07344 -0.3272,-0.52381 -0.5948,-1.31385 -0.5948,-1.75563 0,-0.45927 -0.2432,-0.65294 -0.5679,-0.45226 -0.7588,0.46894 -1.4578,-0.72169 -1.4674,-2.49945 -0.01,-1.19668 11.2303,-24.09446 12.8703,-26.22642 0.3444,-0.44779 0.8294,-0.38603 1.9303,0.24579 1.9992,1.14738 2.636,0.29702 0.8979,-1.199 -1.4376,-1.23733 -1.8034,-2.48361 -0.8939,-3.04569 0.7891,-0.48771 0.6034,-1.7877 -0.2554,-1.7877 -1.4918,0 -0.8837,-4.67102 1.7425,-13.38445 1.3798,-4.57787 3.0175,-10.23318 3.6395,-12.56735 0.8438,-3.16663 1.3139,-4.17366 1.8522,-3.9671 0.3968,0.15227 0.869,-0.10773 1.0494,-0.57777 0.1804,-0.47004 0.061,-0.94366 -0.2657,-1.05249 -0.3265,-0.10883 -0.8256,-1.05963 -1.1093,-2.11288 -0.3154,-1.17141 -1.0025,-2.17561 -1.7696,-2.58613 -0.6897,-0.36911 -1.3962,-1.04103 -1.57,-1.49315 -0.1738,-0.45213 0.6553,-5.8787 1.8424,-12.05905 1.6564,-8.62423 2.3768,-11.39995 3.0981,-11.93778 1.1373,-0.84805 1.2165,-1.89302 0.1737,-2.29319 -0.4214,-0.1617 -0.7662,-0.90296 -0.7662,-1.64723 0,-0.77525 -0.6545,-2.09863 -1.5323,-3.09844 -1.7953,-2.04472 -1.7612,-1.33149 -0.7662,-16.01132 0.4094,-6.03989 0.7574,-11.55624 0.7734,-12.25855 l 0.029,-1.27693 0.7299,1.27693 0.73,1.27693 0.018,-1.85286 c 0.01,-1.04347 -0.3166,-2.13061 -0.7481,-2.48871 -0.4214,-0.34972 -0.7661,-0.83034 -0.7661,-1.06805 0,-0.23771 0.3447,-0.2999 0.7661,-0.1382 0.496,0.19031 0.7662,-0.0124 0.7662,-0.57462 0,-0.47775 -0.4452,-0.98506 -0.9894,-1.12737 -1.4927,-0.39033 -1.994,-2.4934 -3.3857,-14.20207 -0.7012,-5.89975 -1.3983,-11.12905 -1.549,-11.62067 -0.1785,-0.58222 -0.7893,-0.89385 -1.752,-0.89385 -0.8417,0 -1.9064,-0.4598 -2.473,-1.06795 -1.3471,-1.44602 -2.8028,-1.08083 -3.1271,0.78448 l -0.2593,1.49177 -3.1233,-3.49452 c -2.3203,-2.59598 -3.3496,-3.40771 -4.0032,-3.15689 -1.0186,0.39084 -0.869,1.96612 0.8317,8.76313 l 1.0225,4.08619 -5.7916,5.45814 c -3.1854,3.00198 -6.3167,5.7458 -6.9586,6.09738 -1.4942,0.81853 -2.2826,0.0591 -5.331,-5.13531 -1.2249,-2.08738 -2.505,-3.88786 -2.8446,-4.00105 -1.0652,-0.35506 -0.6922,3.84021 0.8945,10.06151 l 1.4897,5.84062 -1.9603,2.33175 c -1.0782,1.28246 -2.5192,2.85247 -3.2022,3.48891 l -1.2419,1.15717 -0.9317,-1.02948 c -1.7631,-1.94822 -2.4089,-1.33921 -2.2934,2.16286 0.058,1.75578 0.071,3.65203 0.029,4.21388 -0.073,0.98126 -0.1137,0.97597 -1.0396,-0.13411 -0.5302,-0.63562 -2.1611,-3.39379 -3.6243,-6.12928 -5.6572,-10.57641 -6.4748,-8.98643 -2.8101,5.46447 0.9976,3.93378 1.8137,7.56159 1.8137,8.0618 -10e-5,0.92308 -4.8166,8.82647 -5.3791,8.82647 -0.1686,0 -0.7757,-0.25114 -1.3493,-0.55809 -1.6396,-0.87749 -2.0174,0.0257 -2.1177,5.06337 -0.055,2.74661 -0.3367,4.88303 -0.6914,5.23726 -0.6701,0.66938 -1.2501,0.15747 -5.4387,-4.80044 -4.1534,-4.91622 -4.443,-3.146 -1.0821,6.61336 l 2.3295,6.76424 -3.1813,9.7776 c -1.8828,5.78664 -3.3339,9.50114 -3.5553,9.10029 -1.6087,-2.91318 -2.3611,-34.06276 -1.0898,-45.11457 1.4263,-12.39913 4.1059,-24.58528 7.8618,-35.75411 2.2375,-6.65365 5.359,-13.53549 6.1394,-13.53549 0.2686,0 0.3933,-0.28526 0.2771,-0.6339 -0.1162,-0.34865 0.037,-0.91529 0.3405,-1.25921 1.5797,-1.79009 1.7931,-2.20243 1.5149,-2.92748 -0.1756,-0.4575 0.027,-0.91574 0.4809,-1.09009 0.4517,-0.17333 0.7673,-0.88245 0.7448,-1.67357 -0.153,-5.3825 12.8693,-18.40124 21.5852,-21.57921 3.038,-1.10772 3.9403,-1.99369 2.0304,-1.99369 -1.4227,0 -4.8443,1.42356 -8.4381,3.51074 -17.9841,10.44461 -32.6947,47.22507 -34.959,87.40685 -0.4642,8.23733 -0.273,15.29216 0.7266,26.81559 l 0.3102,3.57541 -1.5342,-2.80925 c -5.9098,-10.82096 -9.7499,-26.62061 -7.4485,-30.64638 1.0728,-1.87669 0.9304,-2.46711 -0.6385,-2.64764 -1.2816,-0.14746 -1.4445,-0.41298 -1.8601,-3.03064 -0.2506,-1.57797 -0.3169,-3.41675 -0.1474,-4.08619 0.1695,-0.66944 1.811,-3.09317 3.6479,-5.38609 4.6521,-5.80727 4.3483,-6.97912 -1.2384,-4.77704 l -2.5728,1.01409 v -1.24332 c 0,-1.70133 1.428,-12.63364 2.1193,-16.22521 0.3237,-1.68135 1.2981,-4.06695 2.2904,-5.60715 0.95,-1.47442 1.6495,-2.91571 1.5547,-3.20288 -0.095,-0.28716 -1.9097,-0.58879 -4.033,-0.67027 l -3.8606,-0.14815 -0.8466,-3.37036 c -2.0566,-8.18761 -3.7193,-8.33119 -4.858,-0.41952 -0.6767,4.70202 -1.4139,6.89543 -2.3175,6.89543 -0.3484,0 -2.2073,-1.60893 -4.131,-3.57541 -4.6272,-4.73007 -5.0385,-4.6882 -4.6845,0.47676 l 0.2777,4.05216 -1.2112,-0.55185 c -1.5406,-0.70196 -2.5305,0.0423 -2.9684,2.23187 -0.3654,1.82688 -3.3426,4.86696 -5.0392,5.14563 -0.6329,0.10395 -2.0035,-0.22474 -3.0458,-0.73044 -2.9022,-1.40808 -3.0535,-1.28817 -2.8681,2.27289 0.1635,3.14047 0.1401,3.20478 -1.4417,3.95849 -0.8843,0.42139 -2.0152,1.5186 -2.5131,2.43824 -1.01,1.86554 -3.6056,3.69104 -5.2481,3.69104 -0.9225,0 -1.0326,0.21809 -0.771,1.52635 0.3968,1.984 -0.8258,3.85843 -3.1501,4.82958 -1.4463,0.60435 -1.7776,1.01695 -1.7776,2.21406 0,0.8092 -1.732,5.01401 -3.8489,9.34399 -2.1169,4.32999 -4.5874,9.81699 -5.49,12.19333 -1.4987,3.9454 -1.6693,4.1897 -1.9646,2.81293 -0.629,-2.93206 -0.4287,-20.37434 0.2959,-25.76942 1.7169,-12.78427 5.0144,-23.80313 10.4703,-34.98795 6.0289,-12.35939 12.8043,-21.71138 22.5863,-31.17561 11.957,-11.56853 24.2117,-19.17471 40.335,-25.03478 7.0317,-2.55567 7.605,-2.91621 6.6828,-4.20258 -0.9846,-1.37355 -1.5641,-2.74154 -2.1578,-5.09367 -0.6979,-2.76514 -2.2816,-3.05133 -2.8265,-0.51078 -0.5791,2.7001 -0.7856,2.662 -2.516,-0.46417 -1.8838,-3.40341 -3.1374,-4.05034 -3.6202,-1.86824 -0.6553,2.96166 -1.0803,3.93432 -1.9514,4.46671 -0.9317,0.56943 -1.1411,0.39152 -3.5396,-3.00791 -1.1679,-1.65523 -2.5579,-1.06748 -3.4753,1.46953 -0.7333,2.02802 -2.7657,2.82152 -3.1789,1.24118 -0.3404,-1.30148 -1.47,-1.18002 -3.1033,0.33369 -1.7844,1.65367 -4.9006,1.81607 -4.9006,0.25539 0,-1.52717 -1.292,-1.23401 -2.7453,0.62288 -0.7078,0.90444 -1.4255,1.50592 -1.5948,1.33661 -0.5722,-0.57226 1.7309,-6.12647 4.17,-10.05645 3.1008,-4.996 11.2547,-13.28461 14.8378,-15.08287 3.0883,-1.54991 4.5462,-1.6725 5.8507,-0.49196 1.1181,1.01192 1.2398,0.26492 0.1841,-1.13078 -1.001,-1.32343 -0.9666,-1.75763 0.1392,-1.75763 1.0638,0 5.1197,2.47222 6.1872,3.77145 0.7948,0.96716 2.5959,2.0628 2.5959,1.57906 0,-0.16716 -1.1622,-1.53277 -2.5826,-3.03469 -1.7127,-1.81091 -2.3815,-2.85506 -1.9855,-3.09981 0.3284,-0.20298 2.2376,-0.81669 4.2426,-1.3638 5.4193,-1.47873 15.6659,-1.79135 22.3655,-0.68235 10.3777,1.71786 22.7081,6.56099 32.668,12.83136 5.8205,3.66432 6.6416,3.63817 8.6167,-0.27437 15.1958,-30.10268 42.1605,-48.01975 72.2855,-48.03112 10.6997,-0.004 19.5803,2.09875 29.2742,6.93167 7.3612,3.66989 11.9364,6.9335 17.4751,12.46527 4.6862,4.68043 9.3241,10.58483 7.8778,10.02915 -1.579,-0.6067 -7.3421,-1.74129 -10.8367,-2.13348 -3.0778,-0.3454 -3.2827,-0.45975 -5.329,-2.97384 -4.1459,-5.09374 -4.9035,-5.15954 -5.1101,-0.44384 l -0.151,3.44772 -1.411,-2.17079 c -1.7707,-2.72411 -2.7314,-2.76413 -3.4372,-0.1432 -0.4864,1.80631 -0.7811,2.0882 -2.7012,2.58303 -1.1854,0.3055 -3.6806,0.96246 -5.5448,1.45992 l -3.3895,0.90447 -0.8533,-1.44441 c -0.4709,-0.7972 -1.298,-1.44441 -1.8459,-1.44441 -0.8209,0 -0.9926,0.36074 -0.9926,2.08566 0,1.14711 -0.1957,2.00904 -0.4349,1.9154 -0.2392,-0.0936 -1.4593,-1.43385 -2.7113,-2.97824 -2.6911,-3.31958 -4.0047,-3.86151 -4.0047,-1.65222 0,0.81872 0.3423,2.6169 0.7607,3.99594 0.4183,1.37904 0.759,2.85212 0.757,3.27351 0,0.82662 -4.6234,4.08618 -5.7909,4.08618 -0.3904,0 -1.5349,-0.34477 -2.5434,-0.76615 -2.413,-1.00823 -2.888,-0.96746 -2.888,0.24787 0,1.01115 0,1.01115 -1.6601,0.002 -0.913,-0.55667 -1.8324,-1.01298 -2.0431,-1.01403 -0.75,-0.004 -0.3658,2.96807 0.7223,5.58628 l 1.1054,2.65978 -2.54,2.54003 -2.5401,2.54002 -3.5372,-2.06705 c -4.5512,-2.65954 -5.0562,-2.6623 -4.6345,-0.0254 0.5523,3.45427 2.5484,7.35314 4.1346,8.07582 l 1.4271,0.65023 -1.0911,1.16142 c -1.0516,1.11932 -1.5142,3.39406 -0.6903,3.39406 0.2204,0 1.7581,-0.47708 3.4171,-1.06017 3.6558,-1.28492 5.182,-1.07197 9.7731,1.36362 6.8574,3.63792 20.2319,13.25574 25.3299,18.21515 1.8296,1.77989 2.3763,2.66805 2.2985,3.73405 -0.089,1.22339 0.2667,1.58842 2.8418,2.91283 1.6193,0.83278 4.4924,3.0478 6.3847,4.92227 3.1636,3.13367 12.3792,13.9499 12.3792,14.52926 0,0.13734 -1.5123,0.41166 -3.3606,0.60959 -3.544,0.37953 -4.654,1.27573 -3.0409,2.45522 0.4826,0.35289 2.6375,1.30041 4.7887,2.10559 6.8948,2.58069 7.5046,3.01013 9.8278,6.92057 1.9922,3.35338 2.0783,3.65212 1.3008,4.51129 -1.1885,1.31324 -1.0382,1.98408 0.6388,2.85128 2.1455,1.1095 3.9061,3.42456 6.181,8.12756 3.4036,7.03629 6.7269,18.43398 7.9156,27.14724 l 0.3484,2.55387 -1.6451,-3.06464 c -4.6134,-8.5943 -15.3284,-24.6376 -22.1819,-33.2124 -22.2898,-27.88778 -68.0273,-62.6384 -77.6347,-58.98565 -1.8667,0.70969 -1.3032,1.17063 2.7959,2.28717 4.2798,1.16575 8.6562,3.10899 9.8234,4.36181 0.5061,0.54317 4.6522,3.50907 9.2136,6.59089 18.4218,12.44635 35.5884,27.52895 51.341,45.10847 2.9525,3.29482 5.8249,6.13559 6.3833,6.31281 0.7091,0.22506 0.8279,0.43802 0.3939,0.70622 -0.4426,0.27356 -0.2706,0.66145 0.5982,1.34878 0.6707,0.53064 1.3724,1.36703 1.5593,1.85865 0.1869,0.49162 0.54,0.89385 0.7846,0.89385 0.6865,0 5.7365,7.23336 11.6606,16.70197 2.9529,4.71971 5.7128,8.96203 6.1331,9.42737 0.4235,0.46891 0.6912,1.51911 0.6005,2.35584 -0.1629,1.50307 -0.193,1.48521 -6.8037,-4.04075 -3.652,-3.05277 -7.8051,-6.39524 -9.2291,-7.4277 -2.4792,-1.79754 -2.6397,-2.06298 -3.7817,-6.25464 -2.7768,-10.19191 -4.4267,-14.18116 -5.4442,-13.16362 -0.1908,0.1908 -0.5985,2.98777 -0.906,6.21547 l -0.5591,5.86855 -1.6151,-1.26768 c -0.8883,-0.69723 -2.6745,-2.87579 -3.9693,-4.84125 -2.5515,-3.87279 -4.0913,-4.629 -4.6767,-2.29663 -0.1763,0.70232 -0.468,1.27523 -0.6482,1.27313 -0.1803,-0.002 -2.8262,-1.43864 -5.8798,-3.19233 l -5.5522,-3.18853 -3.1765,-8.42775 c -4.5114,-11.96949 -5.0251,-13.03567 -6.3279,-13.13381 -0.8787,-0.0662 -1.0571,0.14407 -0.8782,1.03456 0.8703,4.33021 2.4725,16.2161 2.2199,16.46863 -0.6789,0.6789 -2.4517,-0.93491 -3.8136,-3.47148 -1.618,-3.01368 -3.2242,-3.85336 -3.2242,-1.68548 0,0.7323 -0.3571,1.46743 -0.7943,1.63519 -0.4368,0.16763 -2.9077,-0.47366 -5.4908,-1.42509 l -4.6966,-1.72986 -2.9292,-7.37588 c -4.4542,-11.2155 -5.6422,-11.5432 -5.133,-1.41583 l 0.3042,6.05067 -1.4841,-0.37191 c -0.8163,-0.20456 -5.6031,-1.42461 -10.6373,-2.71124 l -9.1533,-2.33932 -2.1491,-5.22995 c -2.4351,-5.92586 -3.5211,-7.79476 -4.5294,-7.79476 -0.911,0 -1.3129,1.11533 -1.3492,3.74488 -0.016,1.17095 -0.1886,3.01557 -0.3831,4.09916 l -0.3537,1.97014 -0.973,-1.07629 c -0.5351,-0.59196 -1.512,-1.07629 -2.1708,-1.07629 -0.9805,0 -1.1977,0.26804 -1.1977,1.47767 0,1.74685 -0.6905,2.09774 -4.128,2.09774 -2.1853,0 -2.5121,0.13511 -2.5121,1.03852 0,0.57119 0.5486,2.12267 1.2191,3.44772 2.8003,5.5344 6.158,16.73568 7.9948,26.67091 0.5453,2.94972 1.8869,8.00637 2.9812,11.23701 2.4608,7.26435 3.2335,11.77646 3.3179,19.3761 0.055,4.93735 -0.1021,6.26189 -0.956,8.06782 -0.5878,1.24341 -1.2925,2.06335 -1.66,1.93144 -0.9191,-0.33002 -0.8133,0.3634 0.8489,5.55976 3.0214,9.44588 3.422,12.9386 2.774,24.18473 -0.2728,4.73496 -0.4519,5.64373 -1.0192,5.17288 -1.0198,-0.8463 -0.8799,1.94916 0.3609,7.21549 1.5547,6.5984 1.8422,15.03171 0.7326,21.49212 -0.5029,2.9279 -0.9371,6.87487 -0.965,8.77102 -0.028,1.89617 -0.223,3.44764 -0.4337,3.44772 -0.2107,9e-5 -0.3831,-0.39058 -0.3831,-0.86815 0,-0.59652 -0.1649,-0.70341 -0.5268,-0.34149 -0.2898,0.28976 -0.8694,3.7872 -1.288,7.77209 -0.9391,8.93923 -2.8549,16.50664 -6.8345,26.99631 -1.6838,4.43817 -3.3397,9.10372 -3.6798,10.36788 -0.6104,2.26899 -0.6224,2.27882 -0.9335,0.76616 -0.2934,-1.42616 -0.3532,-1.46155 -0.8637,-0.51077 -0.3017,0.56185 -1.3043,3.32002 -2.228,6.12927 -3.387,10.30118 -8.3388,20.09443 -12.4756,24.67344 -2.1628,2.3939 -4.3686,7.01267 -4.7596,9.96591 -0.1555,1.17498 -1.3112,4.54971 -2.5682,7.49943 -1.2569,2.94971 -2.3124,6.05266 -2.3455,6.89543 -0.056,1.42299 0.1403,1.59645 2.7491,2.43104 21.5787,6.90331 33.0717,11.07333 45.195,16.39822 l 4.0778,1.79108 -2.4987,1.07106 c -17.0538,7.31011 -86.0542,18.07696 -124.4116,19.41321 -16.2864,0.56737 -30.5568,0.56009 -40.8618,-0.0208 z m 115.7419,-44.21665 c 1.9439,-4.39535 5.4883,-15.5037 5.0776,-15.91336 -0.3122,-0.31148 -1.0412,0.40855 -3.2906,3.25008 -0.2388,0.30171 -0.4363,1.10617 -0.4389,1.7877 -0.01,1.51605 -0.9056,4.90378 -2.2738,8.56065 l -1.0256,2.7412 -1.4983,-2.2221 c -1.074,-1.59283 -1.4488,-2.69219 -1.3236,-3.88211 0.1828,-1.73723 -0.071,-2.02628 -0.981,-1.11648 -0.3842,0.38419 -1.2678,0.0842 -3.0141,-1.02329 -3.4395,-2.18127 -7.505,-3.6095 -11.277,-3.96174 l -3.2055,-0.29933 1.2564,-2.14372 c 1.4382,-2.45412 1.6932,-5.74917 0.4809,-6.21436 -2.2403,-0.85968 -6.021,2.62427 -6.7675,6.23631 -0.3403,1.64684 -0.7073,2.10581 -2.03,2.53883 -3.0339,0.99321 -2.2964,1.21234 3.7649,1.11864 5.4094,-0.0836 6.5147,0.058 10.2477,1.31319 5.0411,1.69501 8.2967,4.12675 11.7235,8.75674 1.364,1.84285 2.665,3.35065 2.8912,3.35065 0.2261,0 0.9838,-1.29487 1.6837,-2.8775 z"
                       id="path21"
                       transform="scale(0.26458333)"
                       inkscape:label="path21" /><g
                       id="path1"><path
                         style="color:#000000;fill:#00becf;stroke-linecap:round;stroke-linejoin:round;stroke-miterlimit:8;stroke-dasharray:3.70224, 3.70224;-inkscape-stroke:none;paint-order:stroke fill markers"
                         d="m 518.32227,-75.011719 a 3.70224,3.70224 0 0 0 -0.85547,0.316407 3.70224,3.70224 0 0 0 -0.91016,0.05664 3.70224,3.70224 0 0 0 -0.36914,0.417969 3.70224,3.70224 0 0 0 -0.52148,0.193359 3.70224,3.70224 0 0 0 -0.37891,0.826172 3.70224,3.70224 0 0 0 -0.57227,1.244141 3.70224,3.70224 0 0 0 0.084,1.357422 3.70224,3.70224 0 0 0 0.0566,0.912109 c 0.531,1.087317 1.05047,2.178878 1.55664,3.273438 a 3.70224,3.70224 0 0 0 1.44922,1.335937 3.70224,3.70224 0 0 0 0.043,1.976563 c 0.4851,1.102838 0.95757,2.210763 1.41797,3.326171 a 3.70224,3.70224 0 0 0 1.39453,1.398438 3.70224,3.70224 0 0 0 -0.0391,1.976562 c 0.43941,1.121016 0.86621,2.246517 1.2793,3.378907 a 3.70224,3.70224 0 0 0 1.33399,1.455078 3.70224,3.70224 0 0 0 -0.11915,1.972656 c 0.39313,1.140193 0.77328,2.284677 1.13868,3.431641 a 3.70224,3.70224 0 0 0 1.27539,1.509765 3.70224,3.70224 0 0 0 -0.20117,1.962891 c 0.34551,1.156291 0.67712,2.31593 0.99609,3.478516 a 3.70224,3.70224 0 0 0 1.21289,1.558593 3.70224,3.70224 0 0 0 -0.2832,1.951172 c 0.29695,1.169612 0.58065,2.345174 0.85351,3.523438 a 3.70224,3.70224 0 0 0 1.14453,1.603515 3.70224,3.70224 0 0 0 -0.36328,1.9375 c 0.24868,1.181622 0.4846,2.367053 0.70703,3.552735 a 3.70224,3.70224 0 0 0 1.07813,1.652343 3.70224,3.70224 0 0 0 -0.44141,1.925782 c 0.20028,1.187126 0.38563,2.378026 0.5586,3.572265 a 3.70224,3.70224 0 0 0 1.00976,1.697266 3.70224,3.70224 0 0 0 -0.52148,1.90625 c 0.15137,1.19498 0.2892,2.391336 0.41211,3.589844 A 3.70224,3.70224 0 0 0 532.6875,-9 a 3.70224,3.70224 0 0 0 -0.59961,1.8808594 c 0.1017,1.2021892 0.18835,2.40385 0.26172,3.6054687 a 3.70224,3.70224 0 0 0 0.86719,1.7773438 3.70224,3.70224 0 0 0 -0.67578,1.85156247 c 0.0516,1.20484293 0.0881,2.41143443 0.11328,3.61914063 a 3.70224,3.70224 0 0 0 0.79297,1.8085937 3.70224,3.70224 0 0 0 -0.75196,1.8164063 c -2.4e-4,1.2127469 -0.0115,2.4199464 -0.0371,3.623047 a 3.70224,3.70224 0 0 0 0.7168,1.839844 3.70224,3.70224 0 0 0 -0.82617,1.794922 c -0.0473,1.205169 -0.10887,2.40974 -0.1836,3.613281 a 3.70224,3.70224 0 0 0 0.64063,1.867187 3.70224,3.70224 0 0 0 -0.89844,1.757813 c -0.0969,1.201584 -0.20692,2.404326 -0.33008,3.607422 a 3.70224,3.70224 0 0 0 0.56446,1.888671 3.70224,3.70224 0 0 0 -0.97266,1.71875 c -0.1459,1.19716 -0.30532,2.392777 -0.47852,3.585938 a 3.70224,3.70224 0 0 0 0.48633,1.916016 3.70224,3.70224 0 0 0 -1.03906,1.671875 c -0.19728,1.194575 -0.40495,2.383702 -0.62695,3.566406 a 3.70224,3.70224 0 0 0 0.40625,1.929687 3.70224,3.70224 0 0 0 -1.11133,1.636719 c -0.24289,1.177067 -0.50209,2.355447 -0.77344,3.535156 a 3.70224,3.70224 0 0 0 0.32813,1.94336 3.70224,3.70224 0 0 0 -1.17578,1.582031 c -0.29515,1.173664 -0.60242,2.341098 -0.92188,3.5 a 3.70224,3.70224 0 0 0 0.24609,1.960937 3.70224,3.70224 0 0 0 -1.24023,1.533204 c -0.34278,1.158334 -0.69882,2.310964 -1.06641,3.458984 a 3.70224,3.70224 0 0 0 0.16407,1.966797 3.70224,3.70224 0 0 0 -1.30469,1.484375 c -0.38692,1.136669 -0.79088,2.273211 -1.20703,3.412109 a 3.70224,3.70224 0 0 0 0.082,1.966797 3.70224,3.70224 0 0 0 -1.36524,1.427734 c -0.43656,1.124296 -0.8857,2.243369 -1.34765,3.357422 a 3.70224,3.70224 0 0 0 0,1.97461 3.70224,3.70224 0 0 0 -1.41992,1.363281 c -0.48656,1.110227 -0.98184,2.211582 -1.48829,3.300781 a 3.70224,3.70224 0 0 0 -0.084,1.976563 3.70224,3.70224 0 0 0 -1.47461,1.304687 c -0.53075,1.08729 -1.07127,2.166681 -1.62305,3.236328 a 3.70224,3.70224 0 0 0 -0.16406,1.966797 3.70224,3.70224 0 0 0 -1.53125,1.248047 c -0.57036,1.058367 -1.15777,2.112496 -1.75586,3.166016 a 3.70224,3.70224 0 0 0 -0.24219,1.955078 3.70224,3.70224 0 0 0 -1.58398,1.185547 c -0.61295,1.033264 -1.24144,2.062951 -1.88281,3.091796 a 3.70224,3.70224 0 0 0 -0.32227,1.94141 3.70224,3.70224 0 0 0 -1.63086,1.11718 c -0.65728,1.00962 -1.32808,2.01408 -2.00976,3.01172 a 3.70224,3.70224 0 0 0 -0.4043,1.92969 3.70224,3.70224 0 0 0 -1.67187,1.04688 c -0.70106,0.98433 -1.41227,1.96032 -2.13282,2.92578 a 3.70224,3.70224 0 0 0 -0.48437,1.91406 3.70224,3.70224 0 0 0 -1.71094,0.97461 c -0.74384,0.95709 -1.4938,1.90338 -2.25195,2.83594 a 3.70224,3.70224 0 0 0 -0.56641,1.89453 3.70224,3.70224 0 0 0 -1.74805,0.90429 c -0.78314,0.92624 -1.56973,1.83992 -2.36523,2.74024 a 3.70224,3.70224 0 0 0 -0.64258,1.87109 3.70224,3.70224 0 0 0 -1.78711,0.83203 c -0.81672,0.89071 -1.64262,1.77235 -2.47656,2.64258 a 3.70224,3.70224 0 0 0 -0.71484,1.83789 3.70224,3.70224 0 0 0 -1.82422,0.76172 c -0.84854,0.85374 -1.71026,1.69964 -2.58203,2.53906 a 3.70224,3.70224 0 0 0 -0.78711,1.80664 3.70224,3.70224 0 0 0 -1.85547,0.6875 c -0.88036,0.81664 -1.77596,1.62556 -2.6836,2.43164 a 3.70224,3.70224 0 0 0 -0.85937,1.76954 3.70224,3.70224 0 0 0 -1.88086,0.61132 c -0.91467,0.78087 -1.84305,1.5525 -2.78125,2.31836 a 3.70224,3.70224 0 0 0 -0.93164,1.73438 3.70224,3.70224 0 0 0 -1.9043,0.53125 c -0.94859,0.74409 -1.90462,1.4792 -2.87109,2.20312 a 3.70224,3.70224 0 0 0 -1.00586,1.69727 3.70224,3.70224 0 0 0 -1.92188,0.45117 c -0.98167,0.70598 -1.96803,1.39904 -2.96093,2.08008 a 3.70224,3.70224 0 0 0 -1.07813,1.6582 3.70224,3.70224 0 0 0 -1.93359,0.36914 c -1.01367,0.66635 -2.02712,1.32139 -3.04492,1.95899 a 3.70224,3.70224 0 0 0 -1.14454,1.60937 3.70224,3.70224 0 0 0 -1.94921,0.29102 c -1.03805,0.62327 -2.07837,1.23572 -3.12305,1.83203 a 3.70224,3.70224 0 0 0 -1.20899,1.56055 3.70224,3.70224 0 0 0 -1.96484,0.21289 c -1.05573,0.57758 -2.12107,1.14396 -3.19531,1.70117 a 3.70224,3.70224 0 0 0 -1.26953,1.50586 3.70224,3.70224 0 0 0 -1.97266,0.13281 c -1.07649,0.53282 -2.16549,1.05475 -3.26367,1.56836 a 3.70224,3.70224 0 0 0 -1.33008,1.45312 3.70224,3.70224 0 0 0 -1.97266,0.0488 c -1.10203,0.48891 -2.21047,0.96354 -3.32421,1.42774 a 3.70224,3.70224 0 0 0 -1.39258,1.40039 3.70224,3.70224 0 0 0 -1.96875,-0.0352 c -1.12757,0.44375 -2.25545,0.87618 -3.38281,1.29102 a 3.70224,3.70224 0 0 0 -1.45313,1.33984 3.70224,3.70224 0 0 0 -1.9668,-0.11523 c -1.14131,0.39593 -2.2844,0.77874 -3.43164,1.14843 a 3.70224,3.70224 0 0 0 -1.5039,1.27735 3.70224,3.70224 0 0 0 -1.9668,-0.19531 c -1.14956,0.34747 -2.30879,0.68116 -3.47656,1.00585 a 3.70224,3.70224 0 0 0 -1.55078,1.2129 3.70224,3.70224 0 0 0 -1.95508,-0.2793 c -1.17031,0.3 -2.34115,0.58713 -3.51367,0.85937 a 3.70224,3.70224 0 0 0 -1.60938,1.15039 3.70224,3.70224 0 0 0 -1.93555,-0.35937 c -1.18351,0.25092 -2.36572,0.4891 -3.54882,0.71289 a 3.70224,3.70224 0 0 0 -1.65039,1.08203 3.70224,3.70224 0 0 0 -1.92774,-0.43945 c -1.18544,0.20211 -2.37751,0.3902 -3.57422,0.5664 a 3.70224,3.70224 0 0 0 -1.69336,1.01172 3.70224,3.70224 0 0 0 -1.89843,-0.51953 c -1.20344,0.15212 -2.40331,0.29364 -3.59766,0.41797 a 3.70224,3.70224 0 0 0 -1.73633,0.94141 3.70224,3.70224 0 0 0 -1.88476,-0.59571 c -1.19744,0.10389 -2.40096,0.19192 -3.60938,0.26953 a 3.70224,3.70224 0 0 0 -1.77148,0.8711 3.70224,3.70224 0 0 0 -1.84961,-0.67383 c -1.21218,0.053 -2.41977,0.0965 -3.6211,0.12305 a 3.70224,3.70224 0 0 0 -1.80859,0.79492 3.70224,3.70224 0 0 0 -1.83008,-0.74609 c -1.19138,0.006 -2.3952,-0.009 -3.60937,-0.0332 a 3.70224,3.70224 0 0 0 -1.65039,0.64649 3.70224,3.70224 0 0 0 -1.98047,-0.75391 c -1.20107,-0.0466 -2.4065,-0.11038 -3.61719,-0.18359 a 3.70224,3.70224 0 0 0 -1.67188,0.57812 3.70224,3.70224 0 0 0 -1.94336,-0.83594 c -1.20711,-0.0983 -2.40852,-0.20761 -3.60351,-0.33203 a 3.70224,3.70224 0 0 0 -1.70313,0.50782 3.70224,3.70224 0 0 0 -1.91211,-0.91407 c -1.19378,-0.14524 -2.38939,-0.30701 -3.58593,-0.48047 a 3.70224,3.70224 0 0 0 -1.71875,0.4375 3.70224,3.70224 0 0 0 -1.86524,-0.99218 c -1.1947,-0.1978 -2.38505,-0.4067 -3.56836,-0.62891 a 3.70224,3.70224 0 0 0 -1.73632,0.36523 3.70224,3.70224 0 0 0 -1.82813,-1.06835 c -1.18109,-0.24449 -2.35906,-0.50202 -3.5332,-0.77344 a 3.70224,3.70224 0 0 0 -1.75,0.29297 3.70224,3.70224 0 0 0 -1.78516,-1.14453 c -1.16633,-0.29189 -2.33416,-0.60024 -3.50391,-0.91993 a 3.70224,3.70224 0 0 0 -1.7539,0.22266 3.70224,3.70224 0 0 0 -1.73242,-1.2168 c -1.15956,-0.34245 -2.31358,-0.6956 -3.45899,-1.0625 a 3.70224,3.70224 0 0 0 -1.77148,0.14649 3.70224,3.70224 0 0 0 -1.6836,-1.28516 c -1.13713,-0.38616 -2.2745,-0.78988 -3.41406,-1.20508 a 3.70224,3.70224 0 0 0 -1.76758,0.0762 3.70224,3.70224 0 0 0 -1.625,-1.35351 c -1.12918,-0.43809 -2.24931,-0.88606 -3.35937,-1.3457 a 3.70224,3.70224 0 0 0 -1.77735,0.002 3.70224,3.70224 0 0 0 -1.57226,-1.42188 c -1.10193,-0.47868 -2.20287,-0.97302 -3.30274,-1.48046 a 3.70224,3.70224 0 0 0 -1.76953,-0.0703 3.70224,3.70224 0 0 0 -1.50586,-1.48242 c -1.09046,-0.53073 -2.17227,-1.06794 -3.24023,-1.61719 a 3.70224,3.70224 0 0 0 -1.77148,-0.14648 3.70224,3.70224 0 0 0 -1.44922,-1.54688 c -1.05973,-0.56848 -2.11562,-1.1503 -3.16797,-1.74609 a 3.70224,3.70224 0 0 0 -1.75977,-0.2168 3.70224,3.70224 0 0 0 -1.37695,-1.60156 c -1.04328,-0.61929 -2.07774,-1.24338 -3.09766,-1.87891 a 3.70224,3.70224 0 0 0 -1.75195,-0.29101 3.70224,3.70224 0 0 0 -1.31641,-1.66016 c -1.01086,-0.65527 -2.01458,-1.32247 -3.01172,-2.00195 a 3.70224,3.70224 0 0 0 -1.73828,-0.36133 3.70224,3.70224 0 0 0 -1.24414,-1.71094 c -0.98341,-0.69763 -1.96077,-1.40818 -2.93164,-2.1289 a 3.70224,3.70224 0 0 0 -1.71875,-0.43164 3.70224,3.70224 0 0 0 -1.17187,-1.76172 c -0.95575,-0.73906 -1.90318,-1.48641 -2.83789,-2.24414 a 3.70224,3.70224 0 0 0 -1.70313,-0.50586 3.70224,3.70224 0 0 0 -1.10156,-1.81055 c -0.91975,-0.77258 -1.8336,-1.55934 -2.74414,-2.35937 a 3.70224,3.70224 0 0 0 -1.67578,-0.57032 3.70224,3.70224 0 0 0 -1.02344,-1.85156 c -0.89391,-0.81908 -1.77498,-1.64177 -2.64258,-2.47265 a 3.70224,3.70224 0 0 0 -1.65625,-0.64454 3.70224,3.70224 0 0 0 -0.94922,-1.89453 c -0.85524,-0.84851 -1.70066,-1.70699 -2.53711,-2.57617 a 3.70224,3.70224 0 0 0 -1.39648,-0.61133 c -0.10524,-0.21248 -0.21188,-0.42355 -0.31641,-0.63672 a 3.70224,3.70224 0 0 0 -0.31836,-0.63867 c -0.006,-0.0118 -0.0118,-0.0233 -0.0176,-0.0352 l -0.002,0.002 a 3.70224,3.70224 0 0 0 -0.44726,-0.72461 l -0.16797,-0.18164 a 3.7026102,3.7026102 0 0 0 -6.04297,4.13672 c 0.51209,1.05473 1.03451,2.10979 1.57031,3.16015 a 3.70224,3.70224 0 0 0 1.54492,1.31836 3.70224,3.70224 0 0 0 0.20118,2.02735 c 0.59364,1.10907 1.19875,2.214 1.81835,3.31445 a 3.70224,3.70224 0 0 0 1.60157,1.25586 3.70224,3.70224 0 0 0 0.28125,2.01562 c 0.6398,1.08652 1.29093,2.16659 1.95312,3.23829 a 3.70224,3.70224 0 0 0 1.6543,1.1914 3.70224,3.70224 0 0 0 0.36328,2 c 0.68436,1.06025 1.38005,2.11101 2.08594,3.1543 a 3.70224,3.70224 0 0 0 1.69922,1.12109 3.70224,3.70224 0 0 0 0.44922,1.98633 c 0.72624,1.02775 1.46431,2.04919 2.21484,3.06445 a 3.70224,3.70224 0 0 0 1.74219,1.04883 3.70224,3.70224 0 0 0 0.52929,1.96485 c 0.76995,1.00061 1.54966,1.99018 2.33789,2.9707 a 3.70224,3.70224 0 0 0 1.78711,0.97851 3.70224,3.70224 0 0 0 0.61133,1.94141 c 0.80926,0.96563 1.62973,1.92379 2.46094,2.87305 a 3.70224,3.70224 0 0 0 1.82422,0.90039 3.70224,3.70224 0 0 0 0.68945,1.91406 c 0.84972,0.93315 1.70768,1.85538 2.57422,2.76758 a 3.70224,3.70224 0 0 0 1.86133,0.82812 3.70224,3.70224 0 0 0 0.76953,1.88282 c 0.8863,0.89572 1.78292,1.78285 2.68945,2.66015 a 3.70224,3.70224 0 0 0 1.89063,0.7461 3.70224,3.70224 0 0 0 0.8457,1.85156 c 0.9238,0.85991 1.85607,1.70925 2.79492,2.54687 a 3.70224,3.70224 0 0 0 1.92383,0.67188 3.70224,3.70224 0 0 0 0.92188,1.8125 c 0.95686,0.81922 1.92257,1.62998 2.89843,2.42969 a 3.70224,3.70224 0 0 0 1.94727,0.58789 3.70224,3.70224 0 0 0 0.99414,1.77539 c 0.9913,0.7808 1.99063,1.54892 2.99609,2.30664 a 3.70224,3.70224 0 0 0 1.97071,0.50976 3.70224,3.70224 0 0 0 1.06836,1.73438 c 1.02052,0.73691 2.05131,1.46483 3.08984,2.18164 a 3.70224,3.70224 0 0 0 1.98828,0.42578 3.70224,3.70224 0 0 0 1.13672,1.6875 c 1.05185,0.69632 2.11231,1.38006 3.17773,2.05274 a 3.70224,3.70224 0 0 0 2.00391,0.3457 3.70224,3.70224 0 0 0 1.20898,1.63867 c 1.07775,0.65034 2.16256,1.29113 3.25586,1.91992 a 3.70224,3.70224 0 0 0 2.01953,0.26172 3.70224,3.70224 0 0 0 1.27149,1.58789 c 1.10512,0.60705 2.216,1.20226 3.33398,1.78516 a 3.70224,3.70224 0 0 0 2.02735,0.17773 3.70224,3.70224 0 0 0 1.33789,1.53516 c 1.12934,0.56082 2.26306,1.10834 3.40234,1.64453 a 3.70224,3.70224 0 0 0 2.03516,0.0957 3.70224,3.70224 0 0 0 1.39844,1.47657 c 1.15083,0.51359 2.30795,1.01492 3.4707,1.5039 a 3.70224,3.70224 0 0 0 2.0332,0.0117 3.70224,3.70224 0 0 0 1.46094,1.41797 c 1.17269,0.46656 2.34878,0.91904 3.52734,1.35937 a 3.70224,3.70224 0 0 0 2.03516,-0.0723 3.70224,3.70224 0 0 0 1.51758,1.35742 c 1.18886,0.41671 2.38257,0.82138 3.58203,1.21289 a 3.70224,3.70224 0 0 0 2.02539,-0.15625 3.70224,3.70224 0 0 0 1.57226,1.29297 c 1.20738,0.36837 2.41809,0.72288 3.62891,1.06445 a 3.70224,3.70224 0 0 0 2.02344,-0.24023 3.70224,3.70224 0 0 0 1.62305,1.22656 c 1.21933,0.31725 2.44223,0.62292 3.66992,0.91406 a 3.70224,3.70224 0 0 0 2.00781,-0.32422 3.70224,3.70224 0 0 0 1.67383,1.16016 c 1.23277,0.26702 2.46714,0.51938 3.70312,0.75977 a 3.70224,3.70224 0 0 0 1.9961,-0.40625 3.70224,3.70224 0 0 0 1.71679,1.08789 c 1.24251,0.21595 2.48791,0.4186 3.73438,0.60742 a 3.70224,3.70224 0 0 0 1.97461,-0.48828 3.70224,3.70224 0 0 0 1.76562,1.01758 c 1.247,0.16302 2.49857,0.31596 3.75391,0.45312 a 3.70224,3.70224 0 0 0 1.95312,-0.57031 3.70224,3.70224 0 0 0 1.80079,0.94336 c 1.25789,0.11309 2.51506,0.21081 3.76953,0.29687 a 3.70224,3.70224 0 0 0 1.93164,-0.64843 3.70224,3.70224 0 0 0 1.83789,0.86718 c 1.25988,0.0609 2.51963,0.10891 3.77929,0.14258 a 3.70224,3.70224 0 0 0 1.9004,-0.73047 3.70224,3.70224 0 0 0 1.875,0.79297 c 1.26547,0.009 2.52817,0.003 3.78906,-0.0176 a 3.70224,3.70224 0 0 0 2.04297,-0.74218 3.70224,3.70224 0 0 0 1.72265,0.64648 c 1.2655,-0.0429 2.52639,-0.10332 3.78125,-0.17383 a 3.70224,3.70224 0 0 0 2.01367,-0.82226 3.70224,3.70224 0 0 0 1.75586,0.57421 c 1.25135,-0.0961 2.50655,-0.20345 3.76758,-0.32812 a 3.70224,3.70224 0 0 0 1.97461,-0.90625 3.70224,3.70224 0 0 0 1.77149,0.50195 c 1.25805,-0.1463 2.50887,-0.30726 3.7539,-0.48047 a 3.70224,3.70224 0 0 0 1.93946,-0.98828 3.70224,3.70224 0 0 0 1.79687,0.42969 c 1.24082,-0.19856 2.48431,-0.41049 3.73047,-0.63867 a 3.70224,3.70224 0 0 0 1.89258,-1.06445 3.70224,3.70224 0 0 0 1.80664,0.35546 c 1.24197,-0.24999 2.47624,-0.51639 3.70117,-0.79101 a 3.70224,3.70224 0 0 0 1.85352,-1.14453 3.70224,3.70224 0 0 0 1.82031,0.27929 c 1.22686,-0.30084 2.45011,-0.617 3.66797,-0.94531 a 3.70224,3.70224 0 0 0 1.80078,-1.21875 3.70224,3.70224 0 0 0 1.83594,0.20117 c 1.20487,-0.35116 2.41405,-0.71411 3.62304,-1.0957 a 3.70224,3.70224 0 0 0 1.74414,-1.29102 3.70224,3.70224 0 0 0 1.83985,0.12696 c 1.19868,-0.40211 2.39023,-0.8195 3.57422,-1.2461 a 3.70224,3.70224 0 0 0 1.69531,-1.36523 3.70224,3.70224 0 0 0 1.83984,0.0508 c 1.18311,-0.45181 2.35559,-0.91795 3.51953,-1.39258 a 3.70224,3.70224 0 0 0 1.63867,-1.43359 3.70224,3.70224 0 0 0 1.84375,-0.0273 c 1.158,-0.49933 2.31089,-1.01288 3.45899,-1.53907 a 3.70224,3.70224 0 0 0 1.57226,-1.49804 3.70224,3.70224 0 0 0 1.84571,-0.10547 c 1.13067,-0.54569 2.26184,-1.10385 3.39062,-1.67969 a 3.70224,3.70224 0 0 0 1.50782,-1.5625 3.70224,3.70224 0 0 0 1.83789,-0.17969 c 1.10984,-0.59275 2.21643,-1.19813 3.31836,-1.81836 a 3.70224,3.70224 0 0 0 1.4414,-1.625 3.70224,3.70224 0 0 0 1.82617,-0.2539 c 1.09119,-0.64044 2.1702,-1.29296 3.24024,-1.95313 a 3.70224,3.70224 0 0 0 1.3789,-1.68555 3.70224,3.70224 0 0 0 1.81055,-0.32812 c 1.06567,-0.6856 2.11789,-1.38207 3.1582,-2.08398 a 3.70224,3.70224 0 0 0 1.3086,-1.74219 3.70224,3.70224 0 0 0 1.79687,-0.40235 c 1.0339,-0.72757 2.05724,-1.46573 3.07032,-2.21289 a 3.70224,3.70224 0 0 0 1.23437,-1.79297 3.70224,3.70224 0 0 0 1.7793,-0.47851 c 0.99999,-0.7679 1.99275,-1.54696 2.97656,-2.33789 a 3.70224,3.70224 0 0 0 1.1582,-1.83789 3.70224,3.70224 0 0 0 1.76172,-0.55274 c 0.96441,-0.80665 1.92455,-1.62599 2.87695,-2.45898 a 3.70224,3.70224 0 0 0 1.08008,-1.88281 3.70224,3.70224 0 0 0 1.74024,-0.62696 c 0.92755,-0.84396 1.85268,-1.69923 2.77148,-2.57226 a 3.70224,3.70224 0 0 0 1,-1.92578 3.70224,3.70224 0 0 0 1.71094,-0.69532 c 0.89523,-0.88306 1.78527,-1.77779 2.66601,-2.68554 a 3.70224,3.70224 0 0 0 0.92383,-1.9668 3.70224,3.70224 0 0 0 1.67774,-0.76172 c 0.86239,-0.92191 1.71239,-1.85205 2.55273,-2.79101 a 3.70224,3.70224 0 0 0 0.8457,-2.00782 3.70224,3.70224 0 0 0 1.64258,-0.82617 c 0.82715,-0.95913 1.63658,-1.92613 2.43555,-2.89453 a 3.70224,3.70224 0 0 0 0.76367,-2.04102 3.70224,3.70224 0 0 0 1.60742,-0.89453 c 0.78708,-0.99219 1.55773,-1.98956 2.31641,-2.99023 a 3.70224,3.70224 0 0 0 0.67773,-2.07227 3.70224,3.70224 0 0 0 1.57032,-0.96093 c 0.74358,-1.02167 1.47309,-2.04936 2.1914,-3.08399 a 3.70224,3.70224 0 0 0 0.5918,-2.09375 3.70224,3.70224 0 0 0 1.53125,-1.02734 c 0.69827,-1.04876 1.38601,-2.10683 2.0625,-3.17383 a 3.70224,3.70224 0 0 0 0.50195,-2.11523 3.70224,3.70224 0 0 0 1.49024,-1.0918 c 0.65141,-1.07358 1.29657,-2.15667 1.92968,-3.25391 a 3.70224,3.70224 0 0 0 0.41407,-2.13086 3.70224,3.70224 0 0 0 1.44336,-1.15234 c 0.60726,-1.10039 1.20794,-2.21062 1.79492,-3.33203 a 3.70224,3.70224 0 0 0 0.32422,-2.14844 3.70224,3.70224 0 0 0 1.39258,-1.20703 c 0.56634,-1.13112 1.1162,-2.26552 1.65429,-3.40234 a 3.70224,3.70224 0 0 0 0.23828,-2.16602 3.70224,3.70224 0 0 0 1.3418,-1.26172 c 0.52008,-1.15502 1.02151,-2.3119 1.51172,-3.46875 a 3.70224,3.70224 0 0 0 0.14844,-2.17383 3.70224,3.70224 0 0 0 1.28906,-1.31836 c 0.46892,-1.17114 0.92459,-2.34673 1.36719,-3.52929 a 3.70224,3.70224 0 0 0 0.0566,-2.17188 3.70224,3.70224 0 0 0 1.23437,-1.37695 c 0.41612,-1.18384 0.82486,-2.37887 1.21875,-3.58399 a 3.70224,3.70224 0 0 0 -0.0332,-2.16992 3.70224,3.70224 0 0 0 1.17383,-1.42187 c 0.37135,-1.20895 0.72565,-2.41848 1.06836,-3.62891 a 3.70224,3.70224 0 0 0 -0.12305,-2.173827 3.70224,3.70224 0 0 0 1.11328,-1.466797 c 0.32117,-1.223552 0.62604,-2.448851 0.91797,-3.673828 a 3.70224,3.70224 0 0 0 -0.21289,-2.166016 3.70224,3.70224 0 0 0 1.05273,-1.517578 c 0.26631,-1.227544 0.52276,-2.462923 0.76368,-3.707031 a 3.70224,3.70224 0 0 0 -0.30469,-2.150391 3.70224,3.70224 0 0 0 0.98828,-1.552734 c 0.21932,-1.248552 0.42124,-2.492824 0.61133,-3.732422 a 3.70224,3.70224 0 0 0 -0.39258,-2.144531 3.70224,3.70224 0 0 0 0.92383,-1.595703 c 0.16554,-1.249371 0.31765,-2.503127 0.45508,-3.759766 a 3.70224,3.70224 0 0 0 -0.47852,-2.11914 3.70224,3.70224 0 0 0 0.85547,-1.63086 c 0.11491,-1.259676 0.21356,-2.5163 0.30078,-3.769531 a 3.70224,3.70224 0 0 0 -0.56641,-2.103516 3.70224,3.70224 0 0 0 0.78907,-1.666015 c 0.0625,-1.257891 0.11234,-2.519164 0.14648,-3.783203 a 3.70224,3.70224 0 0 0 -0.65039,-2.070313 3.70224,3.70224 0 0 0 0.7207,-1.693359 c 0.0129,-1.268228 0.008,-2.5303 -0.008,-3.785157 a 3.70224,3.70224 0 0 0 -0.72852,-1.697265 3.70224,3.70224 0 0 0 0.64258,-2.076172 c -0.04,-1.265977 -0.0969,-2.525478 -0.16406,-3.779297 a 3.70224,3.70224 0 0 0 -0.79687,-1.667969 3.70224,3.70224 0 0 0 0.55468,-2.097656 c -0.0922,-1.262875 -0.20135,-2.51901 -0.32031,-3.769531 a 3.70224,3.70224 0 0 0 -0.86523,-1.632813 3.70224,3.70224 0 0 0 0.46875,-2.121093 c -0.14423,-1.257168 -0.30373,-2.50829 -0.47461,-3.753907 a 3.70224,3.70224 0 0 0 -0.93164,-1.59375 3.70224,3.70224 0 0 0 0.38086,-2.138672 c -0.196,-1.248757 -0.40805,-2.493335 -0.63086,-3.732421 a 3.70224,3.70224 0 0 0 -0.9961,-1.554688 3.70224,3.70224 0 0 0 0.29102,-2.152344 c -0.24733,-1.237675 -0.50857,-2.47235 -0.78321,-3.703125 a 3.70224,3.70224 0 0 0 -1.06054,-1.5078121 3.70224,3.70224 0 0 0 0.20312,-2.1679688 c -0.29809,-1.2240694 -0.60937,-2.4455835 -0.93554,-3.6660156 a 3.70224,3.70224 0 0 0 -1.11914,-1.4628906 3.70224,3.70224 0 0 0 0.11132,-2.17578128 C 562.3354,-1.120329 561.97481,-2.327397 561.59766,-3.5351563 a 3.70224,3.70224 0 0 0 -1.17969,-1.4140624 3.70224,3.70224 0 0 0 0.0234,-2.1796875 c -0.39762,-1.1907488 -0.80719,-2.3839057 -1.23438,-3.5761718 a 3.70224,3.70224 0 0 0 -1.23633,-1.361328 3.70224,3.70224 0 0 0 -0.0664,-2.179688 c -0.44661,-1.174947 -0.90565,-2.349039 -1.38086,-3.521484 a 3.70224,3.70224 0 0 0 -1.29297,-1.3125 3.70224,3.70224 0 0 0 -0.15625,-2.169922 c -0.49516,-1.15829 -1.00165,-2.312977 -1.52344,-3.462891 a 3.70224,3.70224 0 0 0 -1.3457,-1.259765 3.70224,3.70224 0 0 0 -0.2461,-2.160156 c -0.54309,-1.139417 -1.09884,-2.272997 -1.66601,-3.398438 a 3.70224,3.70224 0 0 0 -1.39649,-1.203125 3.70224,3.70224 0 0 0 -0.33398,-2.148437 c -0.59027,-1.118214 -1.19326,-2.224993 -1.80469,-3.324219 a 3.70224,3.70224 0 0 0 -1.44531,-1.148438 3.70224,3.70224 0 0 0 -0.42188,-2.130859 c -0.63651,-1.094621 -1.28483,-2.176603 -1.93945,-3.248047 a 3.70224,3.70224 0 0 0 -1.49414,-1.087891 3.70224,3.70224 0 0 0 -0.50781,-2.111328 c -0.68124,-1.067764 -1.37402,-2.120638 -2.07227,-3.164062 a 3.70224,3.70224 0 0 0 -1.53711,-1.025391 3.70224,3.70224 0 0 0 -0.5957,-2.089844 c -0.72441,-1.038169 -1.45958,-2.061752 -2.20117,-3.076171 a 3.70224,3.70224 0 0 0 -1.57813,-0.960938 3.70224,3.70224 0 0 0 -0.67968,-2.0625 c -0.76632,-1.006818 -1.54266,-2.000877 -2.32618,-2.984375 a 3.70224,3.70224 0 0 0 -1.61718,-0.894531 3.70224,3.70224 0 0 0 -0.76563,-2.033203 c -0.80705,-0.974108 -1.6236,-1.934235 -2.44726,-2.884766 a 3.70224,3.70224 0 0 0 -1.65235,-0.826172 3.70224,3.70224 0 0 0 -0.84375,-1.996094 c -0.58041,-0.646211 -1.16221,-1.276863 -1.73633,-1.896484 a 3.70224,3.70224 0 0 0 -0.83007,-0.380859 3.70224,3.70224 0 0 0 -1.23633,-0.570313 3.70224,3.70224 0 0 0 -0.50781,-0.232422 z m 12.57421,25.179688 a 3.70224,3.70224 0 0 0 1.44141,0.921875 3.70224,3.70224 0 0 0 0.38672,1.929687 c 0.6744,1.007795 1.33614,2.018274 1.98242,3.03125 a 3.70224,3.70224 0 0 0 1.62109,1.132813 3.70224,3.70224 0 0 0 0.30469,1.943359 c 0.63217,1.034705 1.25324,2.070342 1.85742,3.109375 a 3.70224,3.70224 0 0 0 1.57227,1.199219 3.70224,3.70224 0 0 0 0.22461,1.955078 c 0.58833,1.057693 1.1666,2.119086 1.72851,3.183594 a 3.70224,3.70224 0 0 0 1.51954,1.259765 3.70224,3.70224 0 0 0 0.14648,1.966797 c 0.54359,1.078637 1.07488,2.163362 1.59375,3.251953 a 3.70224,3.70224 0 0 0 1.4668,1.320313 3.70224,3.70224 0 0 0 0.0644,1.972656 c 0.49808,1.097675 0.98397,2.203271 1.45898,3.314453 a 3.70224,3.70224 0 0 0 1.41016,1.376953 3.70224,3.70224 0 0 0 -0.0156,1.976563 c 0.45191,1.11496 0.89192,2.23895 1.32226,3.371094 a 3.70224,3.70224 0 0 0 1.35156,1.433593 3.70224,3.70224 0 0 0 -0.0977,1.9746097 c 0.40532,1.1312487 0.79752,2.2735189 1.18164,3.4238282 a 3.70224,3.70224 0 0 0 1.29101,1.4863281 3.70224,3.70224 0 0 0 -0.17773,1.96875 c 0.35855,1.14818132 0.70379,2.30341684 1.03906,3.4667969 a 3.70224,3.70224 0 0 0 1.22656,1.5410156 3.70224,3.70224 0 0 0 -0.25781,1.9589844 c 0.31109,1.1640056 0.60864,2.3318967 0.89453,3.5058594 a 3.70224,3.70224 0 0 0 1.16407,1.5917967 3.70224,3.70224 0 0 0 -0.33985,1.945313 c 0.26289,1.178098 0.51368,2.358422 0.75,3.541015 a 3.70224,3.70224 0 0 0 1.09766,1.638672 3.70224,3.70224 0 0 0 -0.41992,1.927734 c 0.21399,1.190068 0.41486,2.378838 0.60156,3.56836 a 3.70224,3.70224 0 0 0 1.03125,1.685547 3.70224,3.70224 0 0 0 -0.5,1.90625 c 0.16457,1.1996 0.31799,2.396909 0.45508,3.591797 a 3.70224,3.70224 0 0 0 0.95898,1.728515 3.70224,3.70224 0 0 0 -0.57812,1.882813 c 0.11477,1.206507 0.21915,2.408697 0.30664,3.607422 a 3.70224,3.70224 0 0 0 0.88672,1.767578 3.70224,3.70224 0 0 0 -0.6543,1.855468 c 0.0648,1.210777 0.11833,2.416243 0.15625,3.617188 a 3.70224,3.70224 0 0 0 0.81445,1.802734 3.70224,3.70224 0 0 0 -0.73047,1.826172 c 0.0148,1.213076 0.02,2.421298 0.008,3.621094 a 3.70224,3.70224 0 0 0 0.73828,1.833984 3.70224,3.70224 0 0 0 -0.80664,1.804688 c -0.0325,1.203202 -0.0787,2.408033 -0.13868,3.615234 a 3.70224,3.70224 0 0 0 0.66407,1.859375 3.70224,3.70224 0 0 0 -0.87891,1.763672 c -0.0841,1.208937 -0.1778,2.413065 -0.28711,3.611328 a 3.70224,3.70224 0 0 0 0.58594,1.884766 3.70224,3.70224 0 0 0 -0.94922,1.732422 c -0.13089,1.196874 -0.27689,2.394419 -0.43555,3.591797 a 3.70224,3.70224 0 0 0 0.50977,1.908203 3.70224,3.70224 0 0 0 -1.01953,1.68164 c -0.18402,1.200005 -0.37629,2.391839 -0.58399,3.574219 a 3.70224,3.70224 0 0 0 0.42774,1.927734 3.70224,3.70224 0 0 0 -1.08985,1.648438 c -0.22831,1.179029 -0.4735,2.36045 -0.73046,3.544922 a 3.70224,3.70224 0 0 0 0.35156,1.9375 3.70224,3.70224 0 0 0 -1.15821,1.599609 c -0.28023,1.17592 -0.57149,2.346043 -0.87695,3.509766 a 3.70224,3.70224 0 0 0 0.26758,1.958984 3.70224,3.70224 0 0 0 -1.2207,1.544922 c -0.32966,1.164335 -0.66812,2.322257 -1.02149,3.472657 a 3.70224,3.70224 0 0 0 0.18555,1.96484 3.70224,3.70224 0 0 0 -1.28711,1.50196 c -0.3729,1.1409 -0.76173,2.28115 -1.16406,3.42578 a 3.70224,3.70224 0 0 0 0.10742,1.96484 3.70224,3.70224 0 0 0 -1.34961,1.44531 c -0.42255,1.12899 -0.85814,2.25289 -1.30664,3.37305 a 3.70224,3.70224 0 0 0 0.0254,1.97461 3.70224,3.70224 0 0 0 -1.4043,1.38086 c -0.47276,1.11567 -0.95398,2.22285 -1.44726,3.31836 a 3.70224,3.70224 0 0 0 -0.0606,1.97656 3.70224,3.70224 0 0 0 -1.45898,1.32227 c -0.51783,1.09401 -1.04533,2.18003 -1.58399,3.25586 a 3.70224,3.70224 0 0 0 -0.14062,1.96875 3.70224,3.70224 0 0 0 -1.51563,1.26757 c -0.5576,1.06529 -1.13154,2.127 -1.7168,3.1875 a 3.70224,3.70224 0 0 0 -0.21875,1.95508 3.70224,3.70224 0 0 0 -1.56835,1.20508 c -0.60042,1.04057 -1.21875,2.07874 -1.84766,3.11523 a 3.70224,3.70224 0 0 0 -0.29883,1.94336 3.70224,3.70224 0 0 0 -1.61719,1.13868 c -0.64511,1.0175 -1.30306,2.02947 -1.97265,3.03515 a 3.70224,3.70224 0 0 0 -0.38086,1.9336 3.70224,3.70224 0 0 0 -1.66016,1.06836 c -0.68927,0.99279 -1.38688,1.97532 -2.0957,2.94921 a 3.70224,3.70224 0 0 0 -0.46289,1.92188 3.70224,3.70224 0 0 0 -1.69922,0.99414 c -0.73246,0.96609 -1.46998,1.92183 -2.2168,2.86328 a 3.70224,3.70224 0 0 0 -0.54297,1.90234 3.70224,3.70224 0 0 0 -1.73828,0.92383 c -0.77174,0.9354 -1.54728,1.85957 -2.33203,2.76953 a 3.70224,3.70224 0 0 0 -0.61914,1.87696 3.70224,3.70224 0 0 0 -1.7793,0.85351 c -0.80562,0.90017 -1.61968,1.79135 -2.44336,2.67188 a 3.70224,3.70224 0 0 0 -0.69336,1.84765 3.70224,3.70224 0 0 0 -1.81445,0.78321 c -0.83793,0.86363 -1.68889,1.72014 -2.55078,2.57031 a 3.70224,3.70224 0 0 0 -0.76562,1.81445 3.70224,3.70224 0 0 0 -1.84571,0.71094 c -0.87044,0.82708 -1.75826,1.64582 -2.65625,2.46289 a 3.70224,3.70224 0 0 0 -0.83594,1.7793 3.70224,3.70224 0 0 0 -1.875,0.63476 c -0.90542,0.7919 -1.82317,1.57471 -2.75195,2.35157 a 3.70224,3.70224 0 0 0 -0.91211,1.74414 3.70224,3.70224 0 0 0 -1.89648,0.55664 c -0.93978,0.75553 -1.88814,1.49905 -2.84571,2.23437 a 3.70224,3.70224 0 0 0 -0.98632,1.71094 3.70224,3.70224 0 0 0 -1.91407,0.47266 c -0.97328,0.7178 -1.95294,1.42433 -2.9375,2.11718 a 3.70224,3.70224 0 0 0 -1.05664,1.66993 3.70224,3.70224 0 0 0 -1.92968,0.39257 c -1.00566,0.67854 -2.01146,1.3463 -3.02149,1.9961 a 3.70224,3.70224 0 0 0 -1.12695,1.625 3.70224,3.70224 0 0 0 -1.94531,0.31445 c -1.03048,0.63576 -2.0622,1.25831 -3.09961,1.86719 a 3.70224,3.70224 0 0 0 -1.19141,1.57617 3.70224,3.70224 0 0 0 -1.96094,0.23633 c -1.04891,0.59038 -2.1066,1.17024 -3.17383,1.74023 a 3.70224,3.70224 0 0 0 -1.25,1.52149 3.70224,3.70224 0 0 0 -1.97265,0.15625 c -1.06981,0.54575 -2.15202,1.08034 -3.24414,1.60742 a 3.70224,3.70224 0 0 0 -1.31055,1.4668 3.70224,3.70224 0 0 0 -1.97461,0.0742 c -1.09562,0.50214 -2.19821,0.99275 -3.30664,1.47071 a 3.70224,3.70224 0 0 0 -1.375,1.41601 3.70224,3.70224 0 0 0 -1.96875,-0.0117 c -1.12148,0.45732 -2.24455,0.90137 -3.36719,1.33008 a 3.70224,3.70224 0 0 0 -1.4375,1.35938 3.70224,3.70224 0 0 0 -1.96484,-0.0918 c -1.13801,0.41003 -2.27862,0.8066 -3.41992,1.18945 a 3.70224,3.70224 0 0 0 -1.48828,1.29688 3.70224,3.70224 0 0 0 -1.96875,-0.17188 c -1.14471,0.36131 -2.30019,0.70939 -3.46485,1.04883 a 3.70224,3.70224 0 0 0 -1.53515,1.23047 3.70224,3.70224 0 0 0 -1.95899,-0.25391 c -1.16521,0.31412 -2.33169,0.61538 -3.50195,0.90235 a 3.70224,3.70224 0 0 0 -1.59375,1.16797 3.70224,3.70224 0 0 0 -1.93945,-0.33594 c -1.18341,0.26531 -2.36338,0.51881 -3.54102,0.75586 a 3.70224,3.70224 0 0 0 -1.63867,1.10156 3.70224,3.70224 0 0 0 -1.9336,-0.41601 c -1.18162,0.21636 -2.3701,0.41794 -3.5664,0.60937 a 3.70224,3.70224 0 0 0 -1.67969,1.0332 3.70224,3.70224 0 0 0 -1.90625,-0.49609 c -1.19955,0.16688 -2.39627,0.32213 -3.58984,0.46094 a 3.70224,3.70224 0 0 0 -1.72852,0.96289 3.70224,3.70224 0 0 0 -1.89062,-0.57422 c -1.19515,0.11816 -2.39789,0.22157 -3.60743,0.31445 a 3.70224,3.70224 0 0 0 -1.7539,0.89063 3.70224,3.70224 0 0 0 -1.86328,-0.65235 c -1.20938,0.068 -2.41596,0.12531 -3.61719,0.16602 a 3.70224,3.70224 0 0 0 -1.79883,0.81836 3.70224,3.70224 0 0 0 -1.83594,-0.72656 c -1.20689,0.0199 -2.41265,0.0262 -3.61523,0.0176 a 3.70224,3.70224 0 0 0 -1.64258,0.66797 3.70224,3.70224 0 0 0 -1.98633,-0.72851 c -1.20759,-0.0323 -2.41572,-0.0784 -3.62109,-0.13672 a 3.70224,3.70224 0 0 0 -1.66992,0.59961 3.70224,3.70224 0 0 0 -1.95117,-0.8086 c -1.20789,-0.0829 -2.41098,-0.17723 -3.61133,-0.28515 a 3.70224,3.70224 0 0 0 -1.69336,0.52929 3.70224,3.70224 0 0 0 -1.91992,-0.88867 c -1.19822,-0.13091 -2.39733,-0.27666 -3.59766,-0.43359 a 3.70224,3.70224 0 0 0 -1.71094,0.46094 3.70224,3.70224 0 0 0 -1.88086,-0.96875 c -1.19383,-0.18085 -2.38504,-0.37535 -3.57422,-0.58203 a 3.70224,3.70224 0 0 0 -1.73242,0.38867 3.70224,3.70224 0 0 0 -1.83593,-1.04297 c -1.18677,-0.23082 -2.37134,-0.475 -3.55079,-0.73047 a 3.70224,3.70224 0 0 0 -1.74414,0.31641 3.70224,3.70224 0 0 0 -1.79492,-1.11914 c -1.17385,-0.27838 -2.34635,-0.57078 -3.51562,-0.875 a 3.70224,3.70224 0 0 0 -1.75586,0.24414 3.70224,3.70224 0 0 0 -1.74414,-1.19141 c -1.16462,-0.32854 -2.32322,-0.66765 -3.47657,-1.01953 a 3.70224,3.70224 0 0 0 -1.76562,0.17187 3.70224,3.70224 0 0 0 -1.69727,-1.26562 c -1.14685,-0.37434 -2.28935,-0.76046 -3.42968,-1.16016 a 3.70224,3.70224 0 0 0 -1.76954,0.0977 3.70224,3.70224 0 0 0 -1.64257,-1.33203 c -1.13348,-0.42349 -2.26023,-0.85689 -3.38086,-1.30274 a 3.70224,3.70224 0 0 0 -1.77149,0.0254 3.70224,3.70224 0 0 0 -1.58789,-1.40039 c -1.11239,-0.4678 -2.22118,-0.94914 -3.32422,-1.4414 a 3.70224,3.70224 0 0 0 -1.77148,-0.0469 3.70224,3.70224 0 0 0 -1.52539,-1.46289 c -1.09391,-0.51484 -2.18242,-1.04118 -3.26367,-1.57812 a 3.70224,3.70224 0 0 0 -1.76758,-0.1211 3.70224,3.70224 0 0 0 -1.4668,-1.52539 c -1.07054,-0.55817 -2.13523,-1.12775 -3.19336,-1.70898 a 3.70224,3.70224 0 0 0 -1.76172,-0.19532 3.70224,3.70224 0 0 0 -1.40234,-1.58203 c -1.04624,-0.60172 -2.08562,-1.21696 -3.12109,-1.84179 a 3.70224,3.70224 0 0 0 -1.75196,-0.26563 3.70224,3.70224 0 0 0 -1.33398,-1.64062 C 292.02141,198.72807 291.00619,198.0743 290,197.4082 a 3.70224,3.70224 0 0 0 -1.74023,-0.33789 3.70224,3.70224 0 0 0 -1.26758,-1.69531 c -0.99276,-0.68522 -1.97851,-1.3838 -2.95899,-2.0918 a 3.70224,3.70224 0 0 0 -1.72461,-0.4082 3.70224,3.70224 0 0 0 -1.19336,-1.74414 c -0.96563,-0.7277 -1.92346,-1.46454 -2.87109,-2.21094 a 3.70224,3.70224 0 0 0 -1.70703,-0.48047 3.70224,3.70224 0 0 0 -1.12305,-1.79297 c -0.93315,-0.7647 -1.85934,-1.54217 -2.77734,-2.32812 a 3.70224,3.70224 0 0 0 -1.68555,-0.54883 3.70224,3.70224 0 0 0 -1.04492,-1.83594 c -0.90285,-0.80551 -1.79689,-1.61965 -2.67969,-2.4414 a 3.70224,3.70224 0 0 0 -1.66211,-0.61914 3.70224,3.70224 0 0 0 -0.9707,-1.87891 c -0.86706,-0.83911 -1.72454,-1.68816 -2.57422,-2.54687 a 3.70224,3.70224 0 0 0 -1.63476,-0.6875 3.70224,3.70224 0 0 0 -0.89063,-1.91602 c -0.83334,-0.87726 -1.65671,-1.76057 -2.46875,-2.65234 a 3.70224,3.70224 0 0 0 -1.60547,-0.75586 3.70224,3.70224 0 0 0 -0.8125,-1.95313 c -0.79475,-0.90762 -1.58134,-1.82396 -2.35742,-2.75 a 3.70224,3.70224 0 0 0 -1.57031,-0.82031 3.70224,3.70224 0 0 0 -0.73047,-1.98242 c -0.75816,-0.94312 -1.50502,-1.89218 -2.24024,-2.84766 a 3.70224,3.70224 0 0 0 -1.53711,-0.88476 3.70224,3.70224 0 0 0 -0.65039,-2.01368 c -0.71666,-0.96945 -1.42298,-1.94957 -2.12109,-2.9375 a 3.70224,3.70224 0 0 0 -1.49805,-0.94531 3.70224,3.70224 0 0 0 -0.56445,-2.03711 c -0.32782,-0.48451 -0.64425,-0.97548 -0.9668,-1.46289 a 3.70224,3.70224 0 0 0 0.8711,0.27539 3.70224,3.70224 0 0 0 0.96875,1.78711 c 0.98257,0.79653 1.97398,1.57886 2.9707,2.34961 a 3.70224,3.70224 0 0 0 1.96094,0.5332 3.70224,3.70224 0 0 0 1.04687,1.74805 c 1.01089,0.75043 2.02896,1.49223 3.0586,2.22266 a 3.70224,3.70224 0 0 0 1.98437,0.45117 3.70224,3.70224 0 0 0 1.11328,1.70117 c 1.04247,0.71038 2.0941,1.40844 3.1543,2.0957 a 3.70224,3.70224 0 0 0 1.99805,0.36914 3.70224,3.70224 0 0 0 1.18164,1.65235 c 1.07484,0.66975 2.15529,1.32234 3.23437,1.96289 a 3.70224,3.70224 0 0 0 2.01758,0.29101 3.70224,3.70224 0 0 0 1.25195,1.60352 c 1.09545,0.62019 2.19923,1.22987 3.31446,1.82812 a 3.70224,3.70224 0 0 0 2.02148,0.20313 3.70224,3.70224 0 0 0 1.3125,1.54883 c 1.12693,0.57957 2.256,1.14203 3.38477,1.6914 a 3.70224,3.70224 0 0 0 2.03515,0.12305 3.70224,3.70224 0 0 0 1.38086,1.49414 c 1.14124,0.52653 2.29128,1.04412 3.45313,1.54883 a 3.70224,3.70224 0 0 0 2.03125,0.0352 3.70224,3.70224 0 0 0 1.43554,1.43554 c 1.17033,0.4846 2.3438,0.95161 3.51563,1.40625 a 3.70224,3.70224 0 0 0 2.0332,-0.0469 3.70224,3.70224 0 0 0 1.50196,1.3789 c 1.17943,0.42973 2.36843,0.85033 3.56835,1.25782 a 3.70224,3.70224 0 0 0 2.02735,-0.13086 3.70224,3.70224 0 0 0 1.55078,1.3125 c 1.2051,0.38601 2.41164,0.75471 3.61914,1.11133 a 3.70224,3.70224 0 0 0 2.02148,-0.21485 3.70224,3.70224 0 0 0 1.61133,1.25 c 1.21108,0.33098 2.43022,0.65362 3.65821,0.96094 a 3.70224,3.70224 0 0 0 2.01171,-0.29883 3.70224,3.70224 0 0 0 1.65235,1.17969 c 1.23058,0.28446 2.46341,0.55473 3.69922,0.81055 a 3.70224,3.70224 0 0 0 1.99804,-0.38086 3.70224,3.70224 0 0 0 1.70118,1.11132 c 1.24244,0.23332 2.48433,0.45091 3.72461,0.65625 a 3.70224,3.70224 0 0 0 1.98437,-0.46289 3.70224,3.70224 0 0 0 1.74805,1.04102 c 1.24605,0.18063 2.49761,0.3491 3.7539,0.50195 a 3.70224,3.70224 0 0 0 1.95899,-0.54492 3.70224,3.70224 0 0 0 1.7832,0.9668 c 1.25989,0.13118 2.51667,0.24566 3.76953,0.34765 a 3.70224,3.70224 0 0 0 1.93555,-0.62304 3.70224,3.70224 0 0 0 1.83398,0.89257 c 1.25294,0.0758 2.51212,0.14032 3.77735,0.18946 a 3.70224,3.70224 0 0 0 1.90429,-0.70313 3.70224,3.70224 0 0 0 1.86719,0.81641 c 1.25341,0.025 2.51821,0.04 3.79492,0.0332 a 3.70224,3.70224 0 0 0 2.04883,-0.71875 3.70224,3.70224 0 0 0 1.71485,0.66797 c 1.26621,-0.028 2.52765,-0.0741 3.78125,-0.12891 a 3.70224,3.70224 0 0 0 2.02539,-0.79882 3.70224,3.70224 0 0 0 1.74609,0.5957 c 1.25463,-0.0806 2.51392,-0.17376 3.77539,-0.2832 a 3.70224,3.70224 0 0 0 1.98438,-0.88282 3.70224,3.70224 0 0 0 1.76367,0.52539 c 1.26053,-0.13121 2.51261,-0.2801 3.75781,-0.4375 a 3.70224,3.70224 0 0 0 1.95508,-0.96484 3.70224,3.70224 0 0 0 1.78906,0.45117 c 1.24509,-0.18333 2.49068,-0.37908 3.73828,-0.59179 a 3.70224,3.70224 0 0 0 1.90625,-1.04102 3.70224,3.70224 0 0 0 1.80469,0.375 c 1.24203,-0.23494 2.47804,-0.48317 3.70898,-0.74414 a 3.70224,3.70224 0 0 0 1.86524,-1.12305 3.70224,3.70224 0 0 0 1.8164,0.30078 c 1.23167,-0.28597 2.45917,-0.58556 3.67969,-0.89843 a 3.70224,3.70224 0 0 0 1.81445,-1.19727 3.70224,3.70224 0 0 0 1.83399,0.22461 c 1.21015,-0.33648 2.4237,-0.68607 3.63672,-1.05273 a 3.70224,3.70224 0 0 0 1.75976,-1.27149 3.70224,3.70224 0 0 0 1.83789,0.15039 c 1.20193,-0.38732 2.39937,-0.78818 3.58985,-1.20117 a 3.70224,3.70224 0 0 0 1.71094,-1.34766 3.70224,3.70224 0 0 0 1.83984,0.0742 c 1.18895,-0.43749 2.36605,-0.88756 3.53516,-1.34765 a 3.70224,3.70224 0 0 0 1.65625,-1.41602 3.70224,3.70224 0 0 0 1.84375,-0.004 c 1.16444,-0.48532 2.3225,-0.9841 3.47656,-1.49609 a 3.70224,3.70224 0 0 0 1.59179,-1.48047 3.70224,3.70224 0 0 0 1.84571,-0.082 c 1.13751,-0.532 2.27657,-1.07663 3.41211,-1.63867 a 3.70224,3.70224 0 0 0 1.52539,-1.54492 3.70224,3.70224 0 0 0 1.83984,-0.15821 c 1.11668,-0.57922 2.23031,-1.17032 3.33985,-1.77734 a 3.70224,3.70224 0 0 0 1.46484,-1.60742 3.70224,3.70224 0 0 0 1.82617,-0.23242 c 1.09884,-0.62722 2.18573,-1.26489 3.26367,-1.91211 a 3.70224,3.70224 0 0 0 1.40039,-1.67188 3.70224,3.70224 0 0 0 1.81446,-0.30469 c 1.07383,-0.67269 2.13288,-1.35551 3.18164,-2.04492 a 3.70224,3.70224 0 0 0 1.33008,-1.72656 3.70224,3.70224 0 0 0 1.80078,-0.38086 c 1.04246,-0.71503 2.07555,-1.44073 3.09765,-2.17578 a 3.70224,3.70224 0 0 0 1.25586,-1.77734 3.70224,3.70224 0 0 0 1.78516,-0.45704 c 1.00896,-0.75574 2.01053,-1.5235 3.0039,-2.30273 a 3.70224,3.70224 0 0 0 1.17969,-1.82422 3.70224,3.70224 0 0 0 1.76953,-0.53125 c 0.97379,-0.79491 1.94379,-1.60216 2.90625,-2.42383 a 3.70224,3.70224 0 0 0 1.10157,-1.87109 3.70224,3.70224 0 0 0 1.74804,-0.60352 c 0.93777,-0.83285 1.87358,-1.67911 2.80274,-2.54101 a 3.70224,3.70224 0 0 0 1.02343,-1.91406 3.70224,3.70224 0 0 0 1.71875,-0.67383 c 0.90613,-0.8725 1.80592,-1.75553 2.69727,-2.65235 a 3.70224,3.70224 0 0 0 0.94531,-1.95703 3.70224,3.70224 0 0 0 1.6875,-0.74023 c 0.87374,-0.91176 1.73659,-1.83329 2.58789,-2.76172 a 3.70224,3.70224 0 0 0 0.86719,-1.99609 3.70224,3.70224 0 0 0 1.6543,-0.80664 c 0.83875,-0.94927 1.66029,-1.90675 2.4707,-2.86524 a 3.70224,3.70224 0 0 0 0.78516,-2.03125 3.70224,3.70224 0 0 0 1.62109,-0.875 c 0.79881,-0.98256 1.58083,-1.97316 2.35156,-2.96484 a 3.70224,3.70224 0 0 0 0.70118,-2.0625 3.70224,3.70224 0 0 0 1.58398,-0.94141 c 0.75569,-1.01254 1.49775,-2.03254 2.22852,-3.05859 a 3.70224,3.70224 0 0 0 0.61523,-2.08594 3.70224,3.70224 0 0 0 1.54492,-1.00977 c 0.71077,-1.04019 1.41029,-2.08766 2.09961,-3.14648 a 3.70224,3.70224 0 0 0 0.52734,-2.10742 3.70224,3.70224 0 0 0 1.50391,-1.07617 c 0.66431,-1.06564 1.32245,-2.14099 1.96875,-3.23047 a 3.70224,3.70224 0 0 0 0.43945,-2.125003 3.70224,3.70224 0 0 0 1.45704,-1.136718 c 0.6204,-1.092845 1.23345,-2.194241 1.83398,-3.308594 a 3.70224,3.70224 0 0 0 0.35156,-2.146484 3.70224,3.70224 0 0 0 1.40625,-1.1875 c 0.57973,-1.123836 1.14534,-2.252133 1.69727,-3.382813 a 3.70224,3.70224 0 0 0 0.26367,-2.162109 3.70224,3.70224 0 0 0 1.35547,-1.244141 c 0.53418,-1.148851 1.05055,-2.300824 1.55469,-3.451172 a 3.70224,3.70224 0 0 0 0.17578,-2.171875 3.70224,3.70224 0 0 0 1.30273,-1.302734 c 0.48344,-1.165853 0.95333,-2.337191 1.41016,-3.513672 a 3.70224,3.70224 0 0 0 0.084,-2.171875 3.70224,3.70224 0 0 0 1.25196,-1.361328 c 0.43091,-1.179318 0.8533,-2.366576 1.26171,-3.566406 a 3.70224,3.70224 0 0 0 -0.008,-2.173829 3.70224,3.70224 0 0 0 1.19141,-1.40625 c 0.38505,-1.202551 0.7557,-2.408857 1.11328,-3.617187 a 3.70224,3.70224 0 0 0 -0.0977,-2.173828 3.70224,3.70224 0 0 0 1.13086,-1.453125 c 0.33644,-1.220503 0.65611,-2.440214 0.96289,-3.660156 a 3.70224,3.70224 0 0 0 -0.18554,-2.169922 3.70224,3.70224 0 0 0 1.07031,-1.503907 c 0.28191,-1.22561 0.55269,-2.457109 0.80859,-3.697265 a 3.70224,3.70224 0 0 0 -0.27734,-2.152344 3.70224,3.70224 0 0 0 1.00781,-1.544922 c 0.23333,-1.243069 0.44943,-2.486001 0.6543,-3.726562 a 3.70224,3.70224 0 0 0 -0.36524,-2.148438 3.70224,3.70224 0 0 0 0.94141,-1.582031 c 0.18136,-1.249379 0.34926,-2.499104 0.50195,-3.751953 a 3.70224,3.70224 0 0 0 -0.45508,-2.126953 3.70224,3.70224 0 0 0 0.87696,-1.623047 c 0.12818,-1.2522 0.24425,-2.509005 0.3457,-3.767578 a 3.70224,3.70224 0 0 0 -0.54297,-2.105469 3.70224,3.70224 0 0 0 0.81055,-1.654297 c 0.0782,-1.259852 0.14188,-2.520184 0.19141,-3.78125 a 3.70224,3.70224 0 0 0 -0.62696,-2.082031 3.70224,3.70224 0 0 0 0.74024,-1.685547 c 0.0269,-1.26449 0.0388,-2.5239159 0.0391,-3.7792969 a 3.70224,3.70224 0 0 0 -0.5957,-1.8867187 3.70224,3.70224 0 0 0 0.55468,-1.8945313 c -0.0262,-1.2599011 -0.0671,-2.5202011 -0.12109,-3.78124998 a 3.70224,3.70224 0 0 0 -0.77734,-1.66992182 3.70224,3.70224 0 0 0 0.58007,-2.0937501 c -0.077,-1.2619089 -0.16904,-2.5221565 -0.27539,-3.7792968 a 3.70224,3.70224 0 0 0 -0.8457,-1.6347657 3.70224,3.70224 0 0 0 0.49414,-2.1171877 c -0.12887,-1.256727 -0.27284,-2.512061 -0.43164,-3.765625 a 3.70224,3.70224 0 0 0 -0.91211,-1.597656 3.70224,3.70224 0 0 0 0.40625,-2.136719 c -0.18081,-1.248389 -0.37562,-2.495588 -0.58594,-3.742187 a 3.70224,3.70224 0 0 0 -0.97656,-1.560547 3.70224,3.70224 0 0 0 0.31641,-2.150391 c -0.23265,-1.240148 -0.47866,-2.477327 -0.73828,-3.710937 a 3.70224,3.70224 0 0 0 -1.04102,-1.523438 3.70224,3.70224 0 0 0 0.22852,-2.166015 c -0.28398,-1.22626 -0.58216,-2.451174 -0.89258,-3.673828 A 3.70224,3.70224 0 0 0 533.38281,-39 a 3.70224,3.70224 0 0 0 0.13867,-2.169922 c -0.33406,-1.217584 -0.68184,-2.430152 -1.04296,-3.638672 a 3.70224,3.70224 0 0 0 -1.16211,-1.43164 3.70224,3.70224 0 0 0 0.0508,-2.169922 c -0.15165,-0.47603 -0.31462,-0.947647 -0.47071,-1.421875 z"
                         id="path7" /><path
                         style="color:#000000;fill:url(#linearGradient18);stroke-linecap:round;stroke-linejoin:round;stroke-miterlimit:8;stroke-dasharray:3.70224, 3.70224;-inkscape-stroke:none;paint-order:stroke fill markers"
                         d="M 518.18174,-71.311462 A 179.48794,179.48794 89.936584 0 1 536.39718,7.3813888 179.48794,179.48794 89.936584 0 1 356.90906,186.86951 179.48794,179.48794 89.936584 0 1 225.4608,129.12027 179.48794,179.48794 89.936584 0 0 386.66174,230.25933 179.48794,179.48794 89.936584 0 0 566.14984,50.771222 179.48794,179.48794 89.936584 0 0 518.18174,-71.311462 Z"
                         id="path8" /></g></g><g
                     id="Nube"
                     transform="matrix(0.29532877,0,0,0.22362819,318.20623,190.26979)"><path
                       id="path23"
                       style="fill:#00becf;stroke-width:107.173;stroke-linecap:round;stroke-linejoin:round;stroke-miterlimit:8;paint-order:stroke fill markers"
                       d="m 316.58247,-124.87952 a 73.801849,73.801849 0 0 1 -73.15486,73.799017 73.801849,73.801849 0 0 1 -74.43749,-72.505097 73.801849,73.801849 0 0 1 71.84975,-75.07024 73.801849,73.801849 0 0 1 75.69723,71.18889" /><path
                       id="path23-7"
                       style="fill:#00becf;stroke-width:151.566;stroke-linecap:round;stroke-linejoin:round;stroke-miterlimit:8;paint-order:stroke fill markers"
                       transform="matrix(0.9999904,-0.00438221,0,1,0,0)"
                       d="m 480.32808,-123.78416 a 147.60512,73.801849 0 0 1 -146.31114,73.799017 147.60512,73.801849 0 0 1 -148.87641,-72.505097 147.60512,73.801849 0 0 1 143.70089,-75.07024 147.60512,73.801849 0 0 1 151.39592,71.18889" /><path
                       id="path23-1"
                       style="fill:#00becf;stroke-width:107.173;stroke-linecap:round;stroke-linejoin:round;stroke-miterlimit:8;paint-order:stroke fill markers"
                       transform="matrix(0.85595604,-0.51704861,-0.93964324,-0.34215577,0,0)"
                       d="m 442.88568,-202.01184 a 73.801849,94.774315 0 0 1 -73.15487,94.77067 73.801849,94.774315 0 0 1 -74.43748,-93.10906 73.801849,94.774315 0 0 1 71.84975,-96.40315 73.801849,94.774315 0 0 1 75.69723,91.41883" /><path
                       id="path23-12"
                       style="fill:#00becf;stroke-width:107.997;stroke-linecap:round;stroke-linejoin:round;stroke-miterlimit:8;paint-order:stroke fill markers"
                       transform="matrix(0.99997243,0.00742491,-0.01337096,0.9999106,0,0)"
                       d="m 543.97899,-127.89732 a 86.149582,64.199371 0 0 1 -85.39435,64.196901 86.149582,64.199371 0 0 1 -86.89157,-63.071341 86.149582,64.199371 0 0 1 83.87088,-65.30273 86.149582,64.199371 0 0 1 88.36208,61.92639" /></g><g
                     id="Nube-2"
                     transform="matrix(0.29532877,0,0,0.22362819,151.77555,214.53395)"><path
                       id="path23-4"
                       style="fill:#00becf;stroke-width:107.173;stroke-linecap:round;stroke-linejoin:round;stroke-miterlimit:8;paint-order:stroke fill markers"
                       d="m 316.58247,-124.87952 a 73.801849,73.801849 0 0 1 -73.15486,73.799017 73.801849,73.801849 0 0 1 -74.43749,-72.505097 73.801849,73.801849 0 0 1 71.84975,-75.07024 73.801849,73.801849 0 0 1 75.69723,71.18889" /><path
                       id="path23-7-8"
                       style="fill:#00becf;stroke-width:151.566;stroke-linecap:round;stroke-linejoin:round;stroke-miterlimit:8;paint-order:stroke fill markers"
                       transform="matrix(0.9999904,-0.00438221,0,1,0,0)"
                       d="m 480.32808,-123.78416 a 147.60512,73.801849 0 0 1 -146.31114,73.799017 147.60512,73.801849 0 0 1 -148.87641,-72.505097 147.60512,73.801849 0 0 1 143.70089,-75.07024 147.60512,73.801849 0 0 1 151.39592,71.18889" /><path
                       id="path23-1-9"
                       style="fill:#00becf;stroke-width:107.173;stroke-linecap:round;stroke-linejoin:round;stroke-miterlimit:8;paint-order:stroke fill markers"
                       transform="matrix(0.85595604,-0.51704861,-0.93964324,-0.34215577,0,0)"
                       d="m 442.88568,-202.01184 a 73.801849,94.774315 0 0 1 -73.15487,94.77067 73.801849,94.774315 0 0 1 -74.43748,-93.10906 73.801849,94.774315 0 0 1 71.84975,-96.40315 73.801849,94.774315 0 0 1 75.69723,91.41883" /><path
                       id="path23-12-8"
                       style="fill:#00becf;stroke-width:107.997;stroke-linecap:round;stroke-linejoin:round;stroke-miterlimit:8;paint-order:stroke fill markers"
                       transform="matrix(0.99997243,0.00742491,-0.01337096,0.9999106,0,0)"
                       d="m 543.97899,-127.89732 a 86.149582,64.199371 0 0 1 -85.39435,64.196901 86.149582,64.199371 0 0 1 -86.89157,-63.071341 86.149582,64.199371 0 0 1 83.87088,-65.30273 86.149582,64.199371 0 0 1 88.36208,61.92639" /></g><g
                     id="Nube-2-2"
                     transform="matrix(0.29532877,0,0,0.22362819,285.14019,223.71458)"><path
                       id="path23-4-1"
                       style="fill:#00becf;stroke-width:107.173;stroke-linecap:round;stroke-linejoin:round;stroke-miterlimit:8;paint-order:stroke fill markers"
                       d="m 316.58247,-124.87952 a 73.801849,73.801849 0 0 1 -73.15486,73.799017 73.801849,73.801849 0 0 1 -74.43749,-72.505097 73.801849,73.801849 0 0 1 71.84975,-75.07024 73.801849,73.801849 0 0 1 75.69723,71.18889" /><path
                       id="path23-1-9-3"
                       style="fill:#00becf;stroke-width:115.699;stroke-linecap:round;stroke-linejoin:round;stroke-miterlimit:8;paint-order:stroke fill markers"
                       transform="matrix(0.77095515,-0.63688944,-0.89514766,-0.44576974,0,0)"
                       d="m 371.08742,-144.66263 a 81.938797,99.485313 0 0 1 -81.22048,99.481492 81.938797,99.485313 0 0 1 -82.64452,-97.737282 81.938797,99.485313 0 0 1 79.77147,-101.19512 81.938797,99.485313 0 0 1 84.04315,95.96303" /></g></g></g></g></g><text
             xml:space="preserve"
             style="font-size:117.924px;font-family:Stencil;-inkscape-font-specification:'Stencil, Normal';text-align:center;word-spacing:0px;text-anchor:middle;fill:#000000;stroke:#ffffff;stroke-width:3.82324;stroke-linecap:round;stroke-linejoin:round;stroke-miterlimit:8;paint-order:stroke fill markers"
             x="142.7982"
             y="266.07578"
             id="text3"><tspan
               sodipodi:role="line"
               id="tspan3"
               style="stroke-width:3.82324"
               x="142.7982"
               y="266.07578"></tspan></text></g></g></g></g></svg>
