<?xml version="1.0" encoding="UTF-8" standalone="no"?>
<!-- Created with Inkscape (http://www.inkscape.org/) -->

<svg
   width="142.7775mm"
   height="34.431587mm"
   viewBox="0 0 142.7775 34.431587"
   version="1.1"
   id="svg1"
   xml:space="preserve"
   inkscape:version="1.3 (0e150ed6c4, 2023-07-21)"
   sodipodi:docname="moon_logo.svg"
   inkscape:export-filename="moon_logo.svg"
   inkscape:export-xdpi="96"
   inkscape:export-ydpi="96"
   xmlns:inkscape="http://www.inkscape.org/namespaces/inkscape"
   xmlns:sodipodi="http://sodipodi.sourceforge.net/DTD/sodipodi-0.dtd"
   xmlns:xlink="http://www.w3.org/1999/xlink"
   xmlns="http://www.w3.org/2000/svg"
   xmlns:svg="http://www.w3.org/2000/svg"><sodipodi:namedview
     id="namedview1"
     pagecolor="#ffffff"
     bordercolor="#000000"
     borderopacity="0.25"
     inkscape:showpageshadow="2"
     inkscape:pageopacity="0.0"
     inkscape:pagecheckerboard="0"
     inkscape:deskcolor="#d1d1d1"
     inkscape:document-units="mm"
     inkscape:zoom="1.2825992"
     inkscape:cx="253.00187"
     inkscape:cy="96.678682"
     inkscape:window-width="1920"
     inkscape:window-height="991"
     inkscape:window-x="-9"
     inkscape:window-y="-9"
     inkscape:window-maximized="1"
     inkscape:current-layer="layer1" /><defs
     id="defs1"><linearGradient
       id="linearGradient16"
       inkscape:collect="always"><stop
         style="stop-color:#e1f9f2;stop-opacity:1;"
         offset="1"
         id="stop17" /><stop
         style="stop-color:#0706fe;stop-opacity:0;"
         offset="1"
         id="stop18" /></linearGradient><linearGradient
       id="swatch5"
       inkscape:swatch="solid"><stop
         style="stop-color:#ffffff;stop-opacity:1;"
         offset="0"
         id="stop6" /></linearGradient><linearGradient
       inkscape:collect="always"
       xlink:href="#linearGradient16"
       id="linearGradient18"
       x1="38.202953"
       y1="127.12866"
       x2="183.65533"
       y2="127.12866"
       gradientUnits="userSpaceOnUse" /></defs><g
     inkscape:label="Capa 1"
     inkscape:groupmode="layer"
     id="layer1"
     transform="translate(-41.332372,-221.28179)"><g
       id="LOGO_MOON"
       inkscape:export-filename="LOGO_MOON.png"
       inkscape:export-xdpi="160.10927"
       inkscape:export-ydpi="160.10927"
       transform="matrix(0.43078595,0,0,0.43078595,64.784336,136.27105)"><text
         xml:space="preserve"
         style="font-style:normal;font-variant:normal;font-weight:500;font-stretch:normal;font-size:48.0301px;font-family:Roboto;-inkscape-font-specification:'Roboto, Medium';font-variant-ligatures:normal;font-variant-caps:normal;font-variant-numeric:normal;font-variant-east-asian:normal;text-align:center;word-spacing:0px;text-anchor:middle;fill:#00becf;fill-opacity:1;stroke:#00becf;stroke-width:0.661832;stroke-linecap:round;stroke-linejoin:round;stroke-miterlimit:8;stroke-dasharray:none;stroke-opacity:1;paint-order:stroke fill markers"
         x="106.43752"
         y="269.33466"
         id="text1-5"
         inkscape:transform-center-x="1.4458688"
         inkscape:transform-center-y="-32.597482"
         transform="scale(1.0590356,0.9442553)"><tspan
           id="tspan1-4"
           style="font-style:normal;font-variant:normal;font-weight:500;font-stretch:normal;font-size:48.0301px;font-family:Roboto;-inkscape-font-specification:'Roboto, Medium';font-variant-ligatures:normal;font-variant-caps:normal;font-variant-numeric:normal;font-variant-east-asian:normal;stroke-width:0.661832"
           x="106.43752"
           y="269.33466"
           sodipodi:role="line">MOON</tspan></text><g
         id="g1"
         transform="matrix(0.2051885,0,0,0.22433648,79.059344,213.23836)"><g
           id="g21"
           transform="matrix(0.41785538,0,0,0.41785538,-10.335339,60.316215)"><g
             id="LOGO_1"><g
               id="g24"
               transform="translate(-98.319133,-115.13688)"
               inkscape:export-filename="g24.png"
               inkscape:export-xdpi="96"
               inkscape:export-ydpi="96"><g
                 id="g23"
                 transform="translate(-26.734363,193.61161)"
                 inkscape:label="g23"
                 style="display:inline"><path
                   style="display:inline;fill:#00becf;fill-opacity:1;stroke-width:2.14076"
                   d="m 366.96698,183.33479 c -1.54827,-1.54828 -2.16883,-12.95857 -2.16883,-39.8785 0,-37.70971 0,-37.70971 -5.42205,-42.27206 -8.57279,-7.213532 -7.23983,-8.926537 30.72503,-39.484504 26.99653,-21.729532 35.95439,-29.928524 36.03708,-32.984248 0.089,-3.289025 1.14674,-4.06655 5.53211,-4.06655 4.38888,0 5.4408,0.774913 5.5203,4.06655 0.0734,3.034766 9.24492,11.623997 36.14714,33.852027 38.79626,32.055484 38.73164,31.970958 30.6268,40.075785 -5.42207,5.42207 -5.42207,5.42207 -5.42207,41.97237 0,26.0182 -0.62496,37.17526 -2.16881,38.71913 -3.10786,3.10786 -126.29884,3.10786 -129.4067,0 z m 53.85922,-29.54965 c 0,-18.37305 0.68587,-25.81541 2.74633,-29.7999 2.25647,-4.36355 2.65945,-12.25073 2.2592,-44.218142 -0.48716,-38.90731 -0.48716,-38.90731 -32.6916,-12.435369 -31.00049,25.482312 -33.57063,28.481692 -25.63093,29.911545 3.46929,0.624781 3.63426,2.267738 4.10112,40.840956 0.48642,40.18995 0.48642,40.18995 24.85114,40.18995 24.36474,0 24.36474,0 24.36474,-24.48904 z m -37.95449,-0.81393 c 0,-9.03679 0,-9.03679 12.6515,-9.03679 12.65147,0 12.65147,0 12.65147,9.03679 0,9.03678 0,9.03678 -12.65147,9.03678 -12.6515,0 -12.6515,0 -12.6515,-9.03678 z m 0,-42.47286 c 0,-8.1331 0,-8.1331 12.6515,-8.1331 12.65147,0 12.65147,0 12.65147,8.1331 0,8.13309 0,8.13309 -12.65147,8.13309 -12.6515,0 -12.6515,0 -12.6515,-8.13309 z m 108.44136,28.13407 c 0,-39.64179 0,-39.64179 4.83083,-40.213667 8.62435,-1.020982 6.25843,-3.806027 -26.17323,-30.809988 -31.9746,-26.623357 -31.9746,-26.623357 -32.46175,12.221143 -0.40019,31.911342 0.003,39.792392 2.25921,44.155332 2.06044,3.98449 2.74634,11.42685 2.74634,29.7999 0,24.48904 0,24.48904 24.3993,24.48904 24.3993,0 24.3993,0 24.3993,-39.64176 z m -36.14712,14.33879 c 0,-9.03679 0,-9.03679 12.6515,-9.03679 12.65147,0 12.65147,0 12.65147,9.03679 0,9.03678 0,9.03678 -12.65147,9.03678 -12.6515,0 -12.6515,0 -12.6515,-9.03678 z m 0,-42.47286 c 0,-8.1331 0,-8.1331 12.6515,-8.1331 12.65147,0 12.65147,0 12.65147,8.1331 0,8.13309 0,8.13309 -12.65147,8.13309 -12.6515,0 -12.6515,0 -12.6515,-8.13309 z"
                   id="path22" /><path
                   style="display:inline;fill:#00becf;fill-opacity:1;stroke:none;stroke-width:70.2695;stroke-linecap:round;stroke-linejoin:round;stroke-miterlimit:8;stroke-dasharray:none;stroke-dashoffset:0;stroke-opacity:1;paint-order:stroke fill markers"
                   d="m 1171.2187,701.32256 c -3.6335,-7.02638 -13.1347,-10.96981 -23.5117,-9.75845 -3.3711,0.39352 -6.7594,0.75112 -7.5296,0.79467 -0.7701,0.0435 -2.8263,1.38165 -4.5692,2.97357 -1.7429,1.5919 -3.4226,2.89438 -3.7326,2.89438 -0.3101,0 -1.4235,-3.92147 -2.4743,-8.71438 -1.8242,-8.31988 -3.6576,-12.17495 -3.6576,-7.69065 0,1.15686 -0.5108,2.10338 -1.1352,2.10338 -0.731,0 -0.9101,-1.20011 -0.503,-3.37008 0.491,-2.61744 -0.4671,-6.09658 -4.2903,-15.57858 -5.3619,-13.29791 -7.6506,-20.87844 -9.3918,-31.1071 -0.6217,-3.65202 -1.4044,-7.55944 -1.7393,-8.68314 l -0.6089,-2.04309 -0.7986,2.04309 c -0.6847,1.75169 -0.8089,1.78578 -0.8704,0.23903 -0.039,-0.99223 -2.5609,-7.88767 -5.6032,-15.32319 -6.1554,-15.04443 -7.7951,-20.83628 -10.3341,-36.50391 -1.9232,-11.86792 -2.5069,-13.57315 -3.6483,-10.65843 -0.6745,1.72237 -0.7827,1.74639 -0.8453,0.18758 -0.04,-0.98324 -0.4823,-1.78771 -0.9839,-1.78771 -1.3015,0 -9.8992,-20.02515 -11.8804,-27.67098 -0.9166,-3.53714 -2.507,-11.97443 -3.5343,-18.74954 -1.0273,-6.77511 -3.5761,-18.75411 -5.664,-26.62002 -3.6358,-13.69742 -3.8164,-15.16482 -4.2739,-34.73256 -0.2627,-11.23701 -0.8963,-20.86764 -1.4081,-21.40139 -0.5118,-0.53376 -0.9305,-2.25742 -0.9305,-3.83035 0,-1.57293 -0.7431,-7.11226 -1.6513,-12.30963 -2.1155,-12.10691 -2.255,-25.47978 -0.4377,-41.97694 1.2101,-10.98495 1.2233,-13.64249 0.081,-16.34474 -0.7503,-1.7748 -1.5684,-5.3991 -1.818,-8.05397 -0.4202,-4.46765 1.0508,-21.09452 2.4423,-27.60704 1.1077,-5.18395 -2.1922,-3.11785 -12.8512,8.04621 -5.7004,5.9705 -10.4968,10.68238 -10.6587,10.47085 -0.1619,-0.21154 -2.0217,-3.60249 -4.1328,-7.53544 -2.1112,-3.93295 -4.4886,-7.82395 -5.2831,-8.64666 -1.2563,-1.30076 -1.4446,-1.08619 -1.4446,1.64547 0,1.72772 0.9517,7.80807 2.1151,13.5119 l 2.1151,10.37061 -4.863,6.62299 -4.8629,6.62299 -2.1704,-2.03894 c -1.1937,-1.12141 -2.5321,-2.03893 -2.9743,-2.03893 -0.4422,0 -0.4753,3.27359 -0.074,7.27465 1.0318,10.27349 -0.7444,9.08177 -7.805,-5.23671 -5.13628,-10.41603 -8.04135,-14.50853 -8.04135,-11.32819 0,0.60251 1.60015,8.74577 3.55589,18.09614 l 3.55586,17.00066 -4.69059,8.60507 c -4.34717,7.97499 -4.81914,8.4888 -6.44559,7.01688 -0.96522,-0.87351 -2.00307,-1.58821 -2.30632,-1.58821 -0.30327,0 -0.78588,3.3328 -1.07248,7.40621 -0.28661,4.07342 -1.05274,8.74272 -1.7025,10.37623 l -1.18141,2.97002 -5.32281,-7.82236 c -8.11836,-11.93071 -8.75081,-10.47854 -3.38223,7.76606 l 3.48184,11.83267 -5.04027,15.6589 c -6.40064,19.88523 -6.10057,19.12719 -6.80501,17.19122 -0.30666,-0.84278 -1.14582,-1.99201 -1.86479,-2.55387 -2.09599,-1.63794 -7.31849,-15.94126 -11.12892,-30.47975 -4.62778,-17.65701 -5.33436,-23.87335 -3.18583,-28.02813 2.16716,-4.19084 2.08978,-5.69157 -0.26177,-5.07662 -1.65215,0.43204 -1.99234,-0.26309 -2.49041,-5.08898 -0.68441,-6.63123 0.20055,-9.30696 5.32977,-16.11484 4.69448,-6.23085 6.59147,-9.67874 5.77459,-10.49562 -0.33878,-0.33877 -2.68859,0.39101 -5.22182,1.62175 -3.8375,1.8644 -4.70049,1.99109 -5.17312,0.75944 -0.65803,-1.71481 3.32681,-29.09334 4.79738,-32.96125 0.54512,-1.43378 1.89907,-3.88196 3.00878,-5.4404 2.1634,-3.03822 2.66286,-6.09354 0.99611,-6.09354 -0.56185,0 -1.02155,-0.89706 -1.02155,-1.99346 0,-4.41918 8.84239,-28.6408 14.70219,-40.27315 5.49195,-10.90212 6.71171,-12.61669 10.18078,-14.31073 3.17863,-1.55219 4.10251,-1.66374 4.77448,-0.57645 0.68675,1.11116 1.11628,1.11324 2.44339,0.0118 2.51897,-2.09056 1.8986,-4.14419 -1.45446,-4.81481 -3.10465,-0.62092 -3.90463,-1.76091 -2.04309,-2.9114 2.09385,-1.29408 -0.11542,-14.81536 -2.41975,-14.80947 -0.63561,0.002 -2.3049,2.18519 -3.70953,4.85235 -2.08693,3.96275 -3.12072,4.90492 -5.65422,5.15311 -5.90635,0.57862 -7.95994,-0.99076 -9.12253,-6.9716 -1.11681,-5.74528 -2.99029,-7.62359 -4.104,-4.11459 -0.36647,1.15463 -1.52341,2.09933 -2.57099,2.09933 -1.04758,0 -2.90263,1.40146 -4.12233,3.11438 -2.04191,2.86761 -2.63022,3.0902 -7.42447,2.80925 l -5.20682,-0.30513 -1.89512,-6.4511 c -2.31531,-7.88144 -4.10016,-7.8138 -4.97215,0.18843 -0.76011,6.9755 -1.43424,7.93239 -3.06576,4.35159 -1.66092,-3.64532 -3.76091,-3.38623 -4.15112,0.51215 -0.29575,2.95467 -0.83278,3.37019 -7.05708,5.46028 -3.70533,1.24423 -7.28642,2.60183 -7.95798,3.01688 -0.72835,0.45013 -2.05878,-0.3104 -3.29726,-1.88487 -2.95769,-3.7601 -3.81642,-3.30446 -4.17044,2.21285 l -0.31136,4.85234 -2.55387,-4.56082 c -1.40462,-2.50846 -3.01356,-4.46996 -3.57541,-4.35889 -0.56185,0.11107 -1.25139,2.93666 -1.53232,6.27908 l -0.51077,6.07712 -8.42776,7.81957 -8.42775,7.81956 v -5.23931 c 0,-7.14221 2.64926,-19.46442 6.1013,-28.37825 10.97581,-28.3417 39.34005,-52.37651 71.44753,-60.54203 23.78955,-6.05012 45.31022,-4.86044 68.53222,3.78852 12.246,4.56097 19.1837,7.99974 22.602,11.20305 1.475,1.38221 4.0634,2.73086 5.7521,2.99699 2.9908,0.47136 3.1957,0.22498 7.9165,-9.51833 2.7532,-5.68221 6.2252,-11.19761 8.0388,-12.76995 1.7559,-1.52225 2.5908,-2.78642 1.8553,-2.80925 -0.7355,-0.0228 -1.0485,-0.50871 -0.6956,-1.07973 0.3529,-0.57101 1.1477,-0.72545 1.7662,-0.34319 0.7193,0.4445 0.894,0.0941 0.4848,-0.97217 -0.7193,-1.87454 0.8201,-3.3585 1.8146,-1.74927 0.3529,0.57101 1.0781,1.03821 1.6116,1.03821 0.5334,0 0.4338,-0.8585 -0.2215,-1.90778 -0.6553,-1.04927 -0.8844,-2.70801 -0.509,-3.68608 0.6329,-1.64941 0.8641,-1.65921 3.1899,-0.13532 3.6392,2.3845 4.0204,2.03665 1.5578,-1.42165 -2.4453,-3.43416 -1.3262,-4.18022 1.5323,-1.02154 1.017,1.1237 2.3176,2.04309 2.8903,2.04309 0.5727,0 0.042,-1.06394 -1.1799,-2.36432 -2.707,-2.8815 -2.7699,-3.97324 -0.3547,-6.15897 1.7492,-1.58296 2.0172,-1.5287 4.2643,0.86322 3.4565,3.67935 4.7674,3.1478 1.5797,-0.64057 -3.174,-3.77212 -2.6068,-5.27757 0.7872,-2.08911 3.4969,3.2852 4.5964,2.69047 1.3297,-0.71925 l -2.8135,-2.93662 2.8778,-2.20197 c 1.5827,-1.21108 4.1418,-3.22239 5.6868,-4.46958 9.9946,-8.06817 24.6026,-14.02164 39.3297,-16.02881 17.7104,-2.41378 37.3662,3.18694 46.7357,13.31688 2.3777,2.57067 2.6067,3.13411 1.0215,2.51363 -1.1237,-0.43985 -3.1486,-1.03766 -4.4997,-1.32847 -2.1119,-0.45453 -2.3757,-0.21916 -1.8799,1.67706 0.7725,2.95379 -2.4166,4.61994 -7.1449,3.7329 -2.9491,-0.55325 -3.498,-0.39803 -3.0178,0.85335 1.0699,2.78817 -1.7263,3.87973 -5.3315,2.08123 -1.8048,-0.90033 -3.4394,-1.47407 -3.6325,-1.27499 -0.1931,0.19909 -0.6004,1.9597 -0.9051,3.91249 -0.3046,1.95278 -1.3448,4.12883 -2.3115,4.83568 -1.5189,1.11065 -2.086,0.80191 -4.1758,-2.27358 -1.33,-1.95732 -2.8614,-3.55875 -3.403,-3.55875 -0.5416,0 -0.9847,2.8383 -0.9847,6.30734 v 6.30735 l -2.5498,-2.39545 c -3.4252,-3.21778 -4.2177,-2.00858 -2.662,4.06158 0.712,2.77779 0.9577,5.59532 0.5462,6.26119 -0.9438,1.52714 4.4743,0.87013 17.9457,-2.17614 12.2019,-2.7592 39.3244,-3.84694 52.4312,-2.10275 49.2268,6.55085 92.3594,35.66263 119.5986,80.72142 2.7504,4.54969 4.7795,8.49342 4.5091,8.76384 -0.2705,0.27043 -4.8595,-2.42862 -10.1978,-5.99788 -5.3383,-3.56928 -12.5404,-8.00027 -16.0046,-9.84667 -3.4642,-1.84639 -6.2985,-3.66486 -6.2985,-4.04105 0,-0.37618 -0.6084,-1.51596 -1.3519,-2.53284 -1.1677,-1.59694 -1.6463,-1.66503 -3.5124,-0.49966 -1.797,1.12224 -2.6007,1.11361 -4.7773,-0.0513 -1.4393,-0.7703 -2.6169,-2.24224 -2.6169,-3.271 0,-2.17559 -2.8728,-2.53763 -3.6691,-0.46241 -0.4275,1.11391 -1.3811,1.19465 -4.5649,0.38651 -2.2135,-0.56185 -4.0246,-1.44522 -4.0246,-1.96305 0,-0.51782 -1.7239,-0.80668 -3.8308,-0.6419 -3.4416,0.26916 -3.9865,-0.0354 -5.3631,-2.99831 -1.9206,-4.13364 -3.578,-4.22647 -4.9547,-0.2775 -1.0119,2.90279 -1.3642,3.06464 -6.6711,3.06464 -4.7056,0 -5.7067,-0.32716 -6.2513,-2.04309 -0.8614,-2.71402 -6.6155,-2.93371 -6.6892,-0.25539 -0.027,0.98324 -1.4134,-0.85554 -3.081,-4.08618 -1.6675,-3.23064 -3.4267,-5.87389 -3.9093,-5.87389 -1.0096,0 -2.1544,4.98921 -2.1544,9.38876 0,3.94028 -1.681,6.95897 -3.8668,6.94389 -0.9634,-0.007 -4.2254,-2.99466 -7.2488,-6.64005 -3.0234,-3.64538 -5.8965,-6.62796 -6.3847,-6.62796 -1.3629,0 -1.0562,4.37282 0.6448,9.19391 2.1642,6.1341 1.9597,8.02618 -0.9464,8.75555 -1.3633,0.34217 -3.3109,1.54169 -4.328,2.6656 -2.0922,2.31179 -2.3589,1.99505 5.8661,6.96668 3.8657,2.33658 14.4721,14.00845 18.7132,20.59279 l 1.7492,2.71574 -3.3763,0.68056 c -1.8569,0.37429 -4.2049,0.91473 -5.2177,1.20096 -3.116,0.8806 -0.2403,2.99117 6.7113,4.92567 7.5716,2.10705 8.2519,2.60047 11.7017,8.48703 2.4089,4.1105 2.5007,4.63458 0.9627,5.49532 -2.3917,1.33842 -2.1148,2.74795 0.8006,4.07628 5.0457,2.29899 14.7306,26.08522 13.1634,32.32947 -0.4006,1.59636 -0.2543,2.30838 0.3923,1.90877 1.0138,-0.62659 2.3073,6.68056 2.3192,13.10197 0,2.68724 -0.3543,2.30986 -2.9183,-3.06464 -1.8226,-3.82038 -2.5829,-6.56329 -2.0184,-7.28144 0.5868,-0.74653 0.2687,-1.31976 -0.9036,-1.6282 -0.995,-0.26183 -4.2333,-4.57016 -7.196,-9.57407 -15.9169,-26.88262 -40.2801,-53.64579 -64.7736,-71.15428 -16.5773,-11.84982 -40.8085,-23.913 -46.1394,-22.96989 -2.5096,0.44397 -3.2089,0.0659 7.5051,4.05713 3.0902,1.15116 7.917,3.58167 10.7263,5.40113 2.8092,1.81946 9.1935,5.92167 14.1873,9.11602 13.4093,8.57752 22.1232,15.76816 36.4815,30.10444 14.4882,14.46587 25.0061,27.33932 37.6257,46.0521 4.7364,7.02313 8.9287,12.99917 9.3163,13.2801 0.3877,0.28093 2.2025,3.4988 4.033,7.15082 1.8305,3.65203 3.7846,6.93166 4.3425,7.28807 0.5578,0.35641 0.8324,1.19374 0.61,1.86074 -0.2307,0.69224 -3.9013,-1.70741 -8.5522,-5.59106 -4.4815,-3.74209 -9.8414,-8.02714 -11.911,-9.52234 -3.3658,-2.43164 -3.9888,-3.63495 -5.9037,-11.40169 -4.3688,-17.72019 -7.139,-19.15113 -7.1749,-3.7062 -0.014,5.98484 -0.019,5.99507 -2.3125,4.49229 -1.2641,-0.82841 -3.3482,-3.06804 -4.6313,-4.97694 -3.7387,-5.56219 -5.3161,-7.17452 -6.3775,-6.51856 -0.5469,0.33799 -0.9943,1.50302 -0.9943,2.58897 0,1.79564 -0.6725,1.64168 -7.4262,-1.70014 l -7.4262,-3.67457 -5.0878,-14.88448 c -5.2919,-15.48182 -8.5081,-20.25143 -7.3024,-10.82947 0.351,2.74302 0.9522,8.89472 1.336,13.67045 0.656,8.16331 0.5917,8.5955 -1.0741,7.21916 -0.9746,-0.80519 -2.6671,-3.21859 -3.7611,-5.36311 -1.0941,-2.14454 -2.2336,-3.89914 -2.5324,-3.89914 -0.2987,0 -1.0063,1.32855 -1.5723,2.95234 l -1.0292,2.95234 -6.563,-2.13378 -6.5629,-2.13378 -2.7097,-8.22477 c -5.469,-16.60057 -7.78,-17.57899 -7.3625,-3.11704 0.2757,9.54754 1.9453,8.93227 -15.905,5.86084 l -11.1321,-1.91546 -2.9747,-8.10197 c -4.4224,-12.04518 -5.7217,-12.58045 -7.0356,-2.89835 -0.8718,6.42392 -1.4468,7.4532 -3.1901,5.7099 -2.0116,-2.01162 -3.8649,-1.36667 -3.8649,1.34504 0,2.47802 -0.2099,2.55386 -7.0672,2.55386 -8.129,0 -10.2991,0.59802 -10.2991,2.83811 0,0.87889 -0.7861,2.4667 -1.747,3.52849 -1.1522,1.27316 -1.3768,2.17015 -0.6596,2.6343 1.1724,0.75875 2.6608,49.50246 1.6694,54.67415 -0.4229,2.20664 -1.0072,2.77469 -2.4625,2.39412 -1.5803,-0.41325 -1.908,0.0841 -1.908,2.8957 0,1.86705 -0.5746,3.61005 -1.2769,3.87332 -0.9484,0.35553 -0.86,0.83736 0.3438,1.87284 1.6782,1.44355 12.2571,43.03904 12.2005,47.97156 -0.017,1.45801 -0.9498,3.48296 -2.0735,4.4999 -1.1237,1.01694 -2.0431,2.66998 -2.0431,3.67345 0,1.00346 -0.4597,2.10858 -1.0215,2.45582 -1.6478,1.01837 -1.2218,3.87084 0.4805,3.21761 1.1328,-0.43469 2.0407,1.23368 3.693,6.78614 1.2051,4.0494 4.9238,14.94752 8.264,24.21805 3.3401,9.27053 6.0795,17.54505 6.0875,18.38783 0.037,3.90043 -1.8977,11.72651 -2.8537,11.54287 -0.5867,-0.11269 -2.6042,1.38132 -4.4832,3.32003 -4.1769,4.30948 -2.3685,4.58346 3.5185,0.53307 l 4.3485,-2.99186 2.8222,5.80111 c 1.5522,3.19061 5.5296,10.7391 8.8387,16.77441 6.6186,12.07144 7.6162,14.84582 6.548,18.21135 -0.6052,1.90693 -1.3188,0.98207 -4.5556,-5.90397 -3.1441,-6.6889 -11.5127,-22.0219 -12.9387,-23.70633 -0.1982,-0.2341 -0.646,-0.13993 -0.9952,0.20926 -0.3492,0.3492 1.4616,4.2183 4.0239,8.59801 2.5624,4.37971 6.3488,11.52978 8.4142,15.88903 3.0598,6.45802 3.522,8.20697 2.4959,9.44344 -0.6927,0.83463 -1.014,2.78431 -0.714,4.33262 0.3516,1.81481 -0.059,3.50735 -1.1568,4.76321 -1.6159,1.84946 -1.5873,1.91934 0.5665,1.38038 2.0629,-0.51623 3.2901,1.40777 13.5355,21.22169 10.2517,19.82621 12.4609,25.50333 10.635,27.32931 -0.3476,0.34755 -2.4456,-3.13847 -4.6622,-7.74672 -5.8563,-12.17464 -16.4924,-31.36342 -17.3844,-31.36342 -1.2703,0 0.8687,4.59631 7.4246,15.95401 11.6087,20.1115 14.9098,29.50962 11.6358,33.12732 -2.256,2.49288 -1.1433,3.94524 1.3168,1.71883 1.6891,-1.5286 2.4058,-0.4281 11.885,18.25023 9.1899,18.10806 10.0368,20.25553 9.5169,24.13145 -0.4378,3.26422 -0.1711,4.5514 1.146,5.52989 1.4314,1.06343 1.5059,1.62048 0.4487,3.35237 -0.9731,1.59408 -0.9944,2.67741 -0.091,4.65918 1.5468,3.3949 3.1162,3.32194 2.2561,-0.1049 -1.0987,-4.3777 0.8123,-2.65145 10.8908,9.83787 5.2141,6.46128 11.4881,13.99522 13.9424,16.74208 2.4542,2.74688 36.9599,5.18612 36.7255,5.42054 -0.2344,0.23442 -39.7172,1.08097 -47.7856,1.8812 -8.0684,0.80024 -16.6168,1.68407 -18.9964,1.96407 -3.9752,0.46776 -4.4521,0.26628 -5.8728,-2.48113 z m -1.7527,-24.62735 c 0.3124,-3.72414 -2.9027,-9.40441 -4.4504,-7.86262 -0.4093,0.40781 -0.223,1.3695 0.414,2.13708 1.2682,1.52809 0.5835,2.73995 -1.5481,2.73995 -0.7492,0 -1.3621,-0.68954 -1.3621,-1.53232 0,-0.84277 -0.4597,-1.53232 -1.0215,-1.53232 -1.8039,0 -1.0907,4.7443 1.1394,7.57943 3.1396,3.99137 6.4274,3.25511 6.8287,-1.5292 z m -77.6376,-229.97312 c 2.8911,-2.89109 0.7244,-14.09734 -2.7257,-14.09734 -3.4318,0 -4.2625,5.69319 -1.7191,11.78059 1.5823,3.78675 2.4977,4.2639 4.4448,2.31675 z m -124.40864,-43.2114 c 1.86252,-23.21247 9.43574,-63.67119 11.34113,-60.5882 0.43487,0.70365 0.95445,1.06282 1.15463,0.79817 0.20016,-0.26465 2.75962,-7.71345 5.68769,-16.55287 2.92807,-8.83944 8.4791,-23.54971 12.33561,-32.68948 3.85648,-9.13978 7.36438,-17.76342 7.79528,-19.16364 0.7171,-2.33003 0.6331,-2.42107 -0.9901,-1.07395 -5.68374,4.71711 -18.27216,32.1516 -25.52368,55.62492 -9.4067,30.44972 -13.75985,56.80337 -14.35847,86.92515 -0.42949,21.61155 -0.10765,19.94067 2.55791,-13.2801 z m 117.86364,-21.53602 c 1.1246,-2.93074 0.6457,-10.21716 -0.8017,-12.19657 -1.208,-1.65204 -1.6688,-1.73939 -3.0647,-0.58095 -1.8905,1.56903 -2.2549,9.29791 -0.5853,12.41746 1.2788,2.38961 3.6008,2.57742 4.4517,0.36006 z m 3.71,-65.3619 c 1.5892,-4.18004 1.2453,-10.62827 -0.6048,-11.33821 -2.597,-0.99658 -3.8565,1.27662 -4.3293,7.81409 -0.4152,5.74 -0.3003,6.14449 1.7467,6.14449 1.4121,0 2.5453,-0.93165 3.1874,-2.62037 z m -29.8173,-6.31816 c 0.5609,-2.50642 0.5856,-4.34157 0.059,-4.34157 -0.5022,0 -0.913,-1.05168 -0.913,-2.33706 0,-2.7387 -5.5452,-9.78873 -6.7603,-8.59488 -0.4567,0.44871 -0.01,4.80901 0.9962,9.68956 2.6102,12.68086 4.646,14.39843 6.6185,5.58395 z m 18.6429,-8.93852 c 3.8247,-3.09018 7.4821,-5.61851 8.1276,-5.61851 0.6456,0 2.5156,0.95546 4.1556,2.12325 1.64,1.16781 3.532,1.9399 4.2043,1.71578 1.6263,-0.54208 -6.3036,-5.88212 -8.7349,-5.88212 -1.0453,0 -5.1316,2.51046 -9.0805,5.57881 l -7.18,5.5788 -1.8853,-2.25878 c -2.0591,-2.46698 -2.6517,-0.87567 -0.8958,2.40533 1.6559,3.09412 3.8123,2.39835 11.289,-3.64256 z m -60.7109,-38.36006 c 6.3419,-5.54968 15.5079,-10.42063 22.8542,-12.14502 2.5127,-0.58982 9.6252,-1.39004 15.8055,-1.77826 9.8314,-0.61758 10.7259,-0.8186 7.1509,-1.60704 -8.9083,-1.96461 -30.4352,2.56693 -39.4915,8.31318 -7.6331,4.84317 -15.3433,12.37695 -12.6668,12.37695 0.2482,0 3.1047,-2.32191 6.3477,-5.15981 z"
                   id="path19"
                   transform="scale(0.26458333)"
                   sodipodi:nodetypes="sssssssssssscscssscsssssssssssssssssscccsscssscssssscsscssssssssssssssssssssscssssssscsssssssscssscccsssssssssssssssssssscssssscsssssssssssssssscsssssssssssssssssssssssssscssssssscsssssssscssscsssssssssssssssssssscssssssscccssscssssssssssssscsssssssssscsssssssssscsssssssssssscsssssssssssssssssssssssssssssssssssssssscssscccsssssscssssssssss" /><path
                   style="display:inline;fill:#00becf;fill-opacity:1;stroke:none;stroke-width:35.1347;stroke-linecap:round;stroke-linejoin:round;stroke-miterlimit:8;stroke-dasharray:none;stroke-dashoffset:0;stroke-opacity:1;paint-order:stroke fill markers"
                   d="m 1176.3103,747.48285 c -15.4843,-0.87292 -37.0088,-5.32665 -49.4339,-10.22855 -5.7387,-2.26403 -12.2438,-5.59166 -16.5018,-8.4414 -4.2582,-2.84993 -12.1414,-10.121 -11.5871,-10.68744 0.4453,-0.45517 27.5558,-5.29061 29.8307,-5.32062 0.8786,-0.0116 1.8764,0.31501 2.2173,0.72579 1.4189,1.70976 9.977,3.85008 15.3944,3.85008 3.2978,0 2.0573,-0.5348 -3.5958,-1.55016 -5.9807,-1.0742 -10.2975,-2.88593 -11.5951,-4.86642 -0.5304,-0.80942 -1.0715,-2.94082 -1.2767,-5.02811 -0.1958,-1.99271 -1.2746,-6.5007 -2.3974,-10.01776 -2.4608,-7.70807 -2.99,-10.20547 -2.1627,-10.20547 0.8285,0 1.8125,2.56349 3.3703,8.78033 1.3895,5.54518 2.1441,7.32223 2.6158,6.15978 0.1425,-0.35116 0.5055,-0.63847 0.8068,-0.63847 0.3012,0 1.3176,-0.5873 2.2587,-1.30511 5.1676,-3.9415 13.4273,-5.99475 20.014,-4.97522 6.7407,1.04337 12.6008,4.65621 15.4432,9.52103 3.6345,6.22041 -6e-4,10.29241 -11.0238,12.34872 -5.2243,0.97457 -7.1474,1.74711 -4.3402,1.74351 3.2785,-0.004 9.5677,-1.3802 12.6683,-2.77166 3.6343,-1.63097 5.7025,-3.6279 6.1776,-5.96461 0.3264,-1.6054 0.5174,-1.73498 3.3916,-2.30052 1.6752,-0.32961 10.8606,-1.42148 20.4121,-2.42638 9.5514,-1.0049 18.4006,-2.07476 19.6647,-2.37747 2.5449,-0.60937 21.9317,-0.78321 24.4975,-0.21967 1.248,0.2741 1.5442,0.55245 1.2794,1.20205 -1.8829,4.61879 -1.1074,8.41885 2.5005,12.25364 1.8911,2.00997 3.9055,3.15234 5.536,3.13949 0.88,-0.007 0.4861,-0.38879 -1.5702,-1.5223 -3.7237,-2.0526 -4.1667,-2.4718 -5.2902,-5.006 -2.3071,-5.20368 2.4786,-12.12613 11.0463,-15.97829 3.875,-1.74227 5.1393,-2.91362 2.4795,-2.29729 -1.2849,0.29775 -4.7048,1.93841 -10.929,5.24311 -1.3054,0.69312 -2.96,1.1852 -3.6769,1.09351 -1.1532,-0.14748 -0.6734,-0.66943 4.1612,-4.52716 4.9679,-3.96405 5.8693,-4.9624 9.9159,-10.98162 3.1413,-4.67266 4.4221,-7.02004 4.3522,-7.9766 -0.1706,-2.3349 5.7713,-10.71215 14.4358,-20.35241 5.9074,-6.57273 7.3794,-9.47365 5.1087,-10.06747 -1.2513,-0.3272 -1.2558,-0.17788 0.084,-2.74835 0.8911,-1.70958 0.9901,-2.30581 0.5108,-3.07344 -0.3272,-0.52381 -0.5948,-1.31385 -0.5948,-1.75563 0,-0.45927 -0.2432,-0.65294 -0.5679,-0.45226 -0.7588,0.46894 -1.4578,-0.72169 -1.4674,-2.49945 -0.01,-1.19668 11.2303,-24.09446 12.8703,-26.22642 0.3444,-0.44779 0.8294,-0.38603 1.9303,0.24579 1.9992,1.14738 2.636,0.29702 0.8979,-1.199 -1.4376,-1.23733 -1.8034,-2.48361 -0.8939,-3.04569 0.7891,-0.48771 0.6034,-1.7877 -0.2554,-1.7877 -1.4918,0 -0.8837,-4.67102 1.7425,-13.38445 1.3798,-4.57787 3.0175,-10.23318 3.6395,-12.56735 0.8438,-3.16663 1.3139,-4.17366 1.8522,-3.9671 0.3968,0.15227 0.869,-0.10773 1.0494,-0.57777 0.1804,-0.47004 0.061,-0.94366 -0.2657,-1.05249 -0.3265,-0.10883 -0.8256,-1.05963 -1.1093,-2.11288 -0.3154,-1.17141 -1.0025,-2.17561 -1.7696,-2.58613 -0.6897,-0.36911 -1.3962,-1.04103 -1.57,-1.49315 -0.1738,-0.45213 0.6553,-5.8787 1.8424,-12.05905 1.6564,-8.62423 2.3768,-11.39995 3.0981,-11.93778 1.1373,-0.84805 1.2165,-1.89302 0.1737,-2.29319 -0.4214,-0.1617 -0.7662,-0.90296 -0.7662,-1.64723 0,-0.77525 -0.6545,-2.09863 -1.5323,-3.09844 -1.7953,-2.04472 -1.7612,-1.33149 -0.7662,-16.01132 0.4094,-6.03989 0.7574,-11.55624 0.7734,-12.25855 l 0.029,-1.27693 0.7299,1.27693 0.73,1.27693 0.018,-1.85286 c 0.01,-1.04347 -0.3166,-2.13061 -0.7481,-2.48871 -0.4214,-0.34972 -0.7661,-0.83034 -0.7661,-1.06805 0,-0.23771 0.3447,-0.2999 0.7661,-0.1382 0.496,0.19031 0.7662,-0.0124 0.7662,-0.57462 0,-0.47775 -0.4452,-0.98506 -0.9894,-1.12737 -1.4927,-0.39033 -1.994,-2.4934 -3.3857,-14.20207 -0.7012,-5.89975 -1.3983,-11.12905 -1.549,-11.62067 -0.1785,-0.58222 -0.7893,-0.89385 -1.752,-0.89385 -0.8417,0 -1.9064,-0.4598 -2.473,-1.06795 -1.3471,-1.44602 -2.8028,-1.08083 -3.1271,0.78448 l -0.2593,1.49177 -3.1233,-3.49452 c -2.3203,-2.59598 -3.3496,-3.40771 -4.0032,-3.15689 -1.0186,0.39084 -0.869,1.96612 0.8317,8.76313 l 1.0225,4.08619 -5.7916,5.45814 c -3.1854,3.00198 -6.3167,5.7458 -6.9586,6.09738 -1.4942,0.81853 -2.2826,0.0591 -5.331,-5.13531 -1.2249,-2.08738 -2.505,-3.88786 -2.8446,-4.00105 -1.0652,-0.35506 -0.6922,3.84021 0.8945,10.06151 l 1.4897,5.84062 -1.9603,2.33175 c -1.0782,1.28246 -2.5192,2.85247 -3.2022,3.48891 l -1.2419,1.15717 -0.9317,-1.02948 c -1.7631,-1.94822 -2.4089,-1.33921 -2.2934,2.16286 0.058,1.75578 0.071,3.65203 0.029,4.21388 -0.073,0.98126 -0.1137,0.97597 -1.0396,-0.13411 -0.5302,-0.63562 -2.1611,-3.39379 -3.6243,-6.12928 -5.6572,-10.57641 -6.4748,-8.98643 -2.8101,5.46447 0.9976,3.93378 1.8137,7.56159 1.8137,8.0618 -10e-5,0.92308 -4.8166,8.82647 -5.3791,8.82647 -0.1686,0 -0.7757,-0.25114 -1.3493,-0.55809 -1.6396,-0.87749 -2.0174,0.0257 -2.1177,5.06337 -0.055,2.74661 -0.3367,4.88303 -0.6914,5.23726 -0.6701,0.66938 -1.2501,0.15747 -5.4387,-4.80044 -4.1534,-4.91622 -4.443,-3.146 -1.0821,6.61336 l 2.3295,6.76424 -3.1813,9.7776 c -1.8828,5.78664 -3.3339,9.50114 -3.5553,9.10029 -1.6087,-2.91318 -2.3611,-34.06276 -1.0898,-45.11457 1.4263,-12.39913 4.1059,-24.58528 7.8618,-35.75411 2.2375,-6.65365 5.359,-13.53549 6.1394,-13.53549 0.2686,0 0.3933,-0.28526 0.2771,-0.6339 -0.1162,-0.34865 0.037,-0.91529 0.3405,-1.25921 1.5797,-1.79009 1.7931,-2.20243 1.5149,-2.92748 -0.1756,-0.4575 0.027,-0.91574 0.4809,-1.09009 0.4517,-0.17333 0.7673,-0.88245 0.7448,-1.67357 -0.153,-5.3825 12.8693,-18.40124 21.5852,-21.57921 3.038,-1.10772 3.9403,-1.99369 2.0304,-1.99369 -1.4227,0 -4.8443,1.42356 -8.4381,3.51074 -17.9841,10.44461 -32.6947,47.22507 -34.959,87.40685 -0.4642,8.23733 -0.273,15.29216 0.7266,26.81559 l 0.3102,3.57541 -1.5342,-2.80925 c -5.9098,-10.82096 -9.7499,-26.62061 -7.4485,-30.64638 1.0728,-1.87669 0.9304,-2.46711 -0.6385,-2.64764 -1.2816,-0.14746 -1.4445,-0.41298 -1.8601,-3.03064 -0.2506,-1.57797 -0.3169,-3.41675 -0.1474,-4.08619 0.1695,-0.66944 1.811,-3.09317 3.6479,-5.38609 4.6521,-5.80727 4.3483,-6.97912 -1.2384,-4.77704 l -2.5728,1.01409 v -1.24332 c 0,-1.70133 1.428,-12.63364 2.1193,-16.22521 0.3237,-1.68135 1.2981,-4.06695 2.2904,-5.60715 0.95,-1.47442 1.6495,-2.91571 1.5547,-3.20288 -0.095,-0.28716 -1.9097,-0.58879 -4.033,-0.67027 l -3.8606,-0.14815 -0.8466,-3.37036 c -2.0566,-8.18761 -3.7193,-8.33119 -4.858,-0.41952 -0.6767,4.70202 -1.4139,6.89543 -2.3175,6.89543 -0.3484,0 -2.2073,-1.60893 -4.131,-3.57541 -4.6272,-4.73007 -5.0385,-4.6882 -4.6845,0.47676 l 0.2777,4.05216 -1.2112,-0.55185 c -1.5406,-0.70196 -2.5305,0.0423 -2.9684,2.23187 -0.3654,1.82688 -3.3426,4.86696 -5.0392,5.14563 -0.6329,0.10395 -2.0035,-0.22474 -3.0458,-0.73044 -2.9022,-1.40808 -3.0535,-1.28817 -2.8681,2.27289 0.1635,3.14047 0.1401,3.20478 -1.4417,3.95849 -0.8843,0.42139 -2.0152,1.5186 -2.5131,2.43824 -1.01,1.86554 -3.6056,3.69104 -5.2481,3.69104 -0.9225,0 -1.0326,0.21809 -0.771,1.52635 0.3968,1.984 -0.8258,3.85843 -3.1501,4.82958 -1.4463,0.60435 -1.7776,1.01695 -1.7776,2.21406 0,0.8092 -1.732,5.01401 -3.8489,9.34399 -2.1169,4.32999 -4.5874,9.81699 -5.49,12.19333 -1.4987,3.9454 -1.6693,4.1897 -1.9646,2.81293 -0.629,-2.93206 -0.4287,-20.37434 0.2959,-25.76942 1.7169,-12.78427 5.0144,-23.80313 10.4703,-34.98795 6.0289,-12.35939 12.8043,-21.71138 22.5863,-31.17561 11.957,-11.56853 24.2117,-19.17471 40.335,-25.03478 7.0317,-2.55567 7.605,-2.91621 6.6828,-4.20258 -0.9846,-1.37355 -1.5641,-2.74154 -2.1578,-5.09367 -0.6979,-2.76514 -2.2816,-3.05133 -2.8265,-0.51078 -0.5791,2.7001 -0.7856,2.662 -2.516,-0.46417 -1.8838,-3.40341 -3.1374,-4.05034 -3.6202,-1.86824 -0.6553,2.96166 -1.0803,3.93432 -1.9514,4.46671 -0.9317,0.56943 -1.1411,0.39152 -3.5396,-3.00791 -1.1679,-1.65523 -2.5579,-1.06748 -3.4753,1.46953 -0.7333,2.02802 -2.7657,2.82152 -3.1789,1.24118 -0.3404,-1.30148 -1.47,-1.18002 -3.1033,0.33369 -1.7844,1.65367 -4.9006,1.81607 -4.9006,0.25539 0,-1.52717 -1.292,-1.23401 -2.7453,0.62288 -0.7078,0.90444 -1.4255,1.50592 -1.5948,1.33661 -0.5722,-0.57226 1.7309,-6.12647 4.17,-10.05645 3.1008,-4.996 11.2547,-13.28461 14.8378,-15.08287 3.0883,-1.54991 4.5462,-1.6725 5.8507,-0.49196 1.1181,1.01192 1.2398,0.26492 0.1841,-1.13078 -1.001,-1.32343 -0.9666,-1.75763 0.1392,-1.75763 1.0638,0 5.1197,2.47222 6.1872,3.77145 0.7948,0.96716 2.5959,2.0628 2.5959,1.57906 0,-0.16716 -1.1622,-1.53277 -2.5826,-3.03469 -1.7127,-1.81091 -2.3815,-2.85506 -1.9855,-3.09981 0.3284,-0.20298 2.2376,-0.81669 4.2426,-1.3638 5.4193,-1.47873 15.6659,-1.79135 22.3655,-0.68235 10.3777,1.71786 22.7081,6.56099 32.668,12.83136 5.8205,3.66432 6.6416,3.63817 8.6167,-0.27437 15.1958,-30.10268 42.1605,-48.01975 72.2855,-48.03112 10.6997,-0.004 19.5803,2.09875 29.2742,6.93167 7.3612,3.66989 11.9364,6.9335 17.4751,12.46527 4.6862,4.68043 9.3241,10.58483 7.8778,10.02915 -1.579,-0.6067 -7.3421,-1.74129 -10.8367,-2.13348 -3.0778,-0.3454 -3.2827,-0.45975 -5.329,-2.97384 -4.1459,-5.09374 -4.9035,-5.15954 -5.1101,-0.44384 l -0.151,3.44772 -1.411,-2.17079 c -1.7707,-2.72411 -2.7314,-2.76413 -3.4372,-0.1432 -0.4864,1.80631 -0.7811,2.0882 -2.7012,2.58303 -1.1854,0.3055 -3.6806,0.96246 -5.5448,1.45992 l -3.3895,0.90447 -0.8533,-1.44441 c -0.4709,-0.7972 -1.298,-1.44441 -1.8459,-1.44441 -0.8209,0 -0.9926,0.36074 -0.9926,2.08566 0,1.14711 -0.1957,2.00904 -0.4349,1.9154 -0.2392,-0.0936 -1.4593,-1.43385 -2.7113,-2.97824 -2.6911,-3.31958 -4.0047,-3.86151 -4.0047,-1.65222 0,0.81872 0.3423,2.6169 0.7607,3.99594 0.4183,1.37904 0.759,2.85212 0.757,3.27351 0,0.82662 -4.6234,4.08618 -5.7909,4.08618 -0.3904,0 -1.5349,-0.34477 -2.5434,-0.76615 -2.413,-1.00823 -2.888,-0.96746 -2.888,0.24787 0,1.01115 0,1.01115 -1.6601,0.002 -0.913,-0.55667 -1.8324,-1.01298 -2.0431,-1.01403 -0.75,-0.004 -0.3658,2.96807 0.7223,5.58628 l 1.1054,2.65978 -2.54,2.54003 -2.5401,2.54002 -3.5372,-2.06705 c -4.5512,-2.65954 -5.0562,-2.6623 -4.6345,-0.0254 0.5523,3.45427 2.5484,7.35314 4.1346,8.07582 l 1.4271,0.65023 -1.0911,1.16142 c -1.0516,1.11932 -1.5142,3.39406 -0.6903,3.39406 0.2204,0 1.7581,-0.47708 3.4171,-1.06017 3.6558,-1.28492 5.182,-1.07197 9.7731,1.36362 6.8574,3.63792 20.2319,13.25574 25.3299,18.21515 1.8296,1.77989 2.3763,2.66805 2.2985,3.73405 -0.089,1.22339 0.2667,1.58842 2.8418,2.91283 1.6193,0.83278 4.4924,3.0478 6.3847,4.92227 3.1636,3.13367 12.3792,13.9499 12.3792,14.52926 0,0.13734 -1.5123,0.41166 -3.3606,0.60959 -3.544,0.37953 -4.654,1.27573 -3.0409,2.45522 0.4826,0.35289 2.6375,1.30041 4.7887,2.10559 6.8948,2.58069 7.5046,3.01013 9.8278,6.92057 1.9922,3.35338 2.0783,3.65212 1.3008,4.51129 -1.1885,1.31324 -1.0382,1.98408 0.6388,2.85128 2.1455,1.1095 3.9061,3.42456 6.181,8.12756 3.4036,7.03629 6.7269,18.43398 7.9156,27.14724 l 0.3484,2.55387 -1.6451,-3.06464 c -4.6134,-8.5943 -15.3284,-24.6376 -22.1819,-33.2124 -22.2898,-27.88778 -68.0273,-62.6384 -77.6347,-58.98565 -1.8667,0.70969 -1.3032,1.17063 2.7959,2.28717 4.2798,1.16575 8.6562,3.10899 9.8234,4.36181 0.5061,0.54317 4.6522,3.50907 9.2136,6.59089 18.4218,12.44635 35.5884,27.52895 51.341,45.10847 2.9525,3.29482 5.8249,6.13559 6.3833,6.31281 0.7091,0.22506 0.8279,0.43802 0.3939,0.70622 -0.4426,0.27356 -0.2706,0.66145 0.5982,1.34878 0.6707,0.53064 1.3724,1.36703 1.5593,1.85865 0.1869,0.49162 0.54,0.89385 0.7846,0.89385 0.6865,0 5.7365,7.23336 11.6606,16.70197 2.9529,4.71971 5.7128,8.96203 6.1331,9.42737 0.4235,0.46891 0.6912,1.51911 0.6005,2.35584 -0.1629,1.50307 -0.193,1.48521 -6.8037,-4.04075 -3.652,-3.05277 -7.8051,-6.39524 -9.2291,-7.4277 -2.4792,-1.79754 -2.6397,-2.06298 -3.7817,-6.25464 -2.7768,-10.19191 -4.4267,-14.18116 -5.4442,-13.16362 -0.1908,0.1908 -0.5985,2.98777 -0.906,6.21547 l -0.5591,5.86855 -1.6151,-1.26768 c -0.8883,-0.69723 -2.6745,-2.87579 -3.9693,-4.84125 -2.5515,-3.87279 -4.0913,-4.629 -4.6767,-2.29663 -0.1763,0.70232 -0.468,1.27523 -0.6482,1.27313 -0.1803,-0.002 -2.8262,-1.43864 -5.8798,-3.19233 l -5.5522,-3.18853 -3.1765,-8.42775 c -4.5114,-11.96949 -5.0251,-13.03567 -6.3279,-13.13381 -0.8787,-0.0662 -1.0571,0.14407 -0.8782,1.03456 0.8703,4.33021 2.4725,16.2161 2.2199,16.46863 -0.6789,0.6789 -2.4517,-0.93491 -3.8136,-3.47148 -1.618,-3.01368 -3.2242,-3.85336 -3.2242,-1.68548 0,0.7323 -0.3571,1.46743 -0.7943,1.63519 -0.4368,0.16763 -2.9077,-0.47366 -5.4908,-1.42509 l -4.6966,-1.72986 -2.9292,-7.37588 c -4.4542,-11.2155 -5.6422,-11.5432 -5.133,-1.41583 l 0.3042,6.05067 -1.4841,-0.37191 c -0.8163,-0.20456 -5.6031,-1.42461 -10.6373,-2.71124 l -9.1533,-2.33932 -2.1491,-5.22995 c -2.4351,-5.92586 -3.5211,-7.79476 -4.5294,-7.79476 -0.911,0 -1.3129,1.11533 -1.3492,3.74488 -0.016,1.17095 -0.1886,3.01557 -0.3831,4.09916 l -0.3537,1.97014 -0.973,-1.07629 c -0.5351,-0.59196 -1.512,-1.07629 -2.1708,-1.07629 -0.9805,0 -1.1977,0.26804 -1.1977,1.47767 0,1.74685 -0.6905,2.09774 -4.128,2.09774 -2.1853,0 -2.5121,0.13511 -2.5121,1.03852 0,0.57119 0.5486,2.12267 1.2191,3.44772 2.8003,5.5344 6.158,16.73568 7.9948,26.67091 0.5453,2.94972 1.8869,8.00637 2.9812,11.23701 2.4608,7.26435 3.2335,11.77646 3.3179,19.3761 0.055,4.93735 -0.1021,6.26189 -0.956,8.06782 -0.5878,1.24341 -1.2925,2.06335 -1.66,1.93144 -0.9191,-0.33002 -0.8133,0.3634 0.8489,5.55976 3.0214,9.44588 3.422,12.9386 2.774,24.18473 -0.2728,4.73496 -0.4519,5.64373 -1.0192,5.17288 -1.0198,-0.8463 -0.8799,1.94916 0.3609,7.21549 1.5547,6.5984 1.8422,15.03171 0.7326,21.49212 -0.5029,2.9279 -0.9371,6.87487 -0.965,8.77102 -0.028,1.89617 -0.223,3.44764 -0.4337,3.44772 -0.2107,9e-5 -0.3831,-0.39058 -0.3831,-0.86815 0,-0.59652 -0.1649,-0.70341 -0.5268,-0.34149 -0.2898,0.28976 -0.8694,3.7872 -1.288,7.77209 -0.9391,8.93923 -2.8549,16.50664 -6.8345,26.99631 -1.6838,4.43817 -3.3397,9.10372 -3.6798,10.36788 -0.6104,2.26899 -0.6224,2.27882 -0.9335,0.76616 -0.2934,-1.42616 -0.3532,-1.46155 -0.8637,-0.51077 -0.3017,0.56185 -1.3043,3.32002 -2.228,6.12927 -3.387,10.30118 -8.3388,20.09443 -12.4756,24.67344 -2.1628,2.3939 -4.3686,7.01267 -4.7596,9.96591 -0.1555,1.17498 -1.3112,4.54971 -2.5682,7.49943 -1.2569,2.94971 -2.3124,6.05266 -2.3455,6.89543 -0.056,1.42299 0.1403,1.59645 2.7491,2.43104 21.5787,6.90331 33.0717,11.07333 45.195,16.39822 l 4.0778,1.79108 -2.4987,1.07106 c -17.0538,7.31011 -86.0542,18.07696 -124.4116,19.41321 -16.2864,0.56737 -30.5568,0.56009 -40.8618,-0.0208 z m 115.7419,-44.21665 c 1.9439,-4.39535 5.4883,-15.5037 5.0776,-15.91336 -0.3122,-0.31148 -1.0412,0.40855 -3.2906,3.25008 -0.2388,0.30171 -0.4363,1.10617 -0.4389,1.7877 -0.01,1.51605 -0.9056,4.90378 -2.2738,8.56065 l -1.0256,2.7412 -1.4983,-2.2221 c -1.074,-1.59283 -1.4488,-2.69219 -1.3236,-3.88211 0.1828,-1.73723 -0.071,-2.02628 -0.981,-1.11648 -0.3842,0.38419 -1.2678,0.0842 -3.0141,-1.02329 -3.4395,-2.18127 -7.505,-3.6095 -11.277,-3.96174 l -3.2055,-0.29933 1.2564,-2.14372 c 1.4382,-2.45412 1.6932,-5.74917 0.4809,-6.21436 -2.2403,-0.85968 -6.021,2.62427 -6.7675,6.23631 -0.3403,1.64684 -0.7073,2.10581 -2.03,2.53883 -3.0339,0.99321 -2.2964,1.21234 3.7649,1.11864 5.4094,-0.0836 6.5147,0.058 10.2477,1.31319 5.0411,1.69501 8.2967,4.12675 11.7235,8.75674 1.364,1.84285 2.665,3.35065 2.8912,3.35065 0.2261,0 0.9838,-1.29487 1.6837,-2.8775 z"
                   id="path21"
                   transform="scale(0.26458333)"
                   inkscape:label="path21" /><path
                   id="path1"
                   style="display:inline;fill:url(#linearGradient18);fill-opacity:1;stroke:#00becf;stroke-width:3.094;stroke-linecap:round;stroke-linejoin:round;stroke-miterlimit:8;stroke-dasharray:1.547, 1.547;stroke-dashoffset:0;stroke-opacity:1;paint-order:stroke fill markers"
                   d="m 162.06453,64.122184 a 75,75 0 0 1 7.61142,32.882231 75,75 0 0 1 -75.000075,75.000075 75,75 0 0 1 -54.926363,-24.13083 75,75 0 0 0 67.358678,42.2615 75,75 0 0 0 75.00007,-75.00007 75,75 0 0 0 -20.04373,-51.012906 z"
                   transform="matrix(2.3931725,0,0,2.3931725,129.52174,-228.43584)" /></g><g
                 id="Nube"
                 transform="matrix(0.29532877,0,0,0.22362819,318.20623,190.26979)"
                 style="display:inline"><path
                   style="fill:#00becf;fill-opacity:1;stroke:none;stroke-width:107.173;stroke-linecap:round;stroke-linejoin:round;stroke-miterlimit:8;stroke-dasharray:none;stroke-dashoffset:0;stroke-opacity:1;paint-order:stroke fill markers"
                   id="path23"
                   sodipodi:type="arc"
                   sodipodi:cx="242.78062"
                   sodipodi:cy="-124.87952"
                   sodipodi:rx="73.801849"
                   sodipodi:ry="73.801849"
                   sodipodi:start="0"
                   sodipodi:end="6.2481189"
                   sodipodi:arc-type="arc"
                   d="m 316.58247,-124.87952 a 73.801849,73.801849 0 0 1 -73.15486,73.799017 73.801849,73.801849 0 0 1 -74.43749,-72.505097 73.801849,73.801849 0 0 1 71.84975,-75.07024 73.801849,73.801849 0 0 1 75.69723,71.18889"
                   sodipodi:open="true" /><path
                   style="fill:#00becf;fill-opacity:1;stroke:none;stroke-width:151.566;stroke-linecap:round;stroke-linejoin:round;stroke-miterlimit:8;stroke-dasharray:none;stroke-dashoffset:0;stroke-opacity:1;paint-order:stroke fill markers"
                   id="path23-7"
                   sodipodi:type="arc"
                   sodipodi:cx="332.72296"
                   sodipodi:cy="-123.78416"
                   sodipodi:rx="147.60512"
                   sodipodi:ry="73.801849"
                   sodipodi:start="0"
                   sodipodi:end="6.2481189"
                   sodipodi:arc-type="arc"
                   d="m 480.32808,-123.78416 a 147.60512,73.801849 0 0 1 -146.31114,73.799017 147.60512,73.801849 0 0 1 -148.87641,-72.505097 147.60512,73.801849 0 0 1 143.70089,-75.07024 147.60512,73.801849 0 0 1 151.39592,71.18889"
                   sodipodi:open="true"
                   transform="matrix(0.9999904,-0.00438221,0,1,0,0)" /><path
                   style="fill:#00becf;fill-opacity:1;stroke:none;stroke-width:107.173;stroke-linecap:round;stroke-linejoin:round;stroke-miterlimit:8;stroke-dasharray:none;stroke-dashoffset:0;stroke-opacity:1;paint-order:stroke fill markers"
                   id="path23-1"
                   sodipodi:type="arc"
                   sodipodi:cx="369.08383"
                   sodipodi:cy="-202.01184"
                   sodipodi:rx="73.801849"
                   sodipodi:ry="94.774315"
                   sodipodi:start="0"
                   sodipodi:end="6.2481189"
                   sodipodi:arc-type="arc"
                   d="m 442.88568,-202.01184 a 73.801849,94.774315 0 0 1 -73.15487,94.77067 73.801849,94.774315 0 0 1 -74.43748,-93.10906 73.801849,94.774315 0 0 1 71.84975,-96.40315 73.801849,94.774315 0 0 1 75.69723,91.41883"
                   sodipodi:open="true"
                   transform="matrix(0.85595604,-0.51704861,-0.93964324,-0.34215577,0,0)" /><path
                   style="fill:#00becf;fill-opacity:1;stroke:none;stroke-width:107.997;stroke-linecap:round;stroke-linejoin:round;stroke-miterlimit:8;stroke-dasharray:none;stroke-dashoffset:0;stroke-opacity:1;paint-order:stroke fill markers"
                   id="path23-12"
                   sodipodi:type="arc"
                   sodipodi:cx="457.82941"
                   sodipodi:cy="-127.89732"
                   sodipodi:rx="86.149582"
                   sodipodi:ry="64.199371"
                   sodipodi:start="0"
                   sodipodi:end="6.2481189"
                   sodipodi:arc-type="arc"
                   d="m 543.97899,-127.89732 a 86.149582,64.199371 0 0 1 -85.39435,64.196901 86.149582,64.199371 0 0 1 -86.89157,-63.071341 86.149582,64.199371 0 0 1 83.87088,-65.30273 86.149582,64.199371 0 0 1 88.36208,61.92639"
                   sodipodi:open="true"
                   transform="matrix(0.99997243,0.00742491,-0.01337096,0.9999106,0,0)" /></g><g
                 id="Nube-2"
                 transform="matrix(0.29532877,0,0,0.22362819,151.77555,214.53395)"
                 style="display:inline"><path
                   style="fill:#00becf;fill-opacity:1;stroke:none;stroke-width:107.173;stroke-linecap:round;stroke-linejoin:round;stroke-miterlimit:8;stroke-dasharray:none;stroke-dashoffset:0;stroke-opacity:1;paint-order:stroke fill markers"
                   id="path23-4"
                   sodipodi:type="arc"
                   sodipodi:cx="242.78062"
                   sodipodi:cy="-124.87952"
                   sodipodi:rx="73.801849"
                   sodipodi:ry="73.801849"
                   sodipodi:start="0"
                   sodipodi:end="6.2481189"
                   sodipodi:arc-type="arc"
                   d="m 316.58247,-124.87952 a 73.801849,73.801849 0 0 1 -73.15486,73.799017 73.801849,73.801849 0 0 1 -74.43749,-72.505097 73.801849,73.801849 0 0 1 71.84975,-75.07024 73.801849,73.801849 0 0 1 75.69723,71.18889"
                   sodipodi:open="true" /><path
                   style="fill:#00becf;fill-opacity:1;stroke:none;stroke-width:151.566;stroke-linecap:round;stroke-linejoin:round;stroke-miterlimit:8;stroke-dasharray:none;stroke-dashoffset:0;stroke-opacity:1;paint-order:stroke fill markers"
                   id="path23-7-8"
                   sodipodi:type="arc"
                   sodipodi:cx="332.72296"
                   sodipodi:cy="-123.78416"
                   sodipodi:rx="147.60512"
                   sodipodi:ry="73.801849"
                   sodipodi:start="0"
                   sodipodi:end="6.2481189"
                   sodipodi:arc-type="arc"
                   d="m 480.32808,-123.78416 a 147.60512,73.801849 0 0 1 -146.31114,73.799017 147.60512,73.801849 0 0 1 -148.87641,-72.505097 147.60512,73.801849 0 0 1 143.70089,-75.07024 147.60512,73.801849 0 0 1 151.39592,71.18889"
                   sodipodi:open="true"
                   transform="matrix(0.9999904,-0.00438221,0,1,0,0)" /><path
                   style="fill:#00becf;fill-opacity:1;stroke:none;stroke-width:107.173;stroke-linecap:round;stroke-linejoin:round;stroke-miterlimit:8;stroke-dasharray:none;stroke-dashoffset:0;stroke-opacity:1;paint-order:stroke fill markers"
                   id="path23-1-9"
                   sodipodi:type="arc"
                   sodipodi:cx="369.08383"
                   sodipodi:cy="-202.01184"
                   sodipodi:rx="73.801849"
                   sodipodi:ry="94.774315"
                   sodipodi:start="0"
                   sodipodi:end="6.2481189"
                   sodipodi:arc-type="arc"
                   d="m 442.88568,-202.01184 a 73.801849,94.774315 0 0 1 -73.15487,94.77067 73.801849,94.774315 0 0 1 -74.43748,-93.10906 73.801849,94.774315 0 0 1 71.84975,-96.40315 73.801849,94.774315 0 0 1 75.69723,91.41883"
                   sodipodi:open="true"
                   transform="matrix(0.85595604,-0.51704861,-0.93964324,-0.34215577,0,0)" /><path
                   style="fill:#00becf;fill-opacity:1;stroke:none;stroke-width:107.997;stroke-linecap:round;stroke-linejoin:round;stroke-miterlimit:8;stroke-dasharray:none;stroke-dashoffset:0;stroke-opacity:1;paint-order:stroke fill markers"
                   id="path23-12-8"
                   sodipodi:type="arc"
                   sodipodi:cx="457.82941"
                   sodipodi:cy="-127.89732"
                   sodipodi:rx="86.149582"
                   sodipodi:ry="64.199371"
                   sodipodi:start="0"
                   sodipodi:end="6.2481189"
                   sodipodi:arc-type="arc"
                   d="m 543.97899,-127.89732 a 86.149582,64.199371 0 0 1 -85.39435,64.196901 86.149582,64.199371 0 0 1 -86.89157,-63.071341 86.149582,64.199371 0 0 1 83.87088,-65.30273 86.149582,64.199371 0 0 1 88.36208,61.92639"
                   sodipodi:open="true"
                   transform="matrix(0.99997243,0.00742491,-0.01337096,0.9999106,0,0)" /></g><g
                 id="Nube-2-2"
                 transform="matrix(0.29532877,0,0,0.22362819,285.14019,223.71458)"
                 style="display:inline"><path
                   style="fill:#00becf;fill-opacity:1;stroke:none;stroke-width:107.173;stroke-linecap:round;stroke-linejoin:round;stroke-miterlimit:8;stroke-dasharray:none;stroke-dashoffset:0;stroke-opacity:1;paint-order:stroke fill markers"
                   id="path23-4-1"
                   sodipodi:type="arc"
                   sodipodi:cx="242.78062"
                   sodipodi:cy="-124.87952"
                   sodipodi:rx="73.801849"
                   sodipodi:ry="73.801849"
                   sodipodi:start="0"
                   sodipodi:end="6.2481189"
                   sodipodi:arc-type="arc"
                   d="m 316.58247,-124.87952 a 73.801849,73.801849 0 0 1 -73.15486,73.799017 73.801849,73.801849 0 0 1 -74.43749,-72.505097 73.801849,73.801849 0 0 1 71.84975,-75.07024 73.801849,73.801849 0 0 1 75.69723,71.18889"
                   sodipodi:open="true" /><path
                   style="fill:#00becf;fill-opacity:1;stroke:none;stroke-width:115.699;stroke-linecap:round;stroke-linejoin:round;stroke-miterlimit:8;stroke-dasharray:none;stroke-dashoffset:0;stroke-opacity:1;paint-order:stroke fill markers"
                   id="path23-1-9-3"
                   sodipodi:type="arc"
                   sodipodi:cx="289.14862"
                   sodipodi:cy="-144.66263"
                   sodipodi:rx="81.938797"
                   sodipodi:ry="99.485313"
                   sodipodi:start="0"
                   sodipodi:end="6.2481189"
                   sodipodi:arc-type="arc"
                   d="m 371.08742,-144.66263 a 81.938797,99.485313 0 0 1 -81.22048,99.481492 81.938797,99.485313 0 0 1 -82.64452,-97.737282 81.938797,99.485313 0 0 1 79.77147,-101.19512 81.938797,99.485313 0 0 1 84.04315,95.96303"
                   sodipodi:open="true"
                   transform="matrix(0.77095515,-0.63688944,-0.89514766,-0.44576974,0,0)" /></g></g></g></g></g></g></g></svg>
